<?xml version="1.0" encoding="UTF-8" standalone="no"?>
<svg width="304px" height="270px" viewBox="0 0 304 270" version="1.1" xmlns="http://www.w3.org/2000/svg" xmlns:xlink="http://www.w3.org/1999/xlink" xmlns:sketch="http://www.bohemiancoding.com/sketch/ns">
    <!-- Generator: Sketch 3.3.2 (12043) - http://www.bohemiancoding.com/sketch -->
    <title>graph</title>
    <desc>Created with Sketch.</desc>
    <defs></defs>
    <g id="Page-3-Copy" stroke="none" stroke-width="1" fill="none" fill-rule="evenodd" sketch:type="MSPage">
        <g id="graph" sketch:type="MSArtboardGroup">
            <g id="Group" sketch:type="MSLayerGroup" transform="translate(8.000000, 9.000000)" stroke="#979797" stroke-linecap="square">
                <path d="M140.815536,123.549453 L238.973597,171.315784" id="Line" sketch:type="MSShapeGroup"></path>
                <path d="M238.056232,171.315784 L207.783185,211.733449" id="Line" sketch:type="MSShapeGroup"></path>
                <path d="M238.973597,171.315784 L195.85744,181.4202" id="Line" sketch:type="MSShapeGroup"></path>
                <path d="M238.973597,170.397201 L249.981978,240.209531" id="Line" sketch:type="MSShapeGroup"></path>
                <path d="M238.973597,169.478618 L287.593945,187.850283" id="Line" sketch:type="MSShapeGroup"></path>
                <path d="M238.973597,168.560034 L253.651438,121.712286" id="Line" sketch:type="MSShapeGroup"></path>
                <path d="M236.221502,168.560034 L214.204741,253.069697" id="Line" sketch:type="MSShapeGroup"></path>
                <path d="M142.650266,123.549453 L214.204741,40.8769565" id="Line" sketch:type="MSShapeGroup"></path>
                <path d="M143.567631,123.549453 L75.6826172,41.7955398" id="Line" sketch:type="MSShapeGroup"></path>
                <path d="M143.567631,124.468036 L41.7401101,148.351202" id="Line" sketch:type="MSShapeGroup"></path>
                <path d="M40.822745,148.351202 L69.2610618,196.117533" id="Line" sketch:type="MSShapeGroup"></path>
                <path d="M33.4838246,188.768867 L39.90538,148.351202" id="Line" sketch:type="MSShapeGroup"></path>
                <path d="M39.90538,149.269785 L0.458682528,137.328202" id="Line" sketch:type="MSShapeGroup"></path>
                <path d="M39.90538,148.351202 L27.0622692,100.584871" id="Line" sketch:type="MSShapeGroup"></path>
                <path d="M38.9880149,147.432619 L66.5089666,85.8875379" id="Line" sketch:type="MSShapeGroup"></path>
                <path d="M74.7652521,40.8769565 L32.5664595,50.9813728" id="Line" sketch:type="MSShapeGroup"></path>
                <path d="M74.7652521,39.9583733 L48.1616655,4.13362482" id="Line" sketch:type="MSShapeGroup"></path>
                <path d="M74.7652521,38.1212067 L99.5341087,4.13362482" id="Line" sketch:type="MSShapeGroup"></path>
                <path d="M75.6826172,39.03979 L127.972425,34.4468735" id="Line" sketch:type="MSShapeGroup"></path>
                <path d="M212.370011,40.8769565 L186.683789,28.0167904" id="Line" sketch:type="MSShapeGroup"></path>
                <path d="M212.370011,41.7955398 L201.36163,0.459291647" id="Line" sketch:type="MSShapeGroup"></path>
                <path d="M213.287376,41.7955398 L264.659819,21.5867074" id="Line" sketch:type="MSShapeGroup"></path>
                <path d="M214.204741,41.7955398 L257.320898,70.2716219" id="Line" sketch:type="MSShapeGroup"></path>
                <path d="M214.204741,40.8769565 L214.204741,86.8061212" id="Line" sketch:type="MSShapeGroup"></path>
            </g>
            <g id="Group-Copy" sketch:type="MSLayerGroup" transform="translate(0.000000, 1.000000)">
                <ellipse id="Oval-76" fill="#FF5767" sketch:type="MSShapeGroup" cx="148.613139" cy="132.275994" rx="45.8682528" ry="45.9291647"></ellipse>
                <ellipse id="Oval-76-Copy" fill="#1D4552" sketch:type="MSShapeGroup" cx="244.477788" cy="178.664451" rx="26.1449041" ry="26.1796239"></ellipse>
                <ellipse id="Oval-76-Copy-2" fill="#0A7A93" sketch:type="MSShapeGroup" cx="221.084979" cy="50.5220811" rx="16.512571" ry="16.5344993"></ellipse>
                <ellipse id="Oval-76-Copy-3" fill="#6A356D" sketch:type="MSShapeGroup" cx="83.4802202" cy="50.5220811" rx="16.512571" ry="16.5344993"></ellipse>
                <ellipse id="Oval-76-Copy-4" fill="#6FC4E2" sketch:type="MSShapeGroup" cx="47.943185" cy="155.346847" rx="16.512571" ry="16.5344993"></ellipse>
                <ellipse id="Oval-76-Copy-5" fill="#D8D8D8" sketch:type="MSShapeGroup" cx="76.5999822" cy="204.844074" rx="7.10957919" ry="7.11902052"></ellipse>
                <ellipse id="Oval-76-Copy-6" fill="#73615F" sketch:type="MSShapeGroup" cx="40.8336059" cy="197.725054" rx="7.10957919" ry="7.11902052"></ellipse>
                <ellipse id="Oval-76-Copy-7" fill="#73615F" sketch:type="MSShapeGroup" cx="7.80846381" cy="145.931368" rx="7.10957919" ry="7.11902052"></ellipse>
                <ellipse id="Oval-76-Copy-8" fill="#FFC503" sketch:type="MSShapeGroup" cx="33.7240267" cy="107.350869" rx="7.10957919" ry="7.11902052"></ellipse>
                <ellipse id="Oval-76-Copy-9" fill="#8EBE82" sketch:type="MSShapeGroup" cx="74.0772283" cy="93.1128284" rx="7.10957919" ry="7.11902052"></ellipse>
                <ellipse id="Oval-76-Copy-10" fill="#FD6335" sketch:type="MSShapeGroup" cx="40.8336059" cy="59.9375599" rx="7.10957919" ry="7.11902052"></ellipse>
                <ellipse id="Oval-76-Copy-11" fill="#73615F" sketch:type="MSShapeGroup" cx="55.0527642" cy="12.4552445" rx="7.10957919" ry="7.11902052"></ellipse>
                <ellipse id="Oval-76-Copy-12" fill="#D8D8D8" sketch:type="MSShapeGroup" cx="105.611652" cy="12.4552445" rx="7.10957919" ry="7.11902052"></ellipse>
                <ellipse id="Oval-76-Copy-13" fill="#FD6335" sketch:type="MSShapeGroup" cx="134.852663" cy="43.4030606" rx="7.10957919" ry="7.11902052"></ellipse>
                <ellipse id="Oval-76-Copy-14" fill="#8EBE82" sketch:type="MSShapeGroup" cx="194.481392" cy="36.2840401" rx="7.10957919" ry="7.11902052"></ellipse>
                <ellipse id="Oval-76-Copy-15" fill="#D8D8D8" sketch:type="MSShapeGroup" cx="208.70055" cy="7.40303636" rx="7.10957919" ry="7.11902052"></ellipse>
                <ellipse id="Oval-76-Copy-16" fill="#FFC503" sketch:type="MSShapeGroup" cx="271.081374" cy="29.1650196" rx="7.10957919" ry="7.11902052"></ellipse>
                <ellipse id="Oval-76-Copy-17" fill="#FD6335" sketch:type="MSShapeGroup" cx="263.971795" cy="79.227809" rx="7.10957919" ry="7.11902052"></ellipse>
                <ellipse id="Oval-76-Copy-20" fill="#D8D8D8" sketch:type="MSShapeGroup" cx="295.109459" cy="197.725054" rx="7.10957919" ry="7.11902052"></ellipse>
                <ellipse id="Oval-76-Copy-21" fill="#48AD9F" sketch:type="MSShapeGroup" cx="256.632875" cy="248.247135" rx="7.10957919" ry="7.11902052"></ellipse>
                <ellipse id="Oval-76-Copy-22" fill="#48AD9F" sketch:type="MSShapeGroup" cx="213.9754" cy="219.082115" rx="7.10957919" ry="7.11902052"></ellipse>
                <ellipse id="Oval-76-Copy-23" fill="#FD6335" sketch:type="MSShapeGroup" cx="204.343066" cy="190.606033" rx="7.10957919" ry="7.11902052"></ellipse>
                <ellipse id="Oval-76-Copy-18" fill="#48AD9F" sketch:type="MSShapeGroup" cx="222.919709" cy="93.4658501" rx="10.0910156" ry="10.1044162"></ellipse>
                <ellipse id="Oval-76-Copy-19" fill="#FFC503" sketch:type="MSShapeGroup" cx="259.614311" cy="132.275994" rx="10.0910156" ry="10.1044162"></ellipse>
                <circle id="Oval-76-Copy-24" fill="#FFC503" sketch:type="MSShapeGroup" cx="220.980469" cy="260.13823" r="7.75"></circle>
            </g>
        </g>
    </g>
</svg>