<svg id="Layer_1" xmlns="http://www.w3.org/2000/svg" xmlns:xlink="http://www.w3.org/1999/xlink" viewBox="0 0 407 299"><style>.st0{fill-rule:evenodd;clip-rule:evenodd;fill:#101926;} .st1{clip-path:url(#SVGID_2_);} .st2{fill-rule:evenodd;clip-rule:evenodd;fill:#1D364E;} .st3{fill:#101926;} .st4{fill-rule:evenodd;clip-rule:evenodd;fill:#192635;} .st5{clip-path:url(#SVGID_4_);}</style><path class="st0" d="M227.4 200.5l17-35.6 86.8 19.8 3.9 18.3zM90.1 267.4L86.6 287l-26.2-44.5s20.8-9.5 31-13.7c10.2-4.1 29-5.4 41.7-2.3 12.7 3.1 7.4 12.4-1.9 18.1-11.5 6.9-41.1 22.8-41.1 22.8zM192.8 131.1l-5.5-21.6 19.5-3.2-4.8-23 25.8-2.8-8.3-27.7 30.2 1.7-56.9 76.6zM122.1 200.8l-7.3-21.1-16.3 8.8-8.2-13.3L77 186.5l-9.8-10.9-10.9 12.3 32.9 12.3 32.9.6z"/><defs><path id="SVGID_1_" d="M286.4 163.3c-7.5 10.2-71.4 65.1-94 82.2-21 15.8-47.7 28-79.5 1.1-25.8-21.9-43.5-36.4-58.5-45.5-12.2-7.4-19.2-10.1-22.1-11.1-2.9-1-1.6-3.5 3.7-4.6 5.5-1.2 54-1.4 75.6 9.7s25.9 1.9 36.5-10.3c29.2-33.5 100.4-132 100.3-131.8 0 0 107.8 15.6 38 110.3z"/></defs><use xlink:href="#SVGID_1_" overflow="visible" fill-rule="evenodd" clip-rule="evenodd" fill="#101926"/><clipPath id="SVGID_2_"><use xlink:href="#SVGID_1_" overflow="visible"/></clipPath><path class="st1 st0" d="M241.1 123.9s-57.5 71-73.1 85.7c-14.1 13.3-38 24.2-56.5 10.3-18.5-13.9-38.4-21-48.9-24.8-18.1-6.4-40.7-4.9-40.7-4.9L127.6 271l54.1 11.8 97.8-109s54.3-41.1 21.4-71.6c-23.8-22-45.1 6.4-59.8 21.7z"/><path class="st0" d="M280.8 158.1s8.7 5.1 17.4 10.6c10.1 6.3 19.3 10.2 20.2 10.1 0 0 13.2-15.2 25.9-40.9 12.6-25.7-10.5-39.9-47.6-59.8-14.2-7.6-48-25.9-48-25.9s-4.7 20.2-6.8 43.2c-3.3 36.4 38.9 62.7 38.9 62.7z"/><path class="st0" d="M352.2 101.8c4.6 4.6 3.2 13.1-3.2 18.9-6.4 5.9-15.3 6.9-20 2.3-4.6-4.6-3.2-13.1 3.2-18.9 6.5-5.9 15.4-6.9 20-2.3z"/><path class="st2" d="M348.2 108.3c1.3 2.1-.1 5.6-3.3 7.9-3.2 2.3-6.8 2.5-8.2.4-1.3-2.1.1-5.6 3.3-7.9 3.2-2.3 6.9-2.5 8.2-.4z"/><path class="st0" d="M363.8 124c2.4 5.2-1.8 11.7-9.4 14.4-7.6 2.7-15.8.7-18.2-4.5-2.4-5.2 1.8-11.7 9.4-14.4 7.7-2.8 15.8-.7 18.2 4.5z"/><path class="st2" d="M358 126.8c.7 2.1-1.3 4.6-4.5 5.5-3.2.9-6.4-.1-7.1-2.2-.7-2.1 1.3-4.6 4.5-5.5 3.2-.9 6.4 0 7.1 2.2z"/><path class="st0" d="M294.4 2.3c4.4 1.9 6.9 4.8 6 7.8-.8 3-5.2 4.1-8.1 3.5-2.9-.6-12.1 1.6-14.4 2.1-2.3.5-5.5-1.5-6.1-3.7-.7-2.2 1.2-4.9 3.3-6.4C280 2 287.9-.5 294.4 2.3zM340.6 30.6c-4-2.6-7.8-3.1-9.9-.7-2.1 2.4-.6 6.6 1.6 8.7 2.1 2.1 5.4 11 6.3 13.2.9 2.2 4.3 3.8 6.5 3.1 2.2-.7 3.5-3.8 3.5-6.3.2-6.2-2-14.2-8-18zM286.7 24c13.6 8.2 17.9 25.8 9.7 39.4-8.2 13.6-25.8 17.9-39.4 9.7s-17.9-25.8-9.7-39.4c8.1-13.5 25.8-17.9 39.4-9.7z"/><path class="st0" d="M324.9 44.1c13.6 8.2 17.9 25.8 9.7 39.4-8.2 13.6-25.8 17.9-39.4 9.7s-17.9-25.8-9.7-39.4c8.1-13.6 25.8-17.9 39.4-9.7z"/><path class="st2" d="M281.4 32.8c8.7 5.3 11.5 16.6 6.3 25.3s-16.6 11.5-25.3 6.2S250.8 47.7 256 39s16.6-11.5 25.4-6.2zM319.6 52.9c8.7 5.3 11.5 16.6 6.3 25.3s-16.6 11.5-25.3 6.2-11.5-16.6-6.3-25.3 16.5-11.5 25.3-6.2z"/><g><path class="st3" d="M261.6 45c-.8-.9-.9-2.3-.2-3.3 1.4-2 3.7-3.3 6.5-3.4 2.5-.1 5.1.6 7.4 2.2 2.3 1.5 4 3.7 4.8 6 .9 2.6.6 5.2-.7 7.3-.8 1.3-2.5 1.6-3.8.7-1.3-.8-1.6-2.5-.7-3.8.5-.8.3-1.9.1-2.4-.4-1.2-1.4-2.4-2.7-3.3-1.3-.9-2.7-1.3-4-1.2-.6 0-1.6.2-2.2 1-.8 1.3-2.5 1.6-3.8.7-.3-.1-.5-.3-.7-.5z"/></g><g><path class="st3" d="M303.6 66.5c-.8-.9-.9-2.3-.2-3.3 2.7-4.1 8.8-4.6 13.8-1.3 5 3.4 6.8 9.2 4.1 13.3-.8 1.3-2.5 1.6-3.8.7-1.3-.8-1.6-2.5-.7-3.8.9-1.3 0-3.9-2.6-5.7-2.6-1.7-5.4-1.5-6.2-.2-.8 1.3-2.5 1.6-3.8.7-.2-.1-.4-.2-.6-.4z"/></g><g><path class="st0" d="M195.2 281.5s9.6 7.2 12.1 10.7l-17.4-.6 5.3-10.1z"/><path class="st0" d="M216.8 260.4c-1.4 5.6-26.8 17.1-26.8 17.1l5.2 4-5.4 10.1-23.6-1.9s-.8-12.2 8.9-26.2c.5-.8-21.6-2.1-22.2-11.7-2.2-37.1 70.8-18.3 63.9 8.6z"/></g><g><path class="st0" d="M70.7 52c21.5 30 2.9 40.2 3.3 57.6.3 14.7 18 17.8 7.8 55.8 17.8-2.2 48.7 2.7 72.2 12.2 0 0 23-28.1 33.3-41.5 21.7 13.7 41 44 40 64.4 14.9-5.9 19.4-1.7 19.4-1.7l12.6-10.8c-9.4-2.8-19.2 1.3-24.9 4.8 1.3-6.5.4-14.3-1.3-20-4.6-15.3-14.2-29.5-27.7-38s-31.3-10-46.5-15.1c-14.4-4.8-28.8-9.6-43.3-14.4-1.1-.4-2.2-.7-3-1.5-.9-.8-1.4-2-2-3.1-8.1-18.1-20.9-34.1-36.9-46"/></g><g><path class="st4" d="M234.6 192.8c.3-1.8 1.1-3.6 1.3-5.4C242.8 108.5 70.7 52 70.7 52 105.9 77.6 93 123.1 93 123.1c158-13.1 141.6 69.7 141.6 69.7z"/></g><g><defs><path id="SVGID_3_" d="M350.1 208.6c8.4-2 13.6-10.8 11.5-19.6-2.1-8.8-10.6-14.4-19-12.4s-17.8 9.8-15.7 18.6 14.7 15.4 23.2 13.4z"/></defs><use xlink:href="#SVGID_3_" overflow="visible" fill-rule="evenodd" clip-rule="evenodd" fill="#101926"/><clipPath id="SVGID_4_"><use xlink:href="#SVGID_3_" overflow="visible"/></clipPath><path class="st5 st0" d="M350.1 208.6c8.4-2 13.6-10.8 11.5-19.6-2.1-8.8-10.6-14.4-19-12.4s-17.8 9.8-15.7 18.6 14.7 15.4 23.2 13.4z"/><path class="st5 st3" d="M336.9 187.5c-.1-.2-.2-.5-.2-.7.1-.5.6-.9 1.1-.8 5.8.8 10.2 2.8 12.2 3.8.5-2.6.7-9.3-5.9-13.7-.5-.3-.6-.9-.3-1.4.3-.5.9-.6 1.4-.3 8.2 5.4 7.5 15 6.2 17.3-.1.2-.4.4-.6.5-.3.1-.5 0-.8-.1-.9-.5-5.6-3.2-12.6-4.2-.1-.1-.3-.2-.5-.4z"/></g><path class="st2" d="M258.3 134.4c-7.2-9.5-14.9-23.2-10.8-34.7.3-1-.2-2.1-1.2-2.4-1-.3-2.1.2-2.4 1.2-1.2 3.3-1.5 6.7-1.3 10.2l-8.2 13.5 15.4 6.4-2.6 14.9 16.9 3.5 1.5 15.2 14.7-.6c1.6 1.3 3.6 2.9 5.1 4 .9-.9 1.4-2.3 2.3-3.2-8.1-5.7-20.2-16-29.4-28z"/></svg>