<?xml version="1.0" encoding="utf-8"?>
<!-- Generator: Adobe Illustrator 23.0.4, SVG Export Plug-In . SVG Version: 6.00 Build 0)  -->
<svg version="1.1" id="Layer_1" xmlns="http://www.w3.org/2000/svg" xmlns:xlink="http://www.w3.org/1999/xlink" x="0px" y="0px"
	 width="500px" height="172px" viewBox="0 0 500 172" style="enable-background:new 0 0 500 172;" xml:space="preserve">
<style type="text/css">
	.st0{fill:#FF9B30;}
	.st1{fill:#E05344;}
	.st2{fill:#FAC631;}
	.st3{fill:#51C74E;}
	.st4{fill:#33B7FC;}
</style>
<path id="path1_fill" class="st0" d="M123.2952271,14.5800629h-8.5352173v32.7509995h8.5352173V14.5800629z"/>
<path id="path2_fill" class="st1" d="M127.6599121,31.0089626c0-10.1933804,7.6817017-16.9889603,17.9239655-16.9889603
	c7.9662323,0,12.3286285,4.435998,14.5098419,8.7776384l-7.3972015,3.4921608
	c-0.5984039-1.3956013-1.5866089-2.5910015-2.8474121-3.4442406c-1.260788-0.8532391-2.7411346-1.3284798-4.2652283-1.3692989
	c-5.4056396,0-9.2939301,4.1528587-9.2939301,9.5326996s3.7934418,9.5326405,9.2939301,9.5326405
	c1.5269623-0.0290031,3.0124359-0.4996033,4.2754364-1.3544006c1.2628021-0.8546028,2.2485962-2.0566025,2.837204-3.4589996
	l7.3972015,3.4919968c-1.2840118,2.7206001-3.3450012,5.0040016-5.9258118,6.5652008
	c-2.5805969,1.5611992-5.566391,2.3307991-8.5840302,2.2126007
	C135.3416138,47.9980011,127.6599121,41.1080017,127.6599121,31.0089626z"/>
<path id="path3_fill" class="st2" d="M161.3200684,42.7027817l4.552124-6.3237991
	c1.3966827,1.3831978,3.0537415,2.4785995,4.8763428,3.2235985c1.8225861,0.7450027,3.7749329,1.125,5.7452545,1.118
	c2.9398956,0,4.7417755-1.1325989,4.7417755-2.7369995c0-4.436039-18.8722992-0.8493996-18.8722992-13.4968395
	c0-5.4742203,4.7417755-10.4765167,13.2770081-10.4765167c4.8908691-0.1550045,9.6734009,1.4538927,13.4665985,4.5303974
	l-4.6468048,6.0405197c-2.7563934-2.16926-6.1594391-3.3645992-9.6733246-3.3978004
	c-2.4657288,0-3.6037598,1.0382195-3.6037598,2.359581c0,4.1528587,18.7774811,1.1325989,18.7774811,13.3080597
	c0,6.6068001-4.9313965,10.9483986-13.8460236,10.9483986C169.3811035,47.9881821,164.7341461,45.9117813,161.3200684,42.7027817z"
	/>
<path id="path4_fill" class="st3" d="M70.8554001,30.4364204c1.6793976-0.3760395,3.171196-1.3304005,4.2124023-2.6946602
	c1.0410004-1.3642406,1.5643997-3.0506592,1.4777985-4.7616005c0-4.1528587-3.1296005-8.4000969-9.6733017-8.4000969H48v32.7509995
	h19.4413223c6.5436783,0,9.768074-4.1529999,9.768074-8.8719978c0.0610046-1.8682022-0.5431976-3.6976013-1.7057953-5.1655388
	C74.3412018,31.8256207,72.6948013,30.8137016,70.8554001,30.4364204z M65.5446014,40.5354614h-9.0093803
	c-0.4527397,0-0.88694-0.1790009-1.2070618-0.4976006c-0.3201408-0.3185997-0.5-0.7508011-0.5-1.2014008
	s0.1798592-0.8825989,0.5-1.2011986c0.3201218-0.3185997,0.7543221-0.4976006,1.2070618-0.4976006h9.0093803
	c0.4527359,0,0.88694,0.1790009,1.2070618,0.4976006c0.320137,0.3185997,0.4999771,0.7505989,0.4999771,1.2011986
	s-0.1798401,0.8828011-0.4999771,1.2014008C66.4315414,40.3564606,65.9973373,40.5354614,65.5446014,40.5354614z
	 M65.5446014,26.566721h-2.6554031v2.7371197c0.0003624,0.2312603-0.0467186,0.4601803-0.1383781,0.672699
	c-0.0916595,0.2125206-0.2259598,0.4041805-0.3946419,0.5632401c-0.1686974,0.1590405-0.3682594,0.2821617-0.5864372,0.3617611
	c-0.2181816,0.0795994-0.4504013,0.1140404-0.6824226,0.101181c-0.2320175,0.0128593-0.4642372-0.0215816-0.6824188-0.101181
	c-0.2181778-0.0795994-0.4177208-0.2027206-0.5864182-0.3617611c-0.1687012-0.1590595-0.3029823-0.3507195-0.3946419-0.5632401
	c-0.0916595-0.2125187-0.1387596-0.4414387-0.138401-0.672699V26.566721h-2.6553993
	c-0.4527206,0-0.8869209-0.1790009-1.207058-0.4976006c-0.3201218-0.3185997-0.4999809-0.7507191-0.4999809-1.2012997
	s0.1798592-0.8827,0.4999809-1.2012997c0.320137-0.3185997,0.7543373-0.4976006,1.207058-0.4976006h2.6553993v-2.6427193
	C59.28508,20.29492,59.33218,20.066021,59.4238396,19.8535004s0.2259407-0.4041805,0.3946419-0.5632401
	c0.1686974-0.1590595,0.3682404-0.2821598,0.5864182-0.3617592c0.2181816-0.0796204,0.4504013-0.1140404,0.6824188-0.1012001
	c0.2320213-0.0128403,0.464241,0.0215797,0.6824226,0.1012001c0.2181778,0.0795994,0.4177399,0.2026997,0.5864372,0.3617592
	c0.1686821,0.1590595,0.3029823,0.3507195,0.3946419,0.5632401s0.1387405,0.4414196,0.1383781,0.6727009v2.7370987h2.7502441
	c0.4527359,0,0.8869171,0.1790009,1.2070541,0.4976006c0.3201447,0.3185997,0.4999847,0.7507401,0.4999847,1.2012997
	c0,0.4505806-0.1798401,0.8827-0.4999847,1.2012997c-0.320137,0.3186207-0.7543182,0.4976006-1.2070541,0.4976006
	L65.5446014,26.566721z"/>
<path id="path5_fill" class="st4" d="M103.4827118,35.3442612c2.0113983-0.7208023,3.7397919-2.0612602,4.9335938-3.8264599
	c1.1938019-1.7652016,1.7910004-3.8632202,1.7048035-5.9893017c0-6.1348991-4.267601-10.9484367-11.5699234-10.9484367H81.8601074
	v32.7509995h8.630043V36.3826599h4.3624573l5.5952988,11.0428009h9.7680054L103.4827118,35.3442612z M99.78405,29.3038197
	c-0.3218002,0.3249607-0.7559586,0.5156212-1.2140808,0.5331612c-0.4580994,0.01754-0.9057007-0.1393795-1.2516403-0.4387798
	l-1.991539-1.9820404l-1.8967209,1.7932796c-0.1509857,0.1630211-0.334259,0.2931404-0.5382996,0.3821201
	c-0.2040405,0.0890007-0.4243851,0.1349392-0.6471405,0.1349392c-0.2227783,0-0.4431229-0.0459385-0.6471634-0.1349392
	c-0.2040176-0.0889797-0.3873215-0.219099-0.5382996-0.3821201c-0.1637955-0.150259-0.2945175-0.3326607-0.3839417-0.5357189
	c-0.0894165-0.2030602-0.1355972-0.4223614-0.1355972-0.6440601c0-0.2217007,0.0461807-0.441,0.1355972-0.6440601
	c0.0894241-0.2030602,0.2201462-0.3854809,0.3839417-0.5357399l1.8967209-1.7932816l-1.9915619-1.9820385
	c-0.1604156-0.1648598-0.2855988-0.3603802-0.3680191-0.5747204c-0.0823975-0.2143593-0.1203156-0.4431-0.1114578-0.6724205
	c0.0088577-0.2293396,0.0643158-0.4545193,0.1630173-0.6619186c0.0987244-0.2074203,0.2386398-0.3927803,0.4113007-0.5449009
	c0.3218231-0.3249607,0.7559814-0.5156193,1.2140808-0.5331593c0.4581223-0.0175209,0.9057236,0.1393795,1.2516632,0.4387798
	l1.991539,1.9820404l1.8967209-1.887661c0.1509781-0.1630192,0.334259-0.2931194,0.5382996-0.3821201
	c0.2040176-0.0890007,0.4243774-0.1349392,0.6471405-0.1349392c0.2227554,0,0.4431152,0.0459385,0.6471329,0.1349392
	c0.2040405,0.0890007,0.3873291,0.219101,0.5383072,0.3821201c0.1637955,0.1502609,0.2945328,0.3326797,0.3839569,0.5357208
	c0.0894241,0.2030602,0.135582,0.4223595,0.135582,0.6440601c0,0.2217197-0.0461578,0.441-0.135582,0.6440582
	c-0.0894241,0.2030602-0.2201614,0.3854809-0.3839569,0.5357399l-1.8967056,1.9820404l1.9915466,1.9820404
	c0.2947159,0.3287792,0.4495544,0.7586403,0.4318542,1.1988792C100.293045,28.5833607,100.1042099,28.9995403,99.78405,29.3038197z"
	/>
<path id="path6_fill" d="M204.5700684,45.7207642c-0.0228882,0.4431992-0.210083,0.8621979-0.5254059,1.1759987
	c-0.3152924,0.313797-0.7363129,0.5001984-1.1816406,0.5229988h-2.2760773
	c-0.4453278-0.0228004-0.8663483-0.2092018-1.1816559-0.5229988c-0.3153076-0.3138008-0.5024872-0.7327995-0.5253754-1.1759987
	V16.273243c-0.0024719-0.4446383,0.1611023-0.8743382,0.4590149-1.2057076
	c0.2979126-0.3313684,0.7088928-0.5407724,1.1531982-0.5875702h2.6553955
	c0.4483032,0.0181065,0.8865051,0.1380939,1.2810211,0.35077c0.3945007,0.212678,0.7348785,0.5123997,0.9950409,0.8762093
	l10.4319153,14.2518587l10.0525818-14.2518587c0.2400055-0.3618174,0.5628052-0.6617336,0.9420013-0.8750534
	c0.3791962-0.2133188,0.8040009-0.3339386,1.2391968-0.3519258h2.276001
	c0.4454041,0.0227718,0.8664093,0.209074,1.1818085,0.5228758c0.3151855,0.3138037,0.5023956,0.7328196,0.5253906,1.1760187
	v29.5419044c-0.022995,0.4431992-0.2102051,0.8621979-0.5253906,1.1759987
	c-0.3153992,0.313797-0.7364044,0.5001984-1.1818085,0.5229988h-2.1811981
	c-0.4452057-0.0228004-0.8661957-0.2092018-1.1815948-0.5229988c-0.3152008-0.3138008-0.5024109-0.7327995-0.5254059-1.1759987
	V23.6351223l-8.7248535,12.0810413c-0.2399597,0.3617973-0.562851,0.6618004-0.9420624,0.875
	c-0.3792267,0.213398-0.8039398,0.3339996-1.2391663,0.3519974c-0.4498596-0.0107994-0.8907013-0.1275978-1.2863617-0.3409996
	c-0.3956604-0.2131996-0.7348328-0.5169983-0.9897003-0.8859978l-8.7248688-11.98666V45.7207642z"/>
<path id="path7_fill_1_" d="M245.4468536,39.0138664l-2.9398956,7.0787964
	c-0.1497192,0.382-0.4097595,0.7113991-0.7472992,0.9463997c-0.3375397,0.2352028-0.7375031,0.3656006-1.1494141,0.3748016
	h-1.7070465c-0.47789,0-0.936203-0.1888008-1.2741241-0.5251999c-0.3379211-0.3362007-0.527771-0.7924004-0.527771-1.2679977
	c-0.0080566-0.2240028,0.0240631-0.4478035,0.0948486-0.6606026L249.6196442,15.70123
	c0.159668-0.3752155,0.422226-0.6981277,0.7576599-0.9318037c0.3354187-0.233674,0.7301483-0.3686752,1.1390533-0.3895597h2.2760468
	c0.4252472,0.0030594,0.8403168,0.1297655,1.1941528,0.3645296c0.3538361,0.234766,0.6309967,0.5673485,0.7974091,0.9568338
	l12.4235229,29.2588348c0.0708008,0.2127991,0.1028137,0.4365997,0.0948181,0.6606026
	c0,0.4755974-0.1898193,0.931797-0.5278015,1.2679977c-0.3380127,0.3363991-0.7962036,0.5251999-1.2742004,0.5251999h-1.991394
	c-0.4120178-0.009201-0.8120117-0.1395988-1.1494141-0.3748016c-0.3375854-0.2350006-0.5975952-0.5643997-0.747406-0.9463997
	l-2.9397888-7.0787964H245.4468536z M247.6280823,33.6340256H257.3013l-4.8365784-11.7035007L247.6280823,33.6340256z"/>
<path id="path8_fill_1_" d="M280.446106,47.5139618c-0.4453125-0.0226021-0.866333-0.2089996-1.1816406-0.5228004
	s-0.5025024-0.7327995-0.5253906-1.1759987V19.9541836h-9.0093994c-0.4453125-0.0227814-0.866333-0.2090797-1.1816406-0.5228806
	s-0.5025024-0.7328205-0.5253906-1.1760197v-1.8876591c-0.0127869-0.235569,0.0212708-0.4713354,0.1001892-0.6937914
	c0.0789185-0.2224541,0.2011719-0.4272242,0.3597412-0.6025782c0.1585693-0.1753559,0.3503418-0.3178453,0.5643616-0.4193096
	c0.2139893-0.1014643,0.4460144-0.1599073,0.6827393-0.1719799h23.8037415
	c0.4454041,0.0227718,0.866394,0.209074,1.1816101,0.5228758c0.3153992,0.3138037,0.502594,0.7328196,0.5253906,1.1760187v1.8876629
	c-0.0227966,0.4432011-0.2099915,0.8622208-0.5253906,1.1760197c-0.3152161,0.3138008-0.7362061,0.5001011-1.1816101,0.5228806
	h-9.0093689v25.9553413c-0.0228882,0.4431992-0.210083,0.8621979-0.5253601,1.1759987
	c-0.3153381,0.313797-0.7363586,0.5001984-1.1816711,0.5229988L280.446106,47.5139618z"/>
<path id="path9_fill" d="M328.1434937,45.7207642c-0.0227966,0.4431992-0.2099915,0.8621979-0.5253906,1.1759987
	c-0.3151855,0.313797-0.7362061,0.5001984-1.1816101,0.5229988h-2.276001
	c-0.4454041-0.0228004-0.866394-0.2092018-1.1815796-0.5229988c-0.3153992-0.3138008-0.502594-0.7327995-0.5254211-1.1759987
	V33.3565826h-15.1737671v12.3641815c-0.0228882,0.4431992-0.210083,0.8621979-0.5253906,1.1759987
	c-0.3153076,0.313797-0.7363281,0.5001984-1.1816406,0.5229988h-2.4657593
	c-0.4453125-0.0228004-0.866333-0.2092018-1.1816406-0.5229988c-0.3153076-0.3138008-0.5025024-0.7327995-0.5253906-1.1759987
	V16.273243c-0.0006409-0.4596958,0.1761475-0.9020844,0.4938049-1.2358017
	c0.317688-0.3337202,0.7519836-0.5332823,1.2132263-0.557476h2.276062c0.4453125,0.0227718,0.866333,0.209074,1.1816711,0.5228758
	c0.3153076,0.3138037,0.5025024,0.7328196,0.5253906,1.1760187v11.797884h15.173645V16.273243
	c0-0.475606,0.1900024-0.9317341,0.5278015-1.2680378c0.3380127-0.3363056,0.7962036-0.5252399,1.2742004-0.5252399h2.276001
	c0.4454041,0.0227718,0.866394,0.209074,1.1816101,0.5228758c0.3153992,0.3138037,0.502594,0.7328196,0.5253906,1.1760187
	L328.1434937,45.7207642z"/>
<path id="path10_fill" d="M343.1286926,43.9371223c0.0255737,0.4711418-0.042511,0.9426804-0.2003479,1.3875999
	c-0.1578674,0.4449005-0.4023743,0.8544426-0.7195129,1.205162c-0.3171692,0.3507004-0.7007446,0.6356812-1.1287231,0.8386192
	c-0.428009,0.202919-0.8920288,0.3198013-1.365509,0.3439598c-0.501709,0.0129623-1.000824-0.0758209-1.4669495-0.2609406
	c-0.4661255-0.1851387-0.8895569-0.4627571-1.2444458-0.815937c-0.3548889-0.3532028-0.6338196-0.7745819-0.8198547-1.2384834
	c-0.1860046-0.4639168-0.2752075-0.960659-0.2621765-1.45998c0.0119934-0.4792976,0.1204224-0.9513588,0.3189087-1.388237
	s0.4829712-0.8297195,0.8366089-1.1552925c0.3536682-0.325573,0.7693176-0.5772705,1.2224121-0.7402115
	c0.453064-0.1629372,0.9344177-0.2338104,1.4154968-0.2084274c0.9063721,0.0472603,1.7614441,0.4331436,2.3943481,1.0805435
	C342.7419128,42.1728973,343.1060486,43.0341454,343.1286926,43.9371223z"/>
<path id="path11_fill" d="M364.7556152,19.3998413c-6.1643066,0-10.8112793,4.4360008-10.8112793,11.6091213
	c0,7.1730404,4.6469727,11.6090374,11.4751587,11.6090374c2.0991516,0.0012016,4.1609497-0.552597,5.9745483-1.6043968
	l1.0431824-0.2832031c0.2972107-0.0165977,0.5935974,0.0442009,0.8595886,0.1766014
	c0.2662048,0.1325989,0.4930115,0.3320007,0.6578064,0.5783997l0.8536072,1.3213997
	c0.1994019,0.3090019,0.2986145,0.671402,0.2843933,1.0382004c0.0038147,0.2571983-0.0543823,0.5113983-0.1699829,0.7414017
	c-0.1154175,0.2297974-0.2848206,0.4287987-0.4938049,0.579998c-2.8192139,1.9119987-6.1674194,2.9017982-9.5783691,2.8316002
	c-10.1473999,0-17.0704346-6.7011986-17.0704346-16.9890385c0-10.2877598,6.0694885-16.9889603,16.9755859-16.9889603
	c3.0258179,0.0827808,5.9866028,0.8922997,8.6300049,2.3595781c0.268219,0.107481,0.4998169,0.2889404,0.6678162,0.5230198
	c0.1679993,0.2341003,0.2653809,0.5110607,0.2806091,0.7983398c-0.0134277,0.3334408-0.1114197,0.6580811-0.2846069,0.9438419
	l-0.9482117,1.6988983c-0.1376038,0.2565804-0.3425903,0.4711609-0.5932007,0.6207809
	c-0.2503967,0.1496201-0.5372009,0.2286606-0.8294067,0.2286606c-0.3661804-0.0057602-0.7247925-0.1031208-1.0431824-0.2831612
	C368.829834,19.9339619,366.8103943,19.4153214,364.7556152,19.3998413z"/>
<path id="path12_fill" d="M395.485321,14.0200043c9.8629456,0,17.2601624,6.7011986,17.2601624,16.9889603
	c0,10.2878418-7.3972168,16.9890366-17.2601624,16.9890366c-9.862915,0-17.1652527-6.7011986-17.1652527-16.9890385
	C378.3200684,20.7212029,385.3379211,14.0200043,395.485321,14.0200043z M395.485321,42.618
	c6.9229431,0,11.0957336-5.0965996,11.0957336-11.6090374s-4.8365784-11.6091213-11.0957336-11.6091213
	s-11.0957642,4.7191601-11.0957642,11.6091213C384.3895569,37.8990021,389.3210144,42.618,395.485321,42.618z"/>
<path id="path13_fill" d="M424.4902344,45.7207642c-0.0229187,0.4431992-0.210083,0.8621979-0.5253906,1.1759987
	c-0.3153076,0.313797-0.7363281,0.5001984-1.1816406,0.5229988h-2.2760925
	c-0.445343-0.0228004-0.8663635-0.2092018-1.1816711-0.5229988c-0.3153076-0.3138008-0.5024719-0.7327995-0.5253601-1.1759987
	V16.273243c-0.0024719-0.4446383,0.1611023-0.8743382,0.4590149-1.2057076
	c0.2979126-0.3313684,0.7088928-0.5407724,1.1531982-0.5875702h2.6553955
	c0.4403992,0.0070419,0.8735657,0.1124773,1.2675171,0.3085155s0.7386169,0.4776678,1.0085144,0.8240824l10.4319458,14.2518606
	l10.0525818-14.1574793c0.2399902-0.3618174,0.5628052-0.6617336,0.9420166-0.8750534
	c0.3791809-0.2133188,0.8039856-0.3339386,1.2391968-0.3519258h2.276001c0.4453735,0.0227718,0.866394,0.209074,1.1817932,0.5228758
	c0.3151855,0.3138037,0.5024109,0.7328196,0.5253906,1.1760187v29.5419044
	c-0.0229797,0.4431992-0.2102051,0.8621979-0.5253906,1.1759987c-0.3153992,0.313797-0.7364197,0.5001984-1.1817932,0.5229988
	h-2.276001c-0.4454041-0.0228004-0.8664246-0.2092018-1.1816101-0.5229988
	c-0.3153992-0.3138008-0.502594-0.7327995-0.5253906-1.1759987V23.6351223l-8.6300964,12.0810413
	c-0.2399597,0.3617973-0.5628052,0.6618004-0.9420471,0.875c-0.3792114,0.213398-0.8039246,0.3339996-1.2391357,0.3519974
	c-0.4498596-0.0107994-0.8907166-0.1275978-1.286377-0.3409996c-0.3956604-0.2131996-0.7348328-0.5169983-0.9896851-0.8859978
	l-8.724884-11.8922615V45.7207642z"/>
<path d="M162.8793945,75.8521576c0,2.6289062-0.6645508,4.6953125-1.9936523,6.1992188
	c-1.3286133,1.5058594-3.1875,2.2578125-5.5756836,2.2578125c-2.418457,0-4.2880859-0.7392578-5.6098633-2.2177734
	c-1.3212891-1.4785156-1.9819336-3.5654297-1.9819336-6.2607422c0-2.6738281,0.6567383-4.7451172,1.9711914-6.2167969
	c1.3134766-1.4707031,3.1948242-2.2070312,5.6430664-2.2070312c2.3808594,0,4.2338867,0.7470703,5.559082,2.2412109
	C162.2167969,71.1412201,162.8793945,73.2095795,162.8793945,75.8521576z M149.8969727,75.8521576
	c0,2.171875,0.4604492,3.8261719,1.3813477,4.9648438c0.9208984,1.1376953,2.2646484,1.7070312,4.0317383,1.7070312
	c1.7592773,0,3.0957031-0.5625,4.0092773-1.6855469s1.3701172-2.7851562,1.3701172-4.9863281
	c0-2.1933594-0.453125-3.8457031-1.3588867-4.9580078c-0.9057617-1.1113281-2.2387695-1.6669922-3.9980469-1.6669922
	c-1.7817383,0-3.1333008,0.5625-4.0541992,1.6894531S149.8969727,73.6890717,149.8969727,75.8521576z"/>
<path d="M174.6264648,84.0845795v-7.8837891c0-1.0029297-0.2226562-1.75-0.6679688-2.2402344
	c-0.4458008-0.4902344-1.144043-0.7353516-2.0947266-0.7353516c-1.2651367,0-2.1845703,0.3496094-2.7568359,1.0498047
	c-0.5732422,0.7001953-0.859375,1.8398438-0.859375,3.4189453v6.390625h-2.0214844V71.7535248h1.628418l0.3032227,1.6845703
	h0.1123047c0.3818359-0.6064453,0.9169922-1.0761719,1.605957-1.4091797s1.4487305-0.5,2.2797852-0.5
	c1.512207,0,2.6352539,0.3671875,3.3691406,1.1005859s1.1005859,1.875,1.1005859,3.4257812v8.0292969H174.6264648z"/>
<path d="M182.465332,84.0845795h-2.0214844V66.6099701h2.0214844V84.0845795z"/>
<path d="M186.2163086,68.4185638c0-0.4492188,0.1142578-0.7753906,0.3427734-0.9775391
	c0.2280273-0.2021484,0.5107422-0.3037109,0.8476562-0.3037109c0.3144531,0,0.5898438,0.1015625,0.8251953,0.3037109
	c0.2363281,0.2021484,0.3540039,0.5283203,0.3540039,0.9775391c0,0.4414062-0.1176758,0.7666016-0.3540039,0.9765625
	c-0.2353516,0.2099609-0.5107422,0.3144531-0.8251953,0.3144531c-0.3369141,0-0.6196289-0.1044922-0.8476562-0.3144531
	C186.3305664,69.1851654,186.2163086,68.8599701,186.2163086,68.4185638z M188.3950195,84.0845795h-2.0214844V71.7535248h2.0214844
	V84.0845795z"/>
<path d="M200.7036133,84.0845795v-7.8837891c0-1.0029297-0.2226562-1.75-0.6679688-2.2402344
	c-0.4458008-0.4902344-1.144043-0.7353516-2.0947266-0.7353516c-1.2651367,0-2.1845703,0.3496094-2.7568359,1.0498047
	c-0.5732422,0.7001953-0.859375,1.8398438-0.859375,3.4189453v6.390625h-2.0214844V71.7535248h1.628418l0.3032227,1.6845703
	h0.1123047c0.3818359-0.6064453,0.9169922-1.0761719,1.605957-1.4091797s1.4487305-0.5,2.2797852-0.5
	c1.512207,0,2.6352539,0.3671875,3.3691406,1.1005859s1.1005859,1.875,1.1005859,3.4257812v8.0292969H200.7036133z"/>
<path d="M211.765625,84.3091888c-1.8491211,0-3.2998047-0.5595703-4.3520508-1.6787109
	c-1.0517578-1.1191406-1.5776367-2.6601562-1.5776367-4.6220703c0-1.9765625,0.4902344-3.5498047,1.4711914-4.7216797
	s2.3061523-1.7578125,3.9755859-1.7578125c1.5498047,0,2.7851562,0.5,3.7060547,1.4990234
	c0.9208984,1,1.3813477,2.3535156,1.3813477,4.0605469v1.2236328h-8.4453125
	c0.0375977,1.4003906,0.3930664,2.4628906,1.0668945,3.1894531s1.628418,1.0888672,2.8637695,1.0888672
	c0.6586914,0,1.2841797-0.0576172,1.8754883-0.1738281s1.2841797-0.3417969,2.0776367-0.6796875v1.7753906
	c-0.6811523,0.2910156-1.3212891,0.4970703-1.9204102,0.6171875S212.581543,84.3091888,211.765625,84.3091888z
	 M211.2602539,73.1802826c-0.9658203,0-1.7294922,0.3105469-2.2910156,0.9316406s-0.8945312,1.4863281-0.9995117,2.59375h6.277832
	c-0.0151367-1.1523438-0.2807617-2.0283203-0.7973633-2.6269531
	C212.9335938,73.4791107,212.2036133,73.1802826,211.2602539,73.1802826z"/>
<path d="M230.4082031,84.3091888c-1.7744141,0-3.1557617-0.5449219-4.144043-1.6337891
	c-0.9882812-1.0898438-1.4824219-2.6523438-1.4824219-4.6884766c0-2.0664062,0.4995117-3.6601562,1.4995117-4.7792969
	c0.9990234-1.1191406,2.4238281-1.6787109,4.2729492-1.6787109c0.5991211,0,1.1923828,0.0615234,1.7797852,0.1855469
	c0.5878906,0.1230469,1.0727539,0.2822266,1.4545898,0.4775391l-0.6176758,1.6835938
	c-1.0405273-0.3886719-1.9277344-0.5839844-2.6616211-0.5839844c-1.2426758,0-2.1601562,0.3916016-2.7514648,1.1738281
	s-0.887207,1.9492188-0.887207,3.4980469c0,1.4902344,0.2958984,2.6298828,0.887207,3.4199219
	s1.4672852,1.1855469,2.6279297,1.1855469c1.0854492,0,2.1523438-0.2402344,3.2006836-0.71875v1.796875
	C232.7329102,84.0884857,231.6733398,84.3091888,230.4082031,84.3091888z"/>
<path d="M247.2207031,77.8970795c0,2.0136719-0.5097656,3.5859375-1.5273438,4.7167969
	c-1.0195312,1.1298828-2.4257812,1.6953125-4.2226562,1.6953125c-1.1152344,0-2.1035156-0.2597656-2.9648438-0.7802734
	s-1.5239258-1.2675781-1.9882812-2.2412109c-0.4643555-0.9726562-0.6962891-2.1035156-0.6962891-3.390625
	c0-2.0068359,0.5014648-3.5703125,1.5048828-4.6894531c1.0039062-1.1191406,2.4101562-1.6787109,4.2226562-1.6787109
	c1.7363281,0,3.1171875,0.5712891,4.1386719,1.7128906S247.2207031,75.9351654,247.2207031,77.8970795z M237.9101562,77.8970795
	c0,1.5488281,0.3046875,2.7265625,0.9160156,3.53125c0.609375,0.8046875,1.5097656,1.2070312,2.7011719,1.2070312
	c1.1738281,0,2.0683594-0.4023438,2.6835938-1.2070312c0.6132812-0.8046875,0.9199219-1.9824219,0.9199219-3.53125
	c0-1.5507812-0.3085938-2.7167969-0.9257812-3.4990234s-1.5214844-1.1728516-2.7128906-1.1728516
	C239.1035156,73.2252045,237.9101562,74.7818451,237.9101562,77.8970795z"/>
<path d="M266.109375,84.0845795v-7.9394531c0-1.9472656-0.8339844-2.9199219-2.5039062-2.9199219
	c-1.1455078,0-1.9882812,0.3330078-2.5273438,0.9990234s-0.8085938,1.6845703-0.8085938,3.0546875v6.8056641h-2.0097656v-7.9394531
	c0-0.9736328-0.2041016-1.7041016-0.6123047-2.1904297s-1.0458984-0.7294922-1.9150391-0.7294922
	c-1.1376953,0-1.9707031,0.3476562-2.4980469,1.0439453c-0.5283203,0.6962891-0.7919922,1.8378906-0.7919922,3.4248047v6.390625
	h-2.0214844V71.7535248h1.6279297l0.3037109,1.6845703h0.1123047c0.3515625-0.5986328,0.8476562-1.0664062,1.4882812-1.4042969
	c0.6396484-0.3359375,1.3564453-0.5048828,2.1503906-0.5048828c1.9316406,0,3.1894531,0.6884766,3.7734375,2.0664062h0.1123047
	c0.3964844-0.6591797,0.9375-1.1679688,1.6230469-1.5273438c0.6845703-0.359375,1.4619141-0.5390625,2.3300781-0.5390625
	c1.3925781,0,2.4355469,0.359375,3.1279297,1.078125s1.0390625,1.8681641,1.0390625,3.4482422v8.0292969H266.109375z"/>
<path d="M277.7666016,84.3091888c-1.6542969,0-2.9277344-0.5957031-3.8183594-1.7851562h-0.1347656l0.0449219,0.4599609
	c0.0595703,0.5839844,0.0898438,1.1044922,0.0898438,1.5615234v5.0649414h-2.0214844V71.7535248h1.6621094l0.2695312,1.6845703
	h0.0898438c0.4794922-0.6738281,1.0332031-1.1601562,1.6621094-1.4599609s1.3554688-0.4492188,2.1787109-0.4492188
	c1.6025391,0,2.8466797,0.5556641,3.734375,1.6679688c0.8867188,1.1113281,1.3300781,2.6787109,1.3300781,4.7001953
	c0,2.0136719-0.4453125,3.5859375-1.3359375,4.7167969C280.6269531,83.7437592,279.3759766,84.3091888,277.7666016,84.3091888z
	 M277.4296875,73.2252045c-1.2207031,0-2.1015625,0.34375-2.6445312,1.0332031
	c-0.5429688,0.6884766-0.8222656,1.7705078-0.8369141,3.2451172v0.3935547c0,1.6689453,0.2773438,2.8759766,0.8310547,3.6210938
	s1.4521484,1.1171875,2.6953125,1.1171875c1.0332031,0,1.8398438-0.4189453,2.4199219-1.2578125
	c0.5800781-0.8378906,0.8710938-2.0058594,0.8710938-3.5039062c0-1.5039062-0.2910156-2.6552734-0.8710938-3.453125
	C279.3144531,73.623642,278.4931641,73.2252045,277.4296875,73.2252045z"/>
<path d="M291.3222656,84.3091888c-1.8496094,0-3.3007812-0.5595703-4.3525391-1.6787109s-1.5771484-2.6601562-1.5771484-4.6220703
	c0-1.9765625,0.4902344-3.5498047,1.4707031-4.7216797s2.3056641-1.7578125,3.9755859-1.7578125
	c1.5498047,0,2.7851562,0.5,3.7060547,1.4990234c0.9208984,1,1.3808594,2.3535156,1.3808594,4.0605469v1.2236328h-8.4453125
	c0.0380859,1.4003906,0.3935547,2.4628906,1.0673828,3.1894531s1.6279297,1.0888672,2.8642578,1.0888672
	c0.6582031,0,1.2832031-0.0576172,1.875-0.1738281s1.2841797-0.3417969,2.078125-0.6796875v1.7753906
	c-0.6816406,0.2910156-1.3222656,0.4970703-1.9208984,0.6171875S292.1376953,84.3091888,291.3222656,84.3091888z
	 M290.8164062,73.1802826c-0.9658203,0-1.7294922,0.3105469-2.2910156,0.9316406s-0.8945312,1.4863281-1,2.59375h6.2783203
	c-0.0146484-1.1523438-0.2802734-2.0283203-0.7978516-2.6269531
	C292.4902344,73.4791107,291.7597656,73.1802826,290.8164062,73.1802826z"/>
<path d="M303.1699219,82.6587982c0.2617188,0,0.5683594-0.0263672,0.9199219-0.0791016
	c0.3525391-0.0527344,0.6181641-0.1123047,0.7978516-0.1796875v1.5498047
	c-0.1875,0.0820312-0.4775391,0.1630859-0.8701172,0.2412109c-0.3935547,0.0791016-0.7919922,0.1181641-1.1962891,0.1181641
	c-2.4111328,0-3.6162109-1.2695312-3.6162109-3.8066406v-7.1767578h-1.7402344v-0.9658203l1.7626953-0.8085938l0.8085938-2.6279297
	h1.2021484v2.8300781h3.5595703v1.5722656h-3.5595703v7.1201172c0,0.7109375,0.1699219,1.2578125,0.5107422,1.6396484
	S302.5625,82.6587982,303.1699219,82.6587982z"/>
<path d="M307.1894531,68.4185638c0-0.4492188,0.1142578-0.7753906,0.3427734-0.9775391s0.5107422-0.3037109,0.8476562-0.3037109
	c0.3144531,0,0.5898438,0.1015625,0.8251953,0.3037109c0.2363281,0.2021484,0.3535156,0.5283203,0.3535156,0.9775391
	c0,0.4414062-0.1171875,0.7666016-0.3535156,0.9765625c-0.2353516,0.2099609-0.5107422,0.3144531-0.8251953,0.3144531
	c-0.3369141,0-0.6191406-0.1044922-0.8476562-0.3144531S307.1894531,68.8599701,307.1894531,68.4185638z M309.3681641,84.0845795
	h-2.0214844V71.7535248h2.0214844V84.0845795z"/>
<path d="M317.3984375,82.6587982c0.2617188,0,0.5683594-0.0263672,0.9199219-0.0791016
	c0.3525391-0.0527344,0.6181641-0.1123047,0.7978516-0.1796875v1.5498047
	c-0.1875,0.0820312-0.4775391,0.1630859-0.8701172,0.2412109c-0.3935547,0.0791016-0.7919922,0.1181641-1.1962891,0.1181641
	c-2.4111328,0-3.6162109-1.2695312-3.6162109-3.8066406v-7.1767578h-1.7402344v-0.9658203l1.7626953-0.8085938l0.8085938-2.6279297
	h1.2021484v2.8300781h3.5595703v1.5722656h-3.5595703v7.1201172c0,0.7109375,0.1699219,1.2578125,0.5107422,1.6396484
	S316.7910156,82.6587982,317.3984375,82.6587982z"/>
<path d="M321.4179688,68.4185638c0-0.4492188,0.1142578-0.7753906,0.3427734-0.9775391s0.5107422-0.3037109,0.8476562-0.3037109
	c0.3144531,0,0.5898438,0.1015625,0.8251953,0.3037109c0.2363281,0.2021484,0.3535156,0.5283203,0.3535156,0.9775391
	c0,0.4414062-0.1171875,0.7666016-0.3535156,0.9765625c-0.2353516,0.2099609-0.5107422,0.3144531-0.8251953,0.3144531
	c-0.3369141,0-0.6191406-0.1044922-0.8476562-0.3144531S321.4179688,68.8599701,321.4179688,68.4185638z M323.5966797,84.0845795
	h-2.0214844V71.7535248h2.0214844V84.0845795z"/>
<path d="M338.21875,77.8970795c0,2.0136719-0.5087891,3.5859375-1.5273438,4.7167969
	c-1.0185547,1.1298828-2.4257812,1.6953125-4.2226562,1.6953125c-1.1152344,0-2.1035156-0.2597656-2.9648438-0.7802734
	s-1.5234375-1.2675781-1.9882812-2.2412109c-0.4638672-0.9726562-0.6953125-2.1035156-0.6953125-3.390625
	c0-2.0068359,0.5009766-3.5703125,1.5039062-4.6894531c1.0039062-1.1191406,2.4111328-1.6787109,4.2226562-1.6787109
	c1.7373047,0,3.1171875,0.5712891,4.1386719,1.7128906C337.7080078,74.3834076,338.21875,75.9351654,338.21875,77.8970795z
	 M328.9082031,77.8970795c0,1.5488281,0.3056641,2.7265625,0.9160156,3.53125s1.5097656,1.2070312,2.7011719,1.2070312
	c1.1748047,0,2.0693359-0.4023438,2.6835938-1.2070312s0.9208984-1.9824219,0.9208984-3.53125
	c0-1.5507812-0.3085938-2.7167969-0.9267578-3.4990234c-0.6171875-0.7822266-1.5214844-1.1728516-2.7119141-1.1728516
	C330.1025391,73.2252045,328.9082031,74.7818451,328.9082031,77.8970795z"/>
<path d="M349.8193359,84.0845795v-7.8837891c0-1.0029297-0.2226562-1.75-0.6679688-2.2402344
	s-1.1435547-0.7353516-2.0947266-0.7353516c-1.265625,0-2.1845703,0.3496094-2.7568359,1.0498047
	c-0.5732422,0.7001953-0.859375,1.8398438-0.859375,3.4189453v6.390625h-2.0214844V71.7535248h1.6279297l0.3037109,1.6845703
	h0.1123047c0.3818359-0.6064453,0.9169922-1.0761719,1.6054688-1.4091797c0.6894531-0.3330078,1.4492188-0.5,2.2802734-0.5
	c1.5126953,0,2.6357422,0.3671875,3.3691406,1.1005859s1.1005859,1.875,1.1005859,3.4257812v8.0292969H349.8193359z"/>
<path d="M100.0224609,102.4190521c0-0.4492188,0.1142578-0.7753906,0.3427734-0.9775391
	c0.2280273-0.2021484,0.5107422-0.3037109,0.8476562-0.3037109c0.3144531,0,0.5898438,0.1015625,0.8251953,0.3037109
	c0.2363281,0.2021484,0.3540039,0.5283203,0.3540039,0.9775391c0,0.4414062-0.1176758,0.7666016-0.3540039,0.9765625
	c-0.2353516,0.2099609-0.5107422,0.3144531-0.8251953,0.3144531c-0.3369141,0-0.6196289-0.1044922-0.8476562-0.3144531
	C100.1367188,103.1856537,100.0224609,102.8604584,100.0224609,102.4190521z M102.2011719,118.0850677h-2.0214844v-12.3310547
	h2.0214844V118.0850677z"/>
<path d="M114.5097656,118.0850677v-7.8837891c0-1.0029297-0.2226562-1.75-0.6679688-2.2402344
	c-0.4458008-0.4902344-1.144043-0.7353516-2.0947266-0.7353516c-1.2651367,0-2.1845703,0.3496094-2.7568359,1.0498047
	c-0.5732422,0.7001953-0.859375,1.8398438-0.859375,3.4189453v6.390625h-2.0214844v-12.3310547h1.628418l0.3032227,1.6845703
	h0.1123047c0.3818359-0.6064453,0.9169922-1.0761719,1.605957-1.4091797s1.4487305-0.5,2.2797852-0.5
	c1.512207,0,2.6352539,0.3671875,3.3691406,1.1005859s1.1005859,1.875,1.1005859,3.4257812v8.0292969H114.5097656z"/>
<path d="M133.8261719,118.0850677l-5.4130859-14.3974609h-0.0898438c0.1123047,1.1982422,0.168457,2.6767578,0.168457,4.4365234
	v9.9609375h-1.9091797v-16.4189453h3.0546875l5.0649414,13.4541016h0.0898438l5.1547852-13.4541016h3.0322266v16.4189453h-2.0439453
	v-10.0957031c0-1.1230469,0.0522461-2.5498047,0.1572266-4.2792969h-0.0898438l-5.4804688,14.375H133.8261719z"/>
<path d="M154.7822266,118.0850677l-0.3930664-1.7519531h-0.0898438c-0.6137695,0.7714844-1.2260742,1.2929688-1.8364258,1.5664062
	c-0.6098633,0.2734375-1.3793945,0.4101562-2.3076172,0.4101562c-1.2128906,0-2.1635742-0.3183594-2.8525391-0.9550781
	c-0.6889648-0.6357422-1.0332031-1.5341797-1.0332031-2.6953125c0-2.5,1.9726562-3.8105469,5.918457-3.9296875l2.0888672-0.0791016
	v-0.7294922c0-0.9365234-0.2021484-1.6269531-0.6064453-2.0722656s-1.0517578-0.6679688-1.9428711-0.6679688
	c-0.6513672,0-1.2670898,0.0966797-1.8476562,0.2910156c-0.5800781,0.1953125-1.1245117,0.4121094-1.6337891,0.6523438
	l-0.6176758-1.5166016c0.621582-0.3291016,1.2988281-0.5878906,2.0327148-0.7744141
	c0.7338867-0.1875,1.4599609-0.28125,2.1787109-0.28125c1.4897461,0,2.5981445,0.3291016,3.3242188,0.9882812
	s1.0893555,1.7070312,1.0893555,3.1445312v8.4003906H154.7822266z M150.6157227,116.6807709
	c1.1303711,0,2.0195312-0.3046875,2.6674805-0.9150391c0.6474609-0.6103516,0.9711914-1.4765625,0.9711914-2.5996094v-1.1123047
	l-1.8193359,0.0791016c-1.4150391,0.0527344-2.4462891,0.2773438-3.0942383,0.6738281
	c-0.6474609,0.3964844-0.9711914,1.0224609-0.9711914,1.8759766c0,0.6435547,0.1967773,1.1376953,0.5893555,1.4824219
	C149.3525391,116.5088959,149.9042969,116.6807709,150.6157227,116.6807709z"/>
<path d="M164.1933594,116.6592865c0.262207,0,0.5688477-0.0263672,0.9208984-0.0791016s0.6176758-0.1123047,0.7973633-0.1796875
	v1.5498047c-0.1870117,0.0820312-0.4775391,0.1630859-0.8701172,0.2412109
	c-0.3935547,0.0791016-0.7919922,0.1181641-1.1962891,0.1181641c-2.4106445,0-3.6162109-1.2695312-3.6162109-3.8066406v-7.1767578
	h-1.7407227v-0.9658203l1.7631836-0.8085938l0.8085938-2.6279297h1.2016602v2.8300781h3.5600586v1.5722656h-3.5600586v7.1201172
	c0,0.7109375,0.1704102,1.2578125,0.5112305,1.6396484C163.1132812,116.4678802,163.5869141,116.6592865,164.1933594,116.6592865z"
	/>
<path d="M176.7714844,118.0850677v-7.8837891c0-1.0029297-0.2226562-1.75-0.6679688-2.2402344
	c-0.4458008-0.4902344-1.144043-0.7353516-2.0947266-0.7353516c-1.2504883,0-2.1655273,0.3476562-2.7460938,1.0439453
	c-0.5800781,0.6962891-0.8701172,1.8457031-0.8701172,3.4482422v6.3671875h-2.0214844v-17.4746094h2.0214844v5.1210938
	c0,0.6738281-0.0375977,1.25-0.1123047,1.7294922h0.1347656c0.3666992-0.5986328,0.887207-1.0673828,1.5610352-1.4033203
	c0.6738281-0.3378906,1.4335938-0.5058594,2.2797852-0.5058594c1.4975586,0,2.6240234,0.3574219,3.3803711,1.0722656
	s1.1342773,1.859375,1.1342773,3.4316406v8.0292969H176.7714844z"/>
<path d="M187.8334961,118.3096771c-1.8491211,0-3.2998047-0.5595703-4.3520508-1.6787109
	c-1.0517578-1.1191406-1.5776367-2.6601562-1.5776367-4.6220703c0-1.9765625,0.4902344-3.5498047,1.4711914-4.7216797
	s2.3061523-1.7578125,3.9755859-1.7578125c1.5498047,0,2.7851562,0.5,3.7060547,1.4990234
	c0.9208984,1,1.3813477,2.3535156,1.3813477,4.0605469v1.2236328h-8.4453125
	c0.0375977,1.4003906,0.3930664,2.4628906,1.0668945,3.1894531s1.628418,1.0888672,2.8637695,1.0888672
	c0.6586914,0,1.2841797-0.0576172,1.8754883-0.1738281s1.2841797-0.3417969,2.0776367-0.6796875v1.7753906
	c-0.6811523,0.2910156-1.3212891,0.4970703-1.9204102,0.6171875S188.6494141,118.3096771,187.8334961,118.3096771z
	 M187.328125,107.1807709c-0.9658203,0-1.7294922,0.3105469-2.2910156,0.9316406s-0.8945312,1.4863281-0.9995117,2.59375h6.277832
	c-0.0151367-1.1523438-0.2807617-2.0283203-0.7973633-2.6269531
	C189.0014648,107.479599,188.2714844,107.1807709,187.328125,107.1807709z"/>
<path d="M211.2490234,118.0850677v-7.9394531c0-1.9472656-0.8349609-2.9199219-2.5043945-2.9199219
	c-1.1455078,0-1.987793,0.3330078-2.5268555,0.9990234s-0.8085938,1.6845703-0.8085938,3.0546875v6.8056641h-2.0102539v-7.9394531
	c0-0.9736328-0.2041016-1.7041016-0.6123047-2.1904297c-0.4077148-0.4863281-1.0458984-0.7294922-1.9145508-0.7294922
	c-1.1381836,0-1.9711914,0.3476562-2.4985352,1.0439453c-0.5283203,0.6962891-0.7919922,1.8378906-0.7919922,3.4248047v6.390625
	h-2.0214844v-12.3310547h1.628418l0.3032227,1.6845703h0.1123047c0.3520508-0.5986328,0.8476562-1.0664062,1.4882812-1.4042969
	c0.6396484-0.3359375,1.3569336-0.5048828,2.1503906-0.5048828c1.9316406,0,3.1894531,0.6884766,3.7734375,2.0664062h0.1123047
	c0.3969727-0.6591797,0.9375-1.1679688,1.6230469-1.5273438c0.6845703-0.359375,1.4614258-0.5390625,2.3300781-0.5390625
	c1.3925781,0,2.4350586,0.359375,3.1279297,1.078125c0.6923828,0.71875,1.0385742,1.8681641,1.0385742,3.4482422v8.0292969
	H211.2490234z"/>
<path d="M224.6806641,118.0850677l-0.3930664-1.7519531h-0.0898438c-0.6137695,0.7714844-1.2260742,1.2929688-1.8364258,1.5664062
	c-0.6098633,0.2734375-1.3793945,0.4101562-2.3076172,0.4101562c-1.2128906,0-2.1635742-0.3183594-2.8525391-0.9550781
	c-0.6889648-0.6357422-1.0332031-1.5341797-1.0332031-2.6953125c0-2.5,1.9726562-3.8105469,5.918457-3.9296875l2.0888672-0.0791016
	v-0.7294922c0-0.9365234-0.2021484-1.6269531-0.6064453-2.0722656s-1.0517578-0.6679688-1.9428711-0.6679688
	c-0.6513672,0-1.2670898,0.0966797-1.8476562,0.2910156c-0.5800781,0.1953125-1.1245117,0.4121094-1.6337891,0.6523438
	l-0.6176758-1.5166016c0.621582-0.3291016,1.2988281-0.5878906,2.0327148-0.7744141
	c0.7338867-0.1875,1.4599609-0.28125,2.1787109-0.28125c1.4897461,0,2.5981445,0.3291016,3.3242188,0.9882812
	s1.0893555,1.7070312,1.0893555,3.1445312v8.4003906H224.6806641z M220.5141602,116.6807709
	c1.1303711,0,2.0195312-0.3046875,2.6674805-0.9150391c0.6474609-0.6103516,0.9711914-1.4765625,0.9711914-2.5996094v-1.1123047
	l-1.8193359,0.0791016c-1.4150391,0.0527344-2.4462891,0.2773438-3.0942383,0.6738281
	c-0.6474609,0.3964844-0.9711914,1.0224609-0.9711914,1.8759766c0,0.6435547,0.1967773,1.1376953,0.5893555,1.4824219
	C219.2509766,116.5088959,219.8027344,116.6807709,220.5141602,116.6807709z"/>
<path d="M234.0917969,116.6592865c0.262207,0,0.5688477-0.0263672,0.9208984-0.0791016s0.6176758-0.1123047,0.7973633-0.1796875
	v1.5498047c-0.1870117,0.0820312-0.4775391,0.1630859-0.8701172,0.2412109
	c-0.3935547,0.0791016-0.7919922,0.1181641-1.1962891,0.1181641c-2.4106445,0-3.6162109-1.2695312-3.6162109-3.8066406v-7.1767578
	h-1.7407227v-0.9658203l1.7631836-0.8085938l0.8085938-2.6279297h1.2016602v2.8300781h3.5600586v1.5722656h-3.5600586v7.1201172
	c0,0.7109375,0.1704102,1.2578125,0.5112305,1.6396484C233.0117188,116.4678802,233.4853516,116.6592865,234.0917969,116.6592865z"
	/>
<path d="M238.1123047,102.4190521c0-0.4492188,0.1142578-0.7753906,0.3427734-0.9775391s0.5107422-0.3037109,0.8476562-0.3037109
	c0.3144531,0,0.5898438,0.1015625,0.8251953,0.3037109c0.2363281,0.2021484,0.3535156,0.5283203,0.3535156,0.9775391
	c0,0.4414062-0.1171875,0.7666016-0.3535156,0.9765625c-0.2353516,0.2099609-0.5107422,0.3144531-0.8251953,0.3144531
	c-0.3369141,0-0.6191406-0.1044922-0.8476562-0.3144531S238.1123047,102.8604584,238.1123047,102.4190521z M240.2910156,118.0850677
	h-2.0214844v-12.3310547h2.0214844V118.0850677z"/>
<path d="M249.140625,118.3096771c-1.7744141,0-3.1552734-0.5449219-4.1435547-1.6337891
	c-0.9882812-1.0898438-1.4824219-2.6523438-1.4824219-4.6884766c0-2.0664062,0.4990234-3.6601562,1.4990234-4.7792969
	c0.9990234-1.1191406,2.4238281-1.6787109,4.2724609-1.6787109c0.5996094,0,1.1923828,0.0615234,1.7802734,0.1855469
	c0.5878906,0.1230469,1.0732422,0.2822266,1.4541016,0.4775391l-0.6171875,1.6835938
	c-1.0410156-0.3886719-1.9277344-0.5839844-2.6621094-0.5839844c-1.2421875,0-2.1591797,0.3916016-2.7509766,1.1738281
	s-0.8876953,1.9492188-0.8876953,3.4980469c0,1.4902344,0.2958984,2.6298828,0.8876953,3.4199219
	s1.4677734,1.1855469,2.6279297,1.1855469c1.0859375,0,2.1523438-0.2402344,3.2011719-0.71875v1.796875
	C251.4658203,118.088974,250.40625,118.3096771,249.140625,118.3096771z"/>
<path d="M263.2695312,114.682724c0,1.1523438-0.4306641,2.0449219-1.2919922,2.6777344s-2.0703125,0.9492188-3.6279297,0.9492188
	c-1.6240234,0-2.9160156-0.2578125-3.8740234-0.7753906v-1.8417969c1.3554688,0.6591797,2.6611328,0.9882812,3.9189453,0.9882812
	c1.0185547,0,1.7597656-0.1640625,2.2246094-0.4941406c0.4638672-0.3291016,0.6953125-0.7705078,0.6953125-1.3242188
	c0-0.4873047-0.2226562-0.8984375-0.6679688-1.2363281c-0.4453125-0.3359375-1.2373047-0.7216797-2.375-1.15625
	c-1.1601562-0.4492188-1.9765625-0.8330078-2.4482422-1.1513672s-0.8183594-0.6757812-1.0390625-1.0722656
	s-0.3310547-0.8798828-0.3310547-1.4482422c0-1.0117188,0.4121094-1.8085938,1.2353516-2.3925781
	s1.9541016-0.8759766,3.3916016-0.8759766c1.4003906,0,2.7099609,0.2773438,3.9306641,0.8310547l-0.6845703,1.6054688
	c-1.2509766-0.5234375-2.3779297-0.7851562-3.3808594-0.7851562c-0.8388672,0-1.4746094,0.1328125-1.9091797,0.3984375
	s-0.6513672,0.6308594-0.6513672,1.0947266c0,0.4492188,0.1875,0.8212891,0.5615234,1.1171875
	s1.2470703,0.7060547,2.6162109,1.2294922c1.0263672,0.3828125,1.7841797,0.7382812,2.2744141,1.0673828
	s0.8515625,0.7001953,1.0839844,1.1123047C263.1533203,113.6114349,263.2695312,114.1055756,263.2695312,114.682724z"/>
<path d="M277.9140625,107.3262787h-3.1113281v10.7587891H272.78125v-10.7587891H270.625v-0.9433594l2.15625-0.6962891v-0.7070312
	c0-1.4980469,0.328125-2.6210938,0.9833984-3.3691406c0.6552734-0.7490234,1.6640625-1.1230469,3.0263672-1.1230469
	c0.7861328,0,1.5839844,0.1376953,2.3925781,0.4150391l-0.5390625,1.5830078
	c-0.6972656-0.2246094-1.3066406-0.3359375-1.8310547-0.3359375c-0.6816406,0-1.1865234,0.2246094-1.5166016,0.6738281
	c-0.3291016,0.4492188-0.4941406,1.1601562-0.4941406,2.1328125v0.7978516h3.1113281V107.3262787z"/>
<path d="M290.8632812,111.8975677c0,2.0136719-0.5087891,3.5859375-1.5273438,4.7167969
	c-1.0185547,1.1298828-2.4257812,1.6953125-4.2226562,1.6953125c-1.1152344,0-2.1035156-0.2597656-2.9648438-0.7802734
	s-1.5234375-1.2675781-1.9882812-2.2412109c-0.4638672-0.9726562-0.6953125-2.1035156-0.6953125-3.390625
	c0-2.0068359,0.5009766-3.5703125,1.5039062-4.6894531c1.0039062-1.1191406,2.4111328-1.6787109,4.2226562-1.6787109
	c1.7373047,0,3.1171875,0.5712891,4.1386719,1.7128906C290.3525391,108.3838959,290.8632812,109.9356537,290.8632812,111.8975677z
	 M281.5527344,111.8975677c0,1.5488281,0.3056641,2.7265625,0.9160156,3.53125s1.5097656,1.2070312,2.7011719,1.2070312
	c1.1748047,0,2.0693359-0.4023438,2.6835938-1.2070312s0.9208984-1.9824219,0.9208984-3.53125
	c0-1.5507812-0.3085938-2.7167969-0.9267578-3.4990234c-0.6171875-0.7822266-1.5214844-1.1728516-2.7119141-1.1728516
	C282.7470703,107.2256927,281.5527344,108.7823334,281.5527344,111.8975677z"/>
<path d="M299.8134766,105.5294037c0.546875,0,1.0292969,0.0449219,1.4482422,0.1347656l-0.2460938,1.8642578
	c-0.4570312-0.1044922-0.9023438-0.1572266-1.3369141-0.1572266c-0.6513672,0-1.2558594,0.1796875-1.8134766,0.5390625
	s-0.9941406,0.8554688-1.3085938,1.4882812s-0.4716797,1.3339844-0.4716797,2.1054688v6.5810547h-2.0214844v-12.3310547h1.6621094
	l0.2246094,2.2568359h0.0898438c0.4716797-0.8154297,1.0292969-1.4335938,1.6728516-1.8525391
	C298.3574219,105.7393646,299.0576172,105.5294037,299.8134766,105.5294037z"/>
<path d="M317.5693359,114.682724c0,1.1523438-0.4306641,2.0449219-1.2919922,2.6777344s-2.0703125,0.9492188-3.6279297,0.9492188
	c-1.6240234,0-2.9160156-0.2578125-3.8740234-0.7753906v-1.8417969c1.3554688,0.6591797,2.6611328,0.9882812,3.9189453,0.9882812
	c1.0185547,0,1.7597656-0.1640625,2.2246094-0.4941406c0.4638672-0.3291016,0.6953125-0.7705078,0.6953125-1.3242188
	c0-0.4873047-0.2226562-0.8984375-0.6679688-1.2363281c-0.4453125-0.3359375-1.2373047-0.7216797-2.375-1.15625
	c-1.1601562-0.4492188-1.9765625-0.8330078-2.4482422-1.1513672s-0.8183594-0.6757812-1.0390625-1.0722656
	s-0.3310547-0.8798828-0.3310547-1.4482422c0-1.0117188,0.4121094-1.8085938,1.2353516-2.3925781
	s1.9541016-0.8759766,3.3916016-0.8759766c1.4003906,0,2.7099609,0.2773438,3.9306641,0.8310547l-0.6845703,1.6054688
	c-1.2509766-0.5234375-2.3779297-0.7851562-3.3808594-0.7851562c-0.8388672,0-1.4746094,0.1328125-1.9091797,0.3984375
	s-0.6513672,0.6308594-0.6513672,1.0947266c0,0.4492188,0.1875,0.8212891,0.5615234,1.1171875
	s1.2470703,0.7060547,2.6162109,1.2294922c1.0263672,0.3828125,1.7841797,0.7382812,2.2744141,1.0673828
	s0.8515625,0.7001953,1.0839844,1.1123047C317.453125,113.6114349,317.5693359,114.1055756,317.5693359,114.682724z"/>
<path d="M324.6777344,116.6592865c0.2617188,0,0.5683594-0.0263672,0.9199219-0.0791016
	c0.3525391-0.0527344,0.6181641-0.1123047,0.7978516-0.1796875v1.5498047
	c-0.1875,0.0820312-0.4775391,0.1630859-0.8701172,0.2412109c-0.3935547,0.0791016-0.7919922,0.1181641-1.1962891,0.1181641
	c-2.4111328,0-3.6162109-1.2695312-3.6162109-3.8066406v-7.1767578h-1.7402344v-0.9658203l1.7626953-0.8085938l0.8085938-2.6279297
	h1.2021484v2.8300781h3.5595703v1.5722656h-3.5595703v7.1201172c0,0.7109375,0.1699219,1.2578125,0.5107422,1.6396484
	S324.0703125,116.6592865,324.6777344,116.6592865z"/>
<path d="M330.7636719,105.7540131v7.9404297c0,0.9951172,0.2226562,1.734375,0.6679688,2.2177734
	c0.4453125,0.4824219,1.1367188,0.7236328,2.0722656,0.7236328c1.265625,0,2.1865234-0.3515625,2.7626953-1.0546875
	c0.5761719-0.7041016,0.8642578-1.8388672,0.8642578-3.4033203v-6.4238281h2.0332031v12.3310547h-1.6621094l-0.2919922-1.6289062
	h-0.1005859c-0.3671875,0.5917969-0.8876953,1.0488281-1.5615234,1.3710938
	c-0.6738281,0.3212891-1.4560547,0.4824219-2.3466797,0.4824219c-1.4824219,0-2.6005859-0.3554688-3.3525391-1.0664062
	c-0.7529297-0.7119141-1.1289062-1.8496094-1.1289062-3.4140625v-8.0751953H330.7636719z"/>
<path d="M347.4404297,118.3096771c-1.6015625,0-2.8447266-0.5537109-3.7285156-1.6621094
	c-0.8828125-1.1083984-1.3242188-2.6767578-1.3242188-4.7050781c0-2.0146484,0.4433594-3.5869141,1.3300781-4.7167969
	c0.8876953-1.1308594,2.1357422-1.6962891,3.7460938-1.6962891c1.6542969,0,2.9267578,0.6064453,3.8183594,1.8193359h0.1455078
	c-0.0224609-0.1494141-0.0527344-0.4511719-0.0898438-0.9042969s-0.0556641-0.7578125-0.0556641-0.9150391v-4.9189453h2.0214844
	v17.4746094h-1.6289062l-0.3027344-1.6503906h-0.0898438C350.4208984,117.6846771,349.140625,118.3096771,347.4404297,118.3096771z
	 M347.7666016,116.635849c1.2275391,0,2.1240234-0.3349609,2.6894531-1.0048828s0.8476562-1.7685547,0.8476562-3.2958984v-0.3710938
	c0-1.7138672-0.2861328-2.9365234-0.8583984-3.6660156c-0.5732422-0.7304688-1.4736328-1.0957031-2.7011719-1.0957031
	c-1.0410156,0-1.8457031,0.4140625-2.4150391,1.2412109c-0.5683594,0.8271484-0.8535156,2.0087891-0.8535156,3.5439453
	c0,1.5273438,0.2832031,2.6835938,0.8486328,3.4697266S346.703125,116.635849,347.7666016,116.635849z"/>
<path d="M362.4677734,118.3096771c-1.8496094,0-3.3007812-0.5595703-4.3525391-1.6787109s-1.5771484-2.6601562-1.5771484-4.6220703
	c0-1.9765625,0.4902344-3.5498047,1.4707031-4.7216797s2.3056641-1.7578125,3.9755859-1.7578125
	c1.5498047,0,2.7851562,0.5,3.7060547,1.4990234c0.9208984,1,1.3808594,2.3535156,1.3808594,4.0605469v1.2236328h-8.4453125
	c0.0380859,1.4003906,0.3935547,2.4628906,1.0673828,3.1894531s1.6279297,1.0888672,2.8642578,1.0888672
	c0.6582031,0,1.2832031-0.0576172,1.875-0.1738281s1.2841797-0.3417969,2.078125-0.6796875v1.7753906
	c-0.6816406,0.2910156-1.3222656,0.4970703-1.9208984,0.6171875S363.2832031,118.3096771,362.4677734,118.3096771z
	 M361.9619141,107.1807709c-0.9658203,0-1.7294922,0.3105469-2.2910156,0.9316406s-0.8945312,1.4863281-1,2.59375h6.2783203
	c-0.0146484-1.1523438-0.2802734-2.0283203-0.7978516-2.6269531
	C363.6357422,107.479599,362.9052734,107.1807709,361.9619141,107.1807709z"/>
<path d="M378.5947266,118.0850677v-7.8837891c0-1.0029297-0.2226562-1.75-0.6679688-2.2402344
	s-1.1435547-0.7353516-2.0947266-0.7353516c-1.265625,0-2.1845703,0.3496094-2.7568359,1.0498047
	c-0.5732422,0.7001953-0.859375,1.8398438-0.859375,3.4189453v6.390625h-2.0214844v-12.3310547h1.6279297l0.3037109,1.6845703
	h0.1123047c0.3818359-0.6064453,0.9169922-1.0761719,1.6054688-1.4091797c0.6894531-0.3330078,1.4492188-0.5,2.2802734-0.5
	c1.5126953,0,2.6357422,0.3671875,3.3691406,1.1005859s1.1005859,1.875,1.1005859,3.4257812v8.0292969H378.5947266z"/>
<path d="M388.5341797,116.6592865c0.2617188,0,0.5683594-0.0263672,0.9199219-0.0791016
	c0.3525391-0.0527344,0.6181641-0.1123047,0.7978516-0.1796875v1.5498047
	c-0.1875,0.0820312-0.4775391,0.1630859-0.8701172,0.2412109c-0.3935547,0.0791016-0.7919922,0.1181641-1.1962891,0.1181641
	c-2.4111328,0-3.6162109-1.2695312-3.6162109-3.8066406v-7.1767578h-1.7402344v-0.9658203l1.7626953-0.8085938l0.8085938-2.6279297
	h1.2021484v2.8300781h3.5595703v1.5722656h-3.5595703v7.1201172c0,0.7109375,0.1699219,1.2578125,0.5107422,1.6396484
	S387.9267578,116.6592865,388.5341797,116.6592865z"/>
<path d="M400.7421875,114.682724c0,1.1523438-0.4306641,2.0449219-1.2919922,2.6777344s-2.0703125,0.9492188-3.6279297,0.9492188
	c-1.6240234,0-2.9160156-0.2578125-3.8740234-0.7753906v-1.8417969c1.3554688,0.6591797,2.6611328,0.9882812,3.9189453,0.9882812
	c1.0185547,0,1.7597656-0.1640625,2.2246094-0.4941406c0.4638672-0.3291016,0.6953125-0.7705078,0.6953125-1.3242188
	c0-0.4873047-0.2226562-0.8984375-0.6679688-1.2363281c-0.4453125-0.3359375-1.2373047-0.7216797-2.375-1.15625
	c-1.1601562-0.4492188-1.9765625-0.8330078-2.4482422-1.1513672s-0.8183594-0.6757812-1.0390625-1.0722656
	s-0.3310547-0.8798828-0.3310547-1.4482422c0-1.0117188,0.4121094-1.8085938,1.2353516-2.3925781
	s1.9541016-0.8759766,3.3916016-0.8759766c1.4003906,0,2.7099609,0.2773438,3.9306641,0.8310547l-0.6845703,1.6054688
	c-1.2509766-0.5234375-2.3779297-0.7851562-3.3808594-0.7851562c-0.8388672,0-1.4746094,0.1328125-1.9091797,0.3984375
	s-0.6513672,0.6308594-0.6513672,1.0947266c0,0.4492188,0.1875,0.8212891,0.5615234,1.1171875
	s1.2470703,0.7060547,2.6162109,1.2294922c1.0263672,0.3828125,1.7841797,0.7382812,2.2744141,1.0673828
	s0.8515625,0.7001953,1.0839844,1.1123047C400.6259766,113.6114349,400.7421875,114.1055756,400.7421875,114.682724z"/>
<path d="M163.9125977,141.3262939h-3.1108398v10.7587891h-2.0214844v-10.7587891h-2.15625v-0.9433594l2.15625-0.6962891v-0.7070312
	c0-1.4980469,0.3276367-2.6210938,0.9829102-3.3691406c0.6547852-0.7490234,1.6635742-1.1230469,3.0263672-1.1230469
	c0.7861328,0,1.5834961,0.1376953,2.3920898,0.4150391l-0.5390625,1.5830078
	c-0.6962891-0.2246094-1.3066406-0.3359375-1.8305664-0.3359375c-0.6811523,0-1.1865234,0.2246094-1.5161133,0.6738281
	s-0.4941406,1.1601562-0.4941406,2.1328125v0.7978516h3.1108398V141.3262939z"/>
<path d="M171.8974609,139.5294189c0.5463867,0,1.0292969,0.0449219,1.4487305,0.1347656l-0.2470703,1.8642578
	c-0.456543-0.1044922-0.9023438-0.1572266-1.3364258-0.1572266c-0.6513672,0-1.2558594,0.1796875-1.8134766,0.5390625
	c-0.5581055,0.359375-0.9941406,0.8554688-1.3085938,1.4882812s-0.4716797,1.3339844-0.4716797,2.1054688v6.5810547h-2.0214844
	v-12.3310547h1.6621094l0.2246094,2.2568359h0.0898438c0.4716797-0.8154297,1.0292969-1.4335938,1.6733398-1.8525391
	S171.1411133,139.5294189,171.8974609,139.5294189z"/>
<path d="M186.1376953,145.897583c0,2.0136719-0.5092773,3.5859375-1.5273438,4.7167969
	c-1.0180664,1.1298828-2.4257812,1.6953125-4.2226562,1.6953125c-1.1157227,0-2.1040039-0.2597656-2.9648438-0.7802734
	s-1.5234375-1.2675781-1.987793-2.2412109c-0.4643555-0.9726562-0.6962891-2.1035156-0.6962891-3.390625
	c0-2.0068359,0.5014648-3.5703125,1.5048828-4.6894531s2.4106445-1.6787109,4.2226562-1.6787109
	c1.7368164,0,3.1166992,0.5712891,4.1381836,1.7128906C185.6269531,142.3839111,186.1376953,143.9356689,186.1376953,145.897583z
	 M176.8276367,145.897583c0,1.5488281,0.3051758,2.7265625,0.9155273,3.53125
	c0.6098633,0.8046875,1.5102539,1.2070312,2.7006836,1.2070312c1.175293,0,2.0703125-0.4023438,2.684082-1.2070312
	s0.9208984-1.9824219,0.9208984-3.53125c0-1.5507812-0.3085938-2.7167969-0.9267578-3.4990234
	c-0.6171875-0.7822266-1.5214844-1.1728516-2.7119141-1.1728516
	C178.0219727,141.225708,176.8276367,142.7823486,176.8276367,145.897583z"/>
<path d="M205.0273438,152.085083v-7.9394531c0-1.9472656-0.8349609-2.9199219-2.5043945-2.9199219
	c-1.1455078,0-1.987793,0.3330078-2.5268555,0.9990234s-0.8085938,1.6845703-0.8085938,3.0546875v6.8056641h-2.0102539v-7.9394531
	c0-0.9736328-0.2041016-1.7041016-0.6123047-2.1904297c-0.4077148-0.4863281-1.0458984-0.7294922-1.9145508-0.7294922
	c-1.1381836,0-1.9711914,0.3476562-2.4985352,1.0439453c-0.5283203,0.6962891-0.7919922,1.8378906-0.7919922,3.4248047v6.390625
	h-2.0214844v-12.3310547h1.628418l0.3032227,1.6845703h0.1123047c0.3520508-0.5986328,0.8476562-1.0664062,1.4882812-1.4042969
	c0.6396484-0.3359375,1.3569336-0.5048828,2.1503906-0.5048828c1.9316406,0,3.1894531,0.6884766,3.7734375,2.0664062h0.1123047
	c0.3969727-0.6591797,0.9375-1.1679688,1.6230469-1.5273438c0.6845703-0.359375,1.4614258-0.5390625,2.3300781-0.5390625
	c1.3925781,0,2.4350586,0.359375,3.1279297,1.078125c0.6923828,0.71875,1.0385742,1.8681641,1.0385742,3.4482422v8.0292969
	H205.0273438z"/>
<path d="M224.2314453,143.4151611h5.6713867v8.0527344c-0.8686523,0.2763672-1.7519531,0.4863281-2.6503906,0.6289062
	c-0.8984375,0.1416016-1.9389648,0.2128906-3.1220703,0.2128906c-2.5004883,0-4.4360352-0.7412109-5.8061523-2.2236328
	s-2.0551758-3.5527344-2.0551758-6.2099609c0-1.7148438,0.3408203-3.2128906,1.0219727-4.4921875
	c0.6811523-1.28125,1.6640625-2.2597656,2.9482422-2.9375c1.2836914-0.6777344,2.7978516-1.015625,4.5424805-1.015625
	c1.7519531,0,3.3842773,0.3212891,4.8964844,0.9648438l-0.7861328,1.796875
	c-1.4448242-0.6289062-2.8564453-0.9433594-4.2338867-0.9433594c-1.9541016,0-3.4814453,0.5917969-4.5820312,1.7753906
	c-1.1005859,1.1826172-1.6508789,2.7998047-1.6508789,4.8515625c0,2.1708984,0.527832,3.8212891,1.5834961,4.9521484
	s2.590332,1.6962891,4.6044922,1.6962891c1.1005859,0,2.1748047-0.1318359,3.2231445-0.3935547v-4.8740234h-3.6049805V143.4151611z"
	/>
<path d="M239.3144531,139.5294189c0.546875,0,1.0292969,0.0449219,1.4472656,0.1347656l-0.2460938,1.8642578
	c-0.4570312-0.1044922-0.9023438-0.1572266-1.3359375-0.1572266c-0.6523438,0-1.2558594,0.1796875-1.8144531,0.5390625
	c-0.5576172,0.359375-0.9936523,0.8554688-1.3081055,1.4882812s-0.4716797,1.3339844-0.4716797,2.1054688v6.5810547h-2.0214844
	v-12.3310547h1.6621094l0.2246094,2.2568359h0.0898438c0.4716797-0.8154297,1.0292969-1.4335938,1.6733398-1.8525391
	C237.8574219,139.7393799,238.5585938,139.5294189,239.3144531,139.5294189z"/>
<path d="M250.4550781,152.085083l-0.3925781-1.7519531h-0.0898438c-0.6142578,0.7714844-1.2265625,1.2929688-1.8369141,1.5664062
	s-1.3789062,0.4101562-2.3076172,0.4101562c-1.2128906,0-2.1640625-0.3183594-2.8525391-0.9550781
	c-0.6884766-0.6357422-1.0332031-1.5341797-1.0332031-2.6953125c0-2.5,1.9726562-3.8105469,5.9189453-3.9296875l2.0878906-0.0791016
	v-0.7294922c0-0.9365234-0.2011719-1.6269531-0.6054688-2.0722656s-1.0527344-0.6679688-1.9433594-0.6679688
	c-0.6513672,0-1.2675781,0.0966797-1.8476562,0.2910156c-0.5800781,0.1953125-1.125,0.4121094-1.6337891,0.6523438
	l-0.6181641-1.5166016c0.6220703-0.3291016,1.2998047-0.5878906,2.0332031-0.7744141
	c0.7333984-0.1875,1.4599609-0.28125,2.1787109-0.28125c1.4902344,0,2.5976562,0.3291016,3.3242188,0.9882812
	s1.0888672,1.7070312,1.0888672,3.1445312v8.4003906H250.4550781z M246.2890625,150.6807861
	c1.1298828,0,2.0195312-0.3046875,2.6669922-0.9150391s0.9716797-1.4765625,0.9716797-2.5996094v-1.1123047l-1.8203125,0.0791016
	c-1.4140625,0.0527344-2.4462891,0.2773438-3.09375,0.6738281s-0.9707031,1.0224609-0.9707031,1.8759766
	c0,0.6435547,0.1962891,1.1376953,0.5888672,1.4824219C245.0253906,150.5089111,245.5771484,150.6807861,246.2890625,150.6807861z"
	/>
<path d="M260.1132812,152.3096924c-1.6015625,0-2.8447266-0.5537109-3.7285156-1.6621094
	c-0.8828125-1.1083984-1.3242188-2.6767578-1.3242188-4.7050781c0-2.0146484,0.4433594-3.5869141,1.3300781-4.7167969
	c0.8876953-1.1308594,2.1357422-1.6962891,3.7460938-1.6962891c1.6542969,0,2.9267578,0.6064453,3.8183594,1.8193359h0.1455078
	c-0.0224609-0.1494141-0.0527344-0.4511719-0.0898438-0.9042969s-0.0556641-0.7578125-0.0556641-0.9150391v-4.9189453h2.0214844
	v17.4746094h-1.6289062l-0.3027344-1.6503906h-0.0898438C263.09375,151.6846924,261.8134766,152.3096924,260.1132812,152.3096924z
	 M260.4394531,150.6358643c1.2275391,0,2.1240234-0.3349609,2.6894531-1.0048828s0.8476562-1.7685547,0.8476562-3.2958984
	v-0.3710938c0-1.7138672-0.2861328-2.9365234-0.8583984-3.6660156c-0.5732422-0.7304688-1.4736328-1.0957031-2.7011719-1.0957031
	c-1.0410156,0-1.8457031,0.4140625-2.4150391,1.2412109c-0.5683594,0.8271484-0.8535156,2.0087891-0.8535156,3.5439453
	c0,1.5273438,0.2832031,2.6835938,0.8486328,3.4697266S259.3759766,150.6358643,260.4394531,150.6358643z"/>
<path d="M275.140625,152.3096924c-1.8496094,0-3.3007812-0.5595703-4.3525391-1.6787109s-1.5771484-2.6601562-1.5771484-4.6220703
	c0-1.9765625,0.4902344-3.5498047,1.4707031-4.7216797s2.3056641-1.7578125,3.9755859-1.7578125
	c1.5498047,0,2.7851562,0.5,3.7060547,1.4990234c0.9208984,1,1.3808594,2.3535156,1.3808594,4.0605469v1.2236328h-8.4453125
	c0.0380859,1.4003906,0.3935547,2.4628906,1.0673828,3.1894531s1.6279297,1.0888672,2.8642578,1.0888672
	c0.6582031,0,1.2832031-0.0576172,1.875-0.1738281s1.2841797-0.3417969,2.078125-0.6796875v1.7753906
	c-0.6816406,0.2910156-1.3222656,0.4970703-1.9208984,0.6171875S275.9560547,152.3096924,275.140625,152.3096924z
	 M274.6347656,141.1807861c-0.9658203,0-1.7294922,0.3105469-2.2910156,0.9316406s-0.8945312,1.4863281-1,2.59375h6.2783203
	c-0.0146484-1.1523438-0.2802734-2.0283203-0.7978516-2.6269531
	C276.3085938,141.4796143,275.578125,141.1807861,274.6347656,141.1807861z"/>
<path d="M290.8964844,148.6827393c0,1.1523438-0.4306641,2.0449219-1.2919922,2.6777344s-2.0703125,0.9492188-3.6279297,0.9492188
	c-1.6240234,0-2.9160156-0.2578125-3.8740234-0.7753906v-1.8417969c1.3554688,0.6591797,2.6611328,0.9882812,3.9189453,0.9882812
	c1.0185547,0,1.7597656-0.1640625,2.2246094-0.4941406c0.4638672-0.3291016,0.6953125-0.7705078,0.6953125-1.3242188
	c0-0.4873047-0.2226562-0.8984375-0.6679688-1.2363281c-0.4453125-0.3359375-1.2373047-0.7216797-2.375-1.15625
	c-1.1601562-0.4492188-1.9765625-0.8330078-2.4482422-1.1513672s-0.8183594-0.6757812-1.0390625-1.0722656
	s-0.3310547-0.8798828-0.3310547-1.4482422c0-1.0117188,0.4121094-1.8085938,1.2353516-2.3925781
	s1.9541016-0.8759766,3.3916016-0.8759766c1.4003906,0,2.7099609,0.2773438,3.9306641,0.8310547l-0.6845703,1.6054688
	c-1.2509766-0.5234375-2.3779297-0.7851562-3.3808594-0.7851562c-0.8388672,0-1.4746094,0.1328125-1.9091797,0.3984375
	s-0.6513672,0.6308594-0.6513672,1.0947266c0,0.4492188,0.1875,0.8212891,0.5615234,1.1171875
	s1.2470703,0.7060547,2.6162109,1.2294922c1.0263672,0.3828125,1.7841797,0.7382812,2.2744141,1.0673828
	s0.8515625,0.7001953,1.0839844,1.1123047C290.7802734,147.6114502,290.8964844,148.1055908,290.8964844,148.6827393z"/>
<path d="M305.8886719,152.085083h-1.9765625v-10.2539062c0-0.3212891,0.0019531-0.6660156,0.0058594-1.0332031
	c0.0039062-0.3662109,0.0117188-0.7314453,0.0224609-1.0947266c0.0117188-0.3632812,0.0224609-0.7109375,0.0341797-1.0439453
	c0.0107422-0.3330078,0.0205078-0.6269531,0.0273438-0.8818359c-0.1269531,0.1347656-0.2392578,0.2509766-0.3359375,0.3486328
	c-0.0976562,0.0966797-0.1972656,0.1904297-0.2978516,0.2802734c-0.1015625,0.0898438-0.2080078,0.1855469-0.3203125,0.2861328
	c-0.1123047,0.1015625-0.2470703,0.21875-0.4042969,0.3535156l-1.6621094,1.359375l-1.078125-1.3808594l4.3017578-3.3583984
	h1.6835938V152.085083z"/>
<path d="M311.6953125,146.2003174v-1.8867188h5.5703125v1.8867188H311.6953125z"/>
<path d="M326.3730469,152.085083h-1.9765625v-10.2539062c0-0.3212891,0.0019531-0.6660156,0.0058594-1.0332031
	c0.0039062-0.3662109,0.0117188-0.7314453,0.0224609-1.0947266c0.0117188-0.3632812,0.0224609-0.7109375,0.0341797-1.0439453
	c0.0107422-0.3330078,0.0205078-0.6269531,0.0273438-0.8818359c-0.1269531,0.1347656-0.2392578,0.2509766-0.3359375,0.3486328
	c-0.0976562,0.0966797-0.1972656,0.1904297-0.2978516,0.2802734c-0.1015625,0.0898438-0.2080078,0.1855469-0.3203125,0.2861328
	c-0.1123047,0.1015625-0.2470703,0.21875-0.4042969,0.3535156l-1.6621094,1.359375l-1.078125-1.3808594l4.3017578-3.3583984
	h1.6835938V152.085083z"/>
<path d="M342.3769531,152.085083h-10.2421875v-1.7519531l3.9306641-4.2792969
	c0.5615234-0.6054688,1.0634766-1.1601562,1.5048828-1.6621094c0.4414062-0.5009766,0.8183594-0.9912109,1.1289062-1.4707031
	s0.5478516-0.9599609,0.7128906-1.4433594c0.1650391-0.4824219,0.2470703-1.0087891,0.2470703-1.578125
	c0-0.4414062-0.0634766-0.8300781-0.1904297-1.1679688c-0.1279297-0.3359375-0.3095703-0.6230469-0.5449219-0.8583984
	c-0.2363281-0.2363281-0.5146484-0.4140625-0.8369141-0.5341797c-0.3222656-0.1191406-0.6816406-0.1796875-1.078125-0.1796875
	c-0.7109375,0-1.3535156,0.1445312-1.9257812,0.4326172c-0.5732422,0.2880859-1.1181641,0.6572266-1.6337891,1.1064453
	l-1.1464844-1.3359375c0.2998047-0.2695312,0.6220703-0.5224609,0.9667969-0.7587891
	c0.34375-0.2353516,0.7148438-0.4394531,1.1113281-0.6123047c0.3964844-0.171875,0.8164062-0.3085938,1.2578125-0.4091797
	c0.4414062-0.1015625,0.90625-0.1513672,1.3925781-0.1513672c0.71875,0,1.3681641,0.1005859,1.9482422,0.3027344
	s1.0732422,0.4921875,1.4775391,0.8701172s0.7167969,0.8388672,0.9375,1.3818359s0.3310547,1.1542969,0.3310547,1.8359375
	c0,0.6367188-0.0996094,1.2431641-0.2978516,1.8193359s-0.4716797,1.1435547-0.8193359,1.7011719
	c-0.3486328,0.5576172-0.7636719,1.1181641-1.2470703,1.6787109c-0.4824219,0.5625-1.0048828,1.1464844-1.5664062,1.7519531
	l-3.15625,3.3583984v0.0898438h7.7382812V152.085083z"/>
</svg>
