
<svg xmlns="http://www.w3.org/2000/svg" version="1.1" xmlns:xlink="http://www.w3.org/1999/xlink" preserveAspectRatio="none" x="0px" y="0px" width="100px" height="100px" viewBox="0 0 100 100">
<defs>
<g id="Layer0_0_FILL">
<path fill="#ACD9E9" stroke="none" d="
M 90 50
Q 90 38.85 84.6 30 79.25 20.85 70.2 15.55 60.9 10 49.95 10 33.45 10 21.75 21.75 10 33.5 10 50 10 66.5 21.75 78.25 33.45 90 49.95 90 66.55 90 78.3 78.3 90 66.55 90 50 Z"/>
</g>

<g id="Layer0_1_MEMBER_0_FILL">
<path fill="#FFFFFF" stroke="none" d="
M 11.3 60.45
Q 13.921484375 70.421484375 21.75 78.25 33.45 90 49.95 90 59.727734375 90 67.8 85.95
L 97.2 32.2 43.25 2.1 11.3 60.45 Z"/>
</g>

<g id="Layer0_1_MEMBER_1_FILL">
<path fill="#E55A6B" stroke="none" d="
M 16.85 72.45
Q 17.375390625 73.188671875 17.9 73.9
L 46.85 89.9
Q 47.708984375 89.9548828125 48.55 89.95
L 16.85 72.45
M 79.75 27.6
Q 79.6 27.5 79.45 27.55 79.3 27.6 79.25 27.75 79.15 27.85 79.2 28 79.25 28.15 79.4 28.25
L 91.25 34.8 61.75 88.3
Q 62.295703125 88.1701171875 62.8 88
L 92.25 34.5 79.75 27.6
M 56.7 14.95
Q 56.65 14.8 56.55 14.75
L 44 7.6 12.75 64.85
Q 12.9236328125 65.284375 13.1 65.7
L 44.3 8.6 56.2 15.4
Q 56.3 15.45 56.45 15.4 56.6 15.35 56.7 15.25 56.75 15.1 56.7 14.95 Z"/>
</g>

<g id="Layer0_1_MEMBER_2_FILL">
<path fill="#E55A6B" stroke="none" d="
M 47.9 18.8
Q 48.55 19.25 49.35 19 50.1 18.75 50.6 18 51 17.3 50.75 16.5 50.55 15.65 49.8 15.3
L 39.6 9.6
Q 38.85 9.2 38.05 9.45 37.25 9.65 36.9 10.4 36.5 11.1 36.7 11.9 36.9 12.75 37.65 13.1
L 47.9 18.8 Z"/>
</g>

<g id="Layer0_1_MEMBER_3_FILL">
<path fill="#376797" stroke="none" d="
M 37.25 83.15
L 37.25 83.15
Q 38.72890625 84.4513671875 40.6 84.45 42.370703125 84.453515625 43.75 83.15
L 43.8 83.15
Q 45.1556640625 81.7857421875 45.15 79.95 45.1548828125 78.0634765625 43.8 76.7 42.3833984375 75.3443359375 40.6 75.35 38.7287109375 75.3466796875 37.25 76.7
L 37.25 76.7
Q 35.9470703125 78.063671875 35.95 79.95 35.9462890625 81.7853515625 37.25 83.15
M 37.55 77
L 37.5 77
Q 38.8712890625 75.7533203125 40.6 75.75 42.21640625 75.7556640625 43.5 77 44.7451171875 78.2365234375 44.75 79.95 44.7443359375 81.6142578125 43.5 82.85
L 43.5 82.85
Q 42.229296875 84.04609375 40.6 84.05 38.87109375 84.0484375 37.5 82.85
L 37.55 82.85
Q 36.3537109375 81.6146484375 36.35 79.95 36.3529296875 78.2361328125 37.55 77 Z"/>
</g>

<g id="Layer0_1_MEMBER_4_FILL">
<path fill="#376797" stroke="none" d="
M 34.95 79.8
Q 34.9521484375 82.10390625 36.5 83.65 38.2501953125 85.401953125 40.5 85.4 42.855859375 85.4029296875 44.4 83.65 45.945703125 82.1037109375 45.95 79.8 45.94765625 77.44453125 44.4 75.85 42.8556640625 74.30078125 40.5 74.3 38.251171875 74.3037109375 36.5 75.85 34.95078125 77.444140625 34.95 79.8
M 35.45 79.8
Q 35.4490234375 77.65546875 36.85 76.2 38.4486328125 74.79609375 40.5 74.8 42.6443359375 74.7990234375 44.05 76.2 45.45234375 77.65546875 45.45 79.8 45.454296875 81.8962890625 44.05 83.3 42.6439453125 84.896875 40.5 84.9 38.449609375 84.8978515625 36.85 83.3 35.44765625 81.8958984375 35.45 79.8 Z"/>
</g>

<g id="Layer0_1_MEMBER_5_FILL">
<path fill="#376797" stroke="none" d="
M 39.9 78.95
L 39.4 78.75
Q 38.7154296875 78.4875 37.9 78.65
L 37.95 78.95
Q 38.4849609375 78.851171875 38.95 78.95 38.8 79.1701171875 38.8 79.65
L 38.8 79.65 39.2 80.55 39.2 80.6 40.15 81.8
Q 40.00546875 82.04765625 40.2 82.35
L 40.2 82.4
Q 40.4052734375 82.600390625 40.55 82.6 40.7630859375 82.641015625 40.9 82.45
L 40.65 82.25
Q 40.636328125 82.309375 40.6 82.3 40.544921875 82.2998046875 40.45 82.2
L 40.45 82.2
Q 40.347265625 82.0310546875 40.45 81.9
L 40.55 81.8 39.45 80.4 39.45 80.4 39.1 79.6
Q 39.1046875 79.0759765625 39.35 79.05
L 39.9 78.95
M 40.2 76.9
L 39.95 77.05
Q 40.44140625 77.792578125 41.45 77.85 41.33984375 78.077734375 41.35 78.2
L 41.35 78.25 41.35 78.25
Q 41.7048828125 78.88984375 42.65 79.35
L 42.4 79.6 42.45 79.7 42.85 80.4 43.1 80.25 42.8 79.7 43.2 79.3 43 79.2
Q 42.0041015625 78.763671875 41.65 78.15 41.6875 78.0677734375 41.9 77.85
L 42.15 77.6 41.8 77.6
Q 40.691015625 77.6041015625 40.2 76.9 Z"/>
</g>

<g id="Layer0_1_MEMBER_6_FILL">
<path fill="#376797" stroke="none" d="
M 48.55 73.45
L 48.55 73.4 47.1 74.8
Q 44.7375 77.03671875 43.3 79.3
L 42.7 80.25 43.6 79.55
Q 45.1439453125 78.3841796875 46.25 77.25 47.5064453125 77.43671875 48.7 77.05 48.4361328125 77.357421875 48.15 77.7
L 47.95 78.05 48.35 78.05
Q 48.809375 78.0478515625 49.2 77.95 49.1998046875 78.0802734375 49.2 78.25
L 49.2 78.35 49.3 78.4
Q 51.112890625 79.205859375 54.5 78.55
L 54.55 78.55
Q 58.0748046875 77.9154296875 59.6 78.35
L 59.7 77.95
Q 58.1302734375 77.4859375 54.45 78.15
L 54.45 78.15
Q 51.30625 78.766796875 49.6 78.1 49.64375 77.851953125 49.85 77.7
L 51.5 76.6 51.45 76.55 49.65 77.35 49.65 77.35
Q 49.6177734375 77.392578125 49.6 77.4 49.2033203125 77.57265625 48.75 77.6 49.3626953125 76.89765625 50.1 76.4
L 51.75 75.3 51.65 75.1 49.9 76.05
Q 48.249609375 77.028515625 46.6 76.9 47.5021484375 75.880859375 48.1 74.95
L 47.75 74.75
Q 47.158984375 75.6771484375 46.25 76.65
L 47.35 75.1 47.4 75.05 48.55 73.45
M 45.75 77.2
Q 45.1306640625 77.7951171875 44.4 78.4 44.9646484375 77.6349609375 45.65 76.85
L 45.45 77.1 45.75 77.2 Z"/>
</g>

<g id="Layer0_1_MEMBER_7_FILL">
<path fill="#E55A6B" stroke="none" d="
M 30.25 8.2
L 31.5 8.5 27.5 6.3 25.3 10.3 26.1 9.4
Q 26.9 8.6 28 8.25 29.15 7.9 30.25 8.2 Z"/>
</g>

<g id="Layer0_1_MEMBER_8_FILL">
<path fill="#E55A6B" stroke="none" d="
M 57.15 26.75
L 56.85 27.85 59.05 23.85 55.05 21.65 55.95 22.5
Q 57.85 24.4 57.15 26.75 Z"/>
</g>

<g id="Layer0_1_MEMBER_9_FILL">
<path fill="#E55A6B" stroke="none" d="
M 13.5 66.6
Q 14.496484375 68.7345703125 15.75 70.7
L 18.05 72 16.8 70.7
Q 14.1 68 15.1 64.7
L 15.45 63.1 13.5 66.6 Z"/>
</g>

<g id="Layer0_1_MEMBER_10_FILL">
<path fill="#FFFFFF" stroke="none" d="
M 47.9 17.65
Q 48.2 17.85 48.6 17.75 48.95 17.6 49.15 17.2 49.5 16.35 48.75 15.9
L 39.55 10.85
Q 39.15 10.65 38.8 10.75 38.4 10.85 38.25 11.2 38.15 11.6 38.25 12 38.35 12.4 38.65 12.5
L 47.9 17.65 Z"/>
</g>

<g id="Layer0_1_MEMBER_11_FILL">
<path fill="#E3E3E3" stroke="none" d="
M 58.6 89.9
L 48 84.1 47.65 84.75 58.25 90.55 58.6 89.9
M 60.1 87.35
L 60.45 86.7 49.75 80.6 49.4 81.25 60.1 87.35
M 64.85 68.95
L 65.2 68.3 31.25 49.35 30.9 50 64.85 68.95
M 32.05 71.6
L 32.4 70.95 21.85 64.95 21.5 65.6 32.05 71.6
M 30.2 74.9
L 30.55 74.25 20 68.4 19.65 69.05 30.2 74.9
M 36.3 40.1
L 35.95 40.75 69.85 59.7 70.2 59.05 36.3 40.1
M 33.9 44.55
L 33.55 45.2 67.35 64.15 67.7 63.5 33.9 44.55 Z"/>
</g>

<g id="Layer0_1_MEMBER_12_FILL">
<path fill="#E55A6B" stroke="none" d="
M 41.65 30.35
Q 41.5439453125 30.303515625 41.4 30.35 41.2509765625 30.391015625 41.15 30.5 41.103125 30.6560546875 41.15 30.8 41.191015625 30.9486328125 41.3 31
L 75.2 49.85
Q 75.3560546875 49.946484375 75.5 49.9 75.6490234375 49.858984375 75.7 49.7 75.7966796875 49.5939453125 75.75 49.45 75.708984375 49.3013671875 75.55 49.2
L 41.65 30.35
M 43.55 26.35
Q 43.591015625 26.4986328125 43.7 26.55
L 77.6 45.35
Q 77.7560546875 45.446484375 77.9 45.4 78.0490234375 45.358984375 78.1 45.2 78.1966796875 45.0939453125 78.15 44.95 78.108984375 44.8013671875 77.95 44.7
L 44.05 25.9
Q 43.9439453125 25.853515625 43.8 25.9 43.6509765625 25.941015625 43.55 26.05 43.503125 26.2060546875 43.55 26.35 Z"/>
</g>

<g id="Layer0_2_MEMBER_0_FILL">
<path fill="#E2B393" stroke="none" d="
M 29.45 24.35
L 27.45 13.55
Q 26.55 11.05 23.95 10.25 21.65 9.65 20.2 10.5 19.5 10.85 19.45 11.9 19.35 13.2 20.2 14.9 21.43359375 17.5294921875 21.65 21.8 21.8078125 24.144140625 21.65 26.95 21.3 32.8 20.15 37.2 19.55 39.1 19.55 41.6
L 10.35 44.45
Q 10 47.15703125 10 50 10 57.268359375 12.25 63.6
L 26.05 56.85
Q 29.95 58.1 37.2 57.1 43.1 56.25 46.8 54.8
L 50.15 54.15 44.4 24.95 39.35 26.35
Q 39.45 26.25 39.6 26.2
L 35.2 27.45
Q 33.15 27.85 31.5 27 29.65 26.15 29.45 24.35 Z"/>
</g>

<g id="Layer0_2_MEMBER_1_FILL">
<path fill="#ECC5AB" stroke="none" d="
M 28.15 18.55
Q 29.1 18.35 29.6 17.45 30.1 16.55 29.85 15.55 29.65 14.5 28.8 13.95 27.95 13.4 27 13.65
L 22.75 14.75
Q 22.45 14.75 22.25 14.95 21.55 15.25 21.25 16.05 20.95 16.85 21.2 17.75 21.5 19.3 23 19.65 23.3 19.35 23.75 19.35
L 26.65 18.95 26.95 18.85 28.15 18.55 Z"/>
</g>

<g id="Layer0_2_MEMBER_2_FILL">
<path fill="#ECC5AB" stroke="none" d="
M 29.6 18.75
L 23.75 19.3
Q 23.25 19.3 23 19.6 21.55 20.4 21.7 22.7 21.8 23.65 22.3 24.45 22.85 25.15 23.6 25.4 23.9 25.15 24.6 25.15
L 30.4 24.85
Q 31.35 24.7 31.95 23.75 32.55 22.75 32.4 21.55 32.25 20.25 31.45 19.45 30.65 18.6 29.6 18.75 Z"/>
</g>

<g id="Layer0_2_MEMBER_3_FILL">
<path fill="#ECC5AB" stroke="none" d="
M 24.6 25
Q 24.1 25 23.6 25.3 22.2 26.1 22.2 28.2 22.3 29.3 22.85 30.1 23.35 30.85 24.2 31.1
L 30.75 30.9
Q 31.85 30.85 32.55 29.9 33.25 29 33.2 27.7 33.15 26.4 32.4 25.55 31.65 24.65 30.6 24.7
L 24.6 25 Z"/>
</g>

<g id="Layer0_2_MEMBER_4_FILL">
<path fill="#ECC5AB" stroke="none" d="
M 32.75 34.45
Q 32.75 33.2 32.05 32.25 31.3 31.35 30.25 31.25
L 24.1 31.25
Q 23.1 31.4 22.45 32.25 21.8 33.15 21.8 34.3 21.8 35.6 22.55 36.5 23.25 37.45 24.3 37.5
L 30.2 37.5
Q 31.25 37.5 32 36.6 32.7 35.7 32.75 34.45 Z"/>
</g>

<g id="Layer0_2_MEMBER_5_FILL">
<path fill="#D9A683" stroke="none" d="
M 31.3 33.65
Q 32.413671875 42.3353515625 26.15 50.05 35.8376953125 45.7478515625 31.3 33.65 Z"/>
</g>

<g id="Layer0_2_MEMBER_6_FILL">
<path fill="#FFDCC4" stroke="none" d="
M 79.9 14.5
Q 79.9 13.75 79.35 13.2 78.8 12.65 78.05 12.65
L 78 12.65
Q 77.25 12.65 76.7 13.2 76.15 13.75 76.15 14.5
L 76.15 14.75 79.9 14.75 79.9 14.5 Z"/>
</g>

<g id="Layer0_2_MEMBER_7_FILL">
<path fill="#FFDCC4" stroke="none" d="
M 78 12.65
Q 77.25 12.65 76.7 13.2 76.15 13.75 76.15 14.5
L 76.15 14.75 79.9 14.75 79.9 14.5
Q 79.9 13.75 79.35 13.2 78.8 12.65 78.05 12.65
L 78 12.65 Z"/>
</g>

<g id="Layer0_2_MEMBER_8_FILL">
<path fill="#FFDCC4" stroke="none" d="
M 78 12.65
Q 77.25 12.65 76.7 13.2 76.15 13.75 76.15 14.5
L 76.15 14.75 79.9 14.75 79.9 14.5
Q 79.9 13.75 79.35 13.2 78.8 12.65 78.05 12.65
L 78 12.65 Z"/>
</g>

<g id="Layer0_2_MEMBER_9_FILL">
<path fill="#FFDCC4" stroke="none" d="
M 78 12.65
Q 77.25 12.65 76.7 13.2 76.15 13.75 76.15 14.5
L 76.15 14.75 79.9 14.75 79.9 14.5
Q 79.9 13.75 79.35 13.2 78.8 12.65 78.05 12.65
L 78 12.65 Z"/>
</g>
</defs>

<g transform="matrix( 1, 0, 0, 1, 0,0) ">
<use xlink:href="#Layer0_0_FILL"/>
</g>

<g transform="matrix( 1, 0, 0, 1, 0,0) ">
<use xlink:href="#Layer0_1_MEMBER_0_FILL"/>
</g>

<g transform="matrix( 1, 0, 0, 1, 0,0) ">
<use xlink:href="#Layer0_1_MEMBER_1_FILL"/>
</g>

<g transform="matrix( 1.43511962890625, 0, 0, 1.43511962890625, 5.2,0.9) ">
<use xlink:href="#Layer0_1_MEMBER_2_FILL"/>
</g>

<g transform="matrix( 0.945648193359375, 0, 0, 0.945648193359375, 3.25,1.1) ">
<use xlink:href="#Layer0_1_MEMBER_3_FILL"/>
</g>

<g transform="matrix( 1, 0, 0, 1, 1,-3.25) ">
<use xlink:href="#Layer0_1_MEMBER_4_FILL"/>
</g>

<g transform="matrix( 1, 0, 0, 1, 1,-3.25) ">
<use xlink:href="#Layer0_1_MEMBER_5_FILL"/>
</g>

<g transform="matrix( 1, 0, 0, 1, 1,-3.25) ">
<use xlink:href="#Layer0_1_MEMBER_6_FILL"/>
</g>

<g transform="matrix( 1.43511962890625, 0, 0, 1.43511962890625, 5.2,0.9) ">
<use xlink:href="#Layer0_1_MEMBER_7_FILL"/>
</g>

<g transform="matrix( 1.43511962890625, 0, 0, 1.43511962890625, 5.2,0.9) ">
<use xlink:href="#Layer0_1_MEMBER_8_FILL"/>
</g>

<g transform="matrix( 1, 0, 0, 1, 0,0) ">
<use xlink:href="#Layer0_1_MEMBER_9_FILL"/>
</g>

<g transform="matrix( 1.43511962890625, 0, 0, 1.43511962890625, 5.2,0.9) ">
<use xlink:href="#Layer0_1_MEMBER_10_FILL"/>
</g>

<g transform="matrix( 1, 0, 0, 1, 1,-3.25) ">
<use xlink:href="#Layer0_1_MEMBER_11_FILL"/>
</g>

<g transform="matrix( 1, 0, 0, 1, 1,-3.25) ">
<use xlink:href="#Layer0_1_MEMBER_12_FILL"/>
</g>

<g transform="matrix( 1, 0, 0, 1, 0,0) ">
<use xlink:href="#Layer0_2_MEMBER_0_FILL"/>
</g>

<g transform="matrix( 1.2693328857421875, 0, 0, 1.2693328857421875, 11.25,7.35) ">
<use xlink:href="#Layer0_2_MEMBER_1_FILL"/>
</g>

<g transform="matrix( 1.2693328857421875, 0, 0, 1.2693328857421875, 11.25,7.35) ">
<use xlink:href="#Layer0_2_MEMBER_2_FILL"/>
</g>

<g transform="matrix( 1.2693328857421875, 0, 0, 1.2693328857421875, 11.25,7.35) ">
<use xlink:href="#Layer0_2_MEMBER_3_FILL"/>
</g>

<g transform="matrix( 1.2693328857421875, 0, 0, 1.2693328857421875, 11.25,7.35) ">
<use xlink:href="#Layer0_2_MEMBER_4_FILL"/>
</g>

<g transform="matrix( 1, 0, 0, 1, 1.25,-2.5) ">
<use xlink:href="#Layer0_2_MEMBER_5_FILL"/>
</g>

<g transform="matrix( -0.27459716796875, -1.0848236083984375, 1.0848236083984375, -0.27459716796875, 46.95,117.7) ">
<use xlink:href="#Layer0_2_MEMBER_6_FILL"/>
</g>

<g transform="matrix( -0.2488250732421875, -1.2249755859375, 1.2249755859375, -0.2488250732421875, 44,134.65) ">
<use xlink:href="#Layer0_2_MEMBER_7_FILL"/>
</g>

<g transform="matrix( -0.16314697265625, -1.196685791015625, 1.196685791015625, -0.16314697265625, 38.25,138.7) ">
<use xlink:href="#Layer0_2_MEMBER_8_FILL"/>
</g>

<g transform="matrix( 0.0096893310546875, -1.20770263671875, 1.20770263671875, 0.0096893310546875, 24.25,145) ">
<use xlink:href="#Layer0_2_MEMBER_9_FILL"/>
</g>
</svg>
