<?xml version="1.0" encoding="UTF-8" standalone="no"?>
<svg width="44px" height="58px" viewBox="0 0 44 58" version="1.1" xmlns="http://www.w3.org/2000/svg" xmlns:xlink="http://www.w3.org/1999/xlink" xmlns:sketch="http://www.bohemiancoding.com/sketch/ns">
    <!-- Generator: Sketch 3.3.3 (12072) - http://www.bohemiancoding.com/sketch -->
    <title>backspace</title>
    <desc>Created with Sketch.</desc>
    <defs></defs>
    <g id="Page-1" stroke="none" stroke-width="1" fill="none" fill-rule="evenodd" sketch:type="MSPage">
        <g id="backspace" sketch:type="MSArtboardGroup">
            <g id="Rectangle-4-Copy-25-+-←-copy-2" sketch:type="MSLayerGroup" transform="translate(7.000000, 4.000000)">
                <path d="M0,10.8759766 L5.63220717,3.21900742 C6.93990304,1.44119871 9.80035233,0 12.0095579,0 L25.9904421,0 C28.2048598,0 30,1.79044819 30,3.99936922 L30,17.0006308 C30,19.2094214 28.1996477,21 25.9904421,21 L12.0095579,21 C9.79514022,21 6.88763428,19.5922979 5.52353673,17.8660285 L0,10.8759766 Z" id="Rectangle-4-Copy-25" fill="#FFFFFF" sketch:type="MSShapeGroup"></path>
                <path d="M13,11 L22,11 C23,11 23.9999996,11 23.9999996,10 C23.9999996,8.99999955 23,9 21.9999997,8.99999978 L12.9999997,8.99999978 L16.9999997,4.99999978 C17.3809521,4.27080453 17.3809521,3.68571974 16.9999997,2.99999978 C16.6190473,2.9056067 16.0476188,2.9056067 15.9999997,2.99999978 L9.99999973,8.99999978 C9.90476163,9.17088959 9.9047619,10.8047317 10,11 L15.9999996,17 C16.0476186,17.0943931 16.6190477,17.0943931 17.0000001,17 C17.3809524,16.3142801 17.3809524,15.7291952 17,15 L13,11 Z" id="←-copy-2" fill="#000000" sketch:type="MSShapeGroup"></path>
            </g>
            <g id="Rectangle-4-Copy-25-+-←-copy-2-Copy" sketch:type="MSLayerGroup" transform="translate(7.000000, 33.000000)">
                <path d="M0,10.8759766 L5.63220717,3.21900742 C6.93990304,1.44119871 9.80035233,0 12.0095579,0 L25.9904421,0 C28.2048598,0 30,1.79044819 30,3.99936922 L30,17.0006308 C30,19.2094214 28.1996477,21 25.9904421,21 L12.0095579,21 C9.79514022,21 6.88763428,19.5922979 5.52353673,17.8660285 L0,10.8759766 Z" id="Rectangle-4-Copy-25" fill="#FFCE00" sketch:type="MSShapeGroup"></path>
                <path d="M13,11 L22,11 C23,11 23.9999996,11 23.9999996,10 C23.9999996,8.99999955 23,9 21.9999997,8.99999978 L12.9999997,8.99999978 L16.9999997,4.99999978 C17.3809521,4.27080453 17.3809521,3.68571974 16.9999997,2.99999978 C16.6190473,2.9056067 16.0476188,2.9056067 15.9999997,2.99999978 L9.99999973,8.99999978 C9.90476163,9.17088959 9.9047619,10.8047317 10,11 L15.9999996,17 C16.0476186,17.0943931 16.6190477,17.0943931 17.0000001,17 C17.3809524,16.3142801 17.3809524,15.7291952 17,15 L13,11 Z" id="←-copy-2" fill="#000000" sketch:type="MSShapeGroup"></path>
            </g>
        </g>
    </g>
</svg>