<?xml version="1.0" encoding="UTF-8" standalone="no"?>
<svg width="44px" height="116px" viewBox="0 0 44 116" version="1.1" xmlns="http://www.w3.org/2000/svg" xmlns:xlink="http://www.w3.org/1999/xlink" xmlns:sketch="http://www.bohemiancoding.com/sketch/ns">
    <!-- Generator: Sketch 3.3.3 (12072) - http://www.bohemiancoding.com/sketch -->
    <title>operations</title>
    <desc>Created with Sketch.</desc>
    <defs></defs>
    <g id="Page-1" stroke="none" stroke-width="1" fill="none" fill-rule="evenodd" sketch:type="MSPage">
        <g id="operations" sketch:type="MSArtboardGroup" fill="#000000">
            <g id="+-copy-+-+-copy-2" sketch:type="MSLayerGroup" transform="translate(16.000000, 8.000000)">
                <path d="M7.00989271,8 L11.0494636,8 C12.3168455,7.88351648 12.3168455,6.03736264 11.0494636,6 L7.00989271,6 L4.99010729,6 L0.950536436,6 C-0.316845479,6.03736264 -0.316845479,7.88351648 0.950536436,8 L4.99010729,8 L7.00989271,8 Z" id="+-copy" sketch:type="MSShapeGroup"></path>
                <path d="M7.00989271,8 L11.0494636,8 C12.3168455,7.88351648 12.3168455,6.03736264 11.0494636,6 L7.00989271,6 L4.99010729,6 L0.950536436,6 C-0.316845479,6.03736264 -0.316845479,7.88351648 0.950536436,8 L4.99010729,8 L7.00989271,8 Z" id="+-copy-2" sketch:type="MSShapeGroup" transform="translate(6.000000, 7.000000) rotate(-270.000000) translate(-6.000000, -7.000000) "></path>
            </g>
            <g id="+-copy-4-+-รท-copy-+-Path" sketch:type="MSLayerGroup" transform="translate(16.000000, 97.000000)">
                <path d="M7.00989271,6 L11.0494636,6 C12.3168455,5.88351648 12.3168455,4.03736264 11.0494636,4 L7.00989271,4 L4.99010729,4 L0.950536436,4 C-0.316845479,4.03736264 -0.316845479,5.88351648 0.950536436,6 L4.99010729,6 L7.00989271,6 Z" id="+-copy-4" sketch:type="MSShapeGroup"></path>
                <path d="M5,0.96969697 C5,1.53535354 5.38383838,2 6.01010101,2 C6.5959596,2 7,1.51515152 7,0.96969697 C7,0.484848485 6.57575758,0 6.01010101,0 C5.38383838,0 5,0.464646465 5,0.96969697 L5,0.96969697 Z" id="รท-copy" sketch:type="MSShapeGroup"></path>
                <path d="M6.01010101,10 C6.5959596,10 7,9.53061224 7,8.95918367 C7,8.46938776 6.57575758,8 6.01010101,8 C5.38383838,8 5,8.46938776 5,8.95918367 C5,9.53061224 5.38383838,10 6.01010101,10 Z" id="Path" sketch:type="MSShapeGroup"></path>
            </g>
            <path d="M18.450311,77.275 C18.700311,77.275 18.900311,77.2 19.075311,77.025 L21.875311,74.25 L24.650311,77.025 C24.975311,77.35 25.575311,77.35 25.900311,77.025 C26.275311,76.65 26.275311,76.15 25.900311,75.775 L23.100311,73 L25.850311,70.25 C26.225311,69.875 26.225311,69.375 25.850311,69 C25.700311,68.825 25.500311,68.725 25.250311,68.725 C25.025311,68.725 24.800311,68.825 24.625311,69 L21.875311,71.775 L19.125311,69 C18.300311,68.175 17.050311,69.425 17.875311,70.25 L20.625311,73 L17.850311,75.775 C17.300311,76.325 17.725311,77.275 18.450311,77.275 L18.450311,77.275 Z" id="ร-copy" sketch:type="MSShapeGroup"></path>
            <path d="M23.0098927,45 L27.0494636,45 C28.3168455,44.8835165 28.3168455,43.0373626 27.0494636,43 L23.0098927,43 L20.9901073,43 L16.9505364,43 C15.6831545,43.0373626 15.6831545,44.8835165 16.9505364,45 L20.9901073,45 L23.0098927,45 Z" id="+-copy-3" sketch:type="MSShapeGroup"></path>
        </g>
    </g>
</svg>