<?xml version="1.0" encoding="UTF-8"?><svg xmlns="http://www.w3.org/2000/svg" viewBox="0 0 300 142" xmlns:xlink="http://www.w3.org/1999/xlink"><title>awards-01</title><defs><ellipse id="a" cx="12.6766917" cy="17.2415962" rx="11.7293233" ry="17.1526984"/></defs><g fill="none" fill-rule="evenodd"><path fill="#000" d="M196.962406 80.2412698h46.1729323v61.6911111H196.962406z" opacity=".15"/><path fill="#846763" d="M195.112782 78.7085714h44.593985v59.0990476h-44.593985z"/><path fill="#000" d="M128.233083 80.2412698h51.9699248v38.9034921H128.233083z" opacity=".15"/><path fill="#FFF" d="M127.759398 79.4749206h46.8270677v34.8914286H127.759398z"/><path fill="#000" d="M66.0902256 78.8212698h37.3082707v49.4520635H66.0902256z" opacity=".15"/><path fill="#FFF" d="M66.5413534 79.52h32.5488722v44.3130159H66.5413534z"/><path fill="#000" d="M1.69172932 81.5260317h52.5789474v37.5285714H1.69172932z" opacity=".15"/><path fill="#F2ECEB" d="M1.69172932 81.435873h49.4210526v32.9304762H1.69172932z"/><path fill="#000" d="M16.6015038 20.8942857h37.3082707v49.4520635H16.6015038z" opacity=".15"/><path fill="#FFF" d="M15.7894737 20.8942857h32.7744361v44.2003175H15.7894737z"/><path fill="#000" d="M299.842105 69.6926984H70.4661654l-5.7518797-9.2412698 225.5864663-2.6146032" opacity=".15"/><path fill="#FBD769" d="M248.30075186 24.7034921c-.11278196 0-.2255639.09015872-.2255639.22539682l-.0451128 32.81777778c0 .1126984.09022557.2253968.22556392.2253968h6.4736842c.13533835 0 .22556392-.0901587.22556392-.2253968l.04511278-32.81777778c0-.1126984-.09022557-.22539682-.2255639-.22539682h-6.47368422z"/><path fill="#FFBB34" d="M248.30075186 27.11523805c-.40601504 0-.7443609.33809524-.7443609.74380952 0 .4057143.33834586.74380953.7443609.74380953h6.4962406c.40601504 0 .7443609-.33809524.7443609-.74380953 0-.40571428-.33834586-.74380952-.7443609-.74380952h-6.4962406zm-.0225564 2.4568254c-.40601503 0-.7443609.33809523-.7443609.74380952 0 .40571428.33834587.74380952.7443609.74380952h6.4962406c.40601505 0 .7443609-.3380953.7443609-.7438096 0-.4057143-.33834585-.7438096-.7443609-.7438096h-6.4962406z"/><path fill="#273343" d="M254.6720371 58.03164774l.42065646-31.9141015 7.21197714.09506032-.42065647 31.9141015z"/><path fill="#C74B3E" d="M241.36038832 57.8391391l.0428392-31.91729324 6.6942857.00898503-.0428392 31.9172932z"/><path fill="#3C4858" d="M255.0326088 30.37559312l.01874697-1.42091053 7.21197714.0951521-.0187469 1.4209105zm-.32933692 25.55338912l.01874455-1.42091053 7.21197714.0951399-.01874455 1.4209106z"/><path fill="#AD2011" d="M248.073744 37.6636747h-6.67669173v-1.0368254h6.67669173zm0 17.8429758h-6.67669173v-1.0368254h6.67669173zm0-20.87343645h-6.67669173v-4.93619048h6.67669173z"/><path fill="#C74B3E" d="M265.5051998 57.91723068l-3.60902255-.01146284.10509362-33.088254 3.60902256.01146284z"/><path fill="#AD2011" d="M265.3762075 53.8227588l-3.45112782-.01094602.00378896-1.19460317 3.45112782.0109461zm.14971588-24.90315284l-3.45112782-.01094603.00378896-1.19460317 3.45112782.01094603zm.0391503 2.84263274l-3.45112783-.01094604.00378896-1.19460317 3.4511279.010946z"/><path fill="#A25F50" d="M290.29856445 60.4487249h-225.586466v-2.61460317h225.586466z"/><path fill="#EBA400" d="M241.33125586 57.83098737h-5.7518797v-34.9590476h5.7518797z"/><path fill="#FBD769" d="M236.9774438 51.232699l2.9774436-1.8933333V25.92063556h-2.9774436"/><path fill="#EBA400" d="M230.55808285 58.0692335l-5.69206014-.8282707 5.0341031-34.5954735 5.6920602.82827072z"/><path fill="#FBD769" d="M227.1879698 50.8946036l3.2030075-1.4425396 3.38345865-23.14825402-2.93233082-.42825396"/><path fill="#C74B3E" d="M272.39097745 48.4152383c.33834587.1126984.4962406.18031745.56390978.2253968.18045112.11269842.2706767.20285715.2706767.20285715s0-.09015873.36090224-.2704762c3.2706767-1.42 5.97744363 1.10444446 4.93984963 4.89111112-.7443609 2.52444445-2.09774436 4.82349203-5.32330827 4.26-2.79699248.63111113-4.7368421-1.71301587-5.32330827-4.26-.72180452-3.2231746.9924812-6.1984127 4.5112782-5.04888888z"/><path fill="#E87870" d="M271.7368421 49.00127003c-3.85714284-.20285714-2.84210525 3.56126984-2.84210525 3.56126984s.2255639-2.38920635 2.84210526-3.56126984z"/><g fill="#80AC4E"><path d="M272.75187998 49.1590476c-.40601504-.6536508-1.66917293-1.75809525-3.85714286-2.4568254 3.45112782-.4057143 3.85714286 1.46507936 3.85714286 2.4568254.06766917.02253967.15789473.06761903.2255639.09015872"/><path d="M272.9323311 49.36190473c-.06766917-.02253968-.15789473-.06761905-.2255639-.09015873l-.06766918-.02253968v-.04507937c-.36090225-.56349206-1.53383458-1.6679365-3.7669173-2.38920635l-.4962406-.15777777.518797-.06761905c1.44360902-.18031746 2.5263158.04507936 3.20300752.6311111.60902256.5409524.7669173 1.3073016.7669173 1.84825398.04511277.02253968.11278195.04507936.15789473.06761904l-.09022556.22539683zm-3.4962406-2.5920635c1.5338346.56349207 2.63909775 1.35238096 3.18045113 2.02857144-.04511278-.45079365-.2255639-.99174604-.67669173-1.39746032-.54135338-.49587302-1.37593985-.69873016-2.5037594-.6311111z"/></g><path fill="#A25F50" d="M272.593985 49.2492068c0 .0225397 0 .0225397 0 0 .315789.2253968.721804.0901587.834586-.2479365.203008-.6311111.180451-1.3073016-.135338-1.915873-.090226-.1803175-.31579-.2253968-.473684-.1126984-.135339.0901587-.180451.2704762-.090226.4057143.293233.6085714.24812 1.3298412-.135338 1.8707936z"/><path fill="#F2F2E8" d="M217.285715 49.8577768h-33.4962406v6.10825396h33.4736842c.1578948 0 .2932331-.1352381.2932331-.29301587v-5.5222223c.0225564-.1577778-.112782-.2930159-.2706767-.2930159z"/><g fill="#DCD2B7"><path d="M183.834587 54.95174546h33.6992481v.35678392H183.834587z"/><path d="M183.834587 54.95174546h33.6992481v.35678392H183.834587zm0-.85650846h33.6992481v.35678392H183.834587z"/><path d="M183.834587 54.095237h33.6992481v.35678392H183.834587zm0-.85650763h33.6992481v.35678392H183.834587z"/><path d="M183.834587 53.23872937h33.6992481v.35678392H183.834587zm0-.87904732h33.6992481v.35678392H183.834587z"/><path d="M183.834587 52.35968205h33.6992481v.35678392H183.834587zm0-.85650865h33.6992481v.35678393H183.834587z"/><path d="M183.834587 51.5031734h33.6992481v.35678393H183.834587zm0-.85650762h33.6992481v.35678392H183.834587z"/><path d="M183.834587 50.64666578h33.6992481v.35678392H183.834587z"/></g><path fill="#273343" d="M182.93233155 47.98698314c-.518797 0-.92481203.4057143-.92481203.924127v.04507935c0 .5184127.40601504.9241269.92481203.9241269H216.248121c.518797 0 .9924812.0225397 1.0827068.067619.0902256.0450793.1578947.6311111.1578947 1.1495238v3.6739682c0 .5184127-.0225564.991746-.0676691 1.059365-.0451128.0901587-.6541354.1352381-1.150376.1352381h-33.33834585c-.518797 0-.92481203.4057143-.92481203.924127v.0450793c0 .5184127.40601504.924127.92481203.924127H218.729324c.518797 0 .9248121-.4057143.9248121-.924127V48.91111c0-.5184127-.4060151-.924127-.9248121-.924127h-35.79699245z"/><path fill="#F2F2E8" d="M178.30827105 38.9936504l31.82706765-.18031745-.0225564-5.31936508-31.82706764.18031746c-.15789474 0-.2706767.11269842-.2706767.2479365l.0225564 4.82349207c-.0225564.1352381.11278196.2479365.2706767.2479365z"/><g fill="#DCD2B7"><path d="M178.0400266 34.35016905l32.03007515-.1786042.00159156.2854227-32.0300751.1786042z"/><path d="M178.0400266 34.35016905l32.03007515-.1786042.00159156.2854227-32.0300751.1786042zm.0000584.76639398l32.03007515-.1786042.00159155.2854227-32.03007514.1786042z"/><path d="M178.040085 35.11656303l32.03007515-.1786042.00159155.2854227-32.03007514.1786042zm-.00003517.74385293l32.0300752-.17863327.0015918.2854227-32.03007518.1786332z"/><path d="M178.04004983 35.86041596l32.0300752-.17863327.0015918.2854227-32.03007518.1786332zm.02260514.7662478l32.03007514-.1786042.0015916.2854227-32.0300751.1786042z"/><path d="M178.06265497 36.62666375l32.03007514-.1786042.0015916.2854227-32.0300751.1786042zm-.00004482.74383275l32.03007514-.1786042.0015915.28542272-32.0300752.1786042z"/><path d="M178.06261015 37.3704965l32.03007514-.1786042.0015915.28542272-32.0300752.1786042zm.0000584.76639382l32.03007514-.1786042.0015915.2854227-32.0300752.1786042z"/><path d="M178.06266855 38.13689032l32.03007514-.1786042.0015915.2854227-32.0300752.1786042z"/></g><path fill="#2FAFB8" d="M210.9248124 40.45872978c.518797 0 .924812-.3831746.924812-.83396826 0-.45079365-.4285714-.81142857-.924812-.81142857l-31.57894736.18031746c-.518797 0-.9924812-.0225396-1.06015038-.0450793-.06766917-.0225397-.15789474-.6085714-.15789474-1.1269841l-.0225564-2.9752381c0-.5184127.0225564-.991746.0676692-1.059365.04511277-.067619.63157893-.1352381 1.15037593-.1352381l31.57894735-.1803174c.518797 0 .924812-.3831746.924812-.8339682s-.4285714-.8114285-.924812-.8114285l-33.9473684.1803175c-.518797 0-.92481204.428254-.92481204.924127l.0451128 6.7619048c0 .5184127.4285714.924127.92481202.924127l33.92481202-.1577778z"/><path fill="#C74B3E" d="M180.27067678 40.39111084h37.3082707v7.7536508h-37.3082707z"/><path fill="#AD2011" d="M214.87218063 47.89682513c0 .47333333-.36090225.83396825-.83458646.83396825-.45112782 0-.83458647-.3831746-.83458647-.83396825v-7.25777778c0-.47333333.36090225-.83396826.83458647-.83396826.4511278 0 .83458646.3831746.83458646.8339682v7.2577778zm-2.7518797 0c0 .47333333-.36090225.83396825-.83458646.83396825-.45112782 0-.83458647-.3831746-.83458647-.83396825v-7.25777778c0-.47333333.36090226-.83396826.83458647-.83396826.45112782 0 .83458646.3831746.83458646.8339682v7.2577778z"/><path fill="#EF9316" d="M182.9548874 23.98222173h35.7518797v8.06920635h-35.7518797z"/><path fill="#FFC700" d="M186.11278213 23.98222173h1.60150376v8.06920635h-1.6015038zm28.64661657 0h1.60150376v8.06920635h-1.60150376z"/><path fill="#EF9316" d="M188.864662 40.8419043l-1.962406-.8114286-1.9398496.8114286v-5.0488889h3.9022556"/><path fill="#3C4858" d="M130.92908077 31.37735025l7.2173233-.09506415.0187019 1.419858-7.2173233.09506415z"/><path fill="#AD2011" d="M145.1278192 38.9711118h6.67669173v1.0368254h-6.67669173zm0-6.94222226h6.67669173v4.93619048h-6.67669173z"/><path fill="#FFBB34" d="M126.7894734 45.41746083c0 .1352381.09022555.22539682.2255639.22539682l32.8421053.04507937c.1127819 0 .2255639-.09015873.2255639-.22539683v-6.4688889c0-.1352381-.0902256-.2253969-.2255639-.2253969l-32.8421053-.0450794c-.11278195 0-.2255639.0901587-.2255639.2253968v6.4688889z"/><path fill="#FFD95C" d="M129.20300713 45.4400005c0 .4057143.33834586.74380953.7443609.74380953s.7443609-.33809524.7443609-.74380952V38.948572c0-.4057143-.33834586-.74380953-.7443609-.74380953s-.7443609.33809525-.7443609.74380954v6.4914286zm2.43609022 0c0 .4057143.33834587.74380953.7443609.74380953.40601504 0 .7443609-.33809524.7443609-.74380952V38.948572c0-.4057143-.33834586-.74380953-.7443609-.74380953-.40601503 0-.7443609.33809525-.7443609.74380954v6.4914286z"/><path fill="#C74B3E" d="M129.45175112 52.33650944l.00899215-6.69924813 31.89365077.0428097-.00899215 6.6992482z"/><path fill="#3C4858" d="M125.06990754 38.82820853l.01217912-7.21804512 31.8936508.0538147-.01217912 7.2180451z"/><path fill="#F2F2F2" d="M153.4772885 38.87336696l.01228508-7.21804512 1.42.00241683-.01228506 7.21804512zm-2.37475195.0254843l.01213893-7.2180451 1.42.00238807-.01213893 7.2180451z"/><path fill="#AD2011" d="M157.606375 45.6308754v6.42857143h-1.0368254V45.6308754z"/><path fill="#C74B3E" d="M159.98912916 28.22149762l-.01143398 3.60902255-33.08825395-.10482912.011434-3.60902255z"/><path fill="#AD2011" d="M155.92161887 28.36958756l-.01094603 3.45112782-1.19460317-.00378896.01094603-3.45112782zM130.9912066 28.20293l-.01094603 3.45112783-1.19460318-.00378896.010946-3.45112782zm2.8577003-.03211108l-.01094602 3.45112782-1.19460318-.00378896.01094604-3.45112782z"/><path fill="#3C4858" d="M159.93723 52.0947856v5.7518797h-34.9590476v-5.7518797z"/><path fill="#EFF5E7" d="M153.3157892 56.4393654l-1.8947369-2.9526984h-23.4135338v2.9526984"/><path fill="#EBA400" d="M159.35789556 23.25467786l5.69206015-.8282707 5.0341031 34.59547347-5.6920601.82827072z"/><path fill="#FBD769" d="M167.7518794 50.6692066l-3.20300752-1.4425396-3.36090226-23.1707937 2.93233083-.42825397"/><path fill="#FFBB34" d="M91.5789472 25.1768253l-1.4661654-.1577778C80.00751867 23.9371427 72.38345852 14.8085713 72.38345852 3.80920622c0-.40571428.0225564-.81142857.04511278-1.21714285l.06766917-1.23968254H91.5789472V25.1768253zM75.02255626 3.966984c.06766918 9.0384127 5.93233083 16.5892063 13.89473684 18.1895238V3.966984H75.02255626zM96.7669172 25.1768253V1.32984114h19.0827067l.0676692 1.26222223c.0225564.40571428.0451128.81142857.0451128 1.21714285 0 10.99936508-7.6240602 20.12793648-17.7293233 21.20984128l-1.4661654.1577778zM99.4060149 3.966984v18.1895238c7.962406-1.6003175 13.8270677-9.1511111 13.8947369-18.1895238H99.4060149z"/><path fill="#FFBB34" d="M87.9924811 37.7314286h12.3383459v4.19238095H87.9924811zM81.36090213 0c-.69924812 2.27650794-1.08270677 4.68825397-1.08270677 7.19015873 0 9.78222227 5.70676694 18.21206347 13.89473684 21.99873017 8.1879699-3.8092064 13.8947368-12.2165079 13.8947368-21.99873017 0-2.50190476-.3834586-4.9136508-1.0827067-7.19015873H81.36090213z"/><path fill="#FFD95C" d="M84.3609021.49587302h3.9699248c-.8571428 2.77238095-1.330827 5.74761904-1.330827 8.81301587 0 6.2209524 1.9172932 12.0136508 5.2105263 16.7695238-5.4135338-4.3501587-8.9097744-11.0219048-8.9097744-18.5050794-.0225564-2.4793651.3609022-4.8460318 1.0601503-7.0774603z"/><path fill="#FFBB34" d="M92.1879698 24.1174603h3.9699248v16.5215873h-3.9699248z"/><path fill="#FFD95C" d="M92.9323307 29.2339683h1.2406015v8.42984127h-1.2406015z"/><path fill="#FFBB34" d="M104.9548871 42.0365079v-1.3298412c0-.8790477-.6090226-1.6003175-1.3308271-1.6003175H84.699248c-.7218045 0-1.3308271.7212698-1.3308271 1.6003175v1.3298412h21.5864662z"/><path fill="#FFD95C" d="M88.6691728 42.3746032v-1.3298413c0-.6987302.3834587-1.2847619.9022556-1.5101587h-4.0827067c-.7218045 0-1.3308271.7212698-1.3308271 1.6003174v1.3298413l4.5112782-.0901587z"/><path fill="#4B5059" d="M80.661654 41.8787302h27v13.2984127h-27z"/><path fill="#35393F" d="M83.8421051 45.0342857h20.6616541v6.9647619H83.8421051zm-4.24060147 9.5342857h29.1428571v3.2231746h-29.1428571z"/><path fill="#6B382F" d="M240.857143 138.979683h-47.030075V77.8069841h47.030075v61.1726989zm-45-2.028572h42.969925V79.8355556h-42.969925v57.1155554z"/><path fill="#4F3A21" d="M176.278195 116.349841h-50.345864V77.8069841h50.345864v38.5428569zm-46.962406-3.380952h43.578948V81.1879365h-43.578948v31.7809525z"/><path fill="#D1A119" d="M100.849624 125.478413H64.6240602V77.8069841h36.2255638v47.6714289zm-32.8421052-3.380953h29.4586466V81.1879365H68.0075188V122.09746z"/><path fill="#633E22" d="M50.5263158 66.8752381H13.9849624V19.2038095h36.5413534v47.6714286zm-33.1578947-3.3809524h29.774436V22.5847619h-29.774436v40.9095238z"/><path fill="#896F24" d="M52.7819549 116.349841H0V79.8355556h52.7819549v36.5142854zm-49.39849625-3.380952H49.3984962V83.2165079H3.38345865v29.7523811z"/><ellipse cx="39.2030075" cy="55.6053968" fill="#C74B3E" rx="3.94736842" ry="3.94444444"/><ellipse cx="90.2932331" cy="115.110159" fill="#C74B3E" rx="3.94736842" ry="3.94444444"/><g transform="translate(205.49 91.152)"><mask id="b" fill="#fff"><use xlink:href="#a"/></mask><use fill="#FFF" xlink:href="#a"/><g transform="translate(2.256 6.896)" mask="url(#b)"><path fill="#DE5663" d="M13.9172932 25.26698433c1.4661654-.56349206 2.27819548 0 2.34586466.29301588.20300752.924127 1.0150376 1.9384127 3.33834586 2.5469842.29323308.0676191 1.37593985.2704762 1.35338346.5634921-.0225564.4057143-1.42105263.4733334-1.62406015.4733334-.94736842-.0225397-2.93233083-.3606349-5.2556391-1.1720635-1.2631579-.4282539-2.0300752-1.7806349-.518797-2.5469841.11278196-.067619.22556392-.1126984.36090227-.1577777z"/><path fill="#BD4858" d="M19.33082703 29.3015875c-1.03759398-.02253967-3.06766917-.40571428-5.32330827-1.17206348-.83458647-.29301588-1.42105263-.9015873-1.4661654-1.5552381-.0225564-.29301587.06766916-.87904762.92481202-1.3073016.11278195-.06761903.2481203-.1126984.36090225-.15777776 1.17293233-.45079366 1.89473684-.18031747 2.16541354-.04507937.2255639.1126984.38345864.2930158.42857142.4507936.2481203 1.1044444 1.330827 1.915873 3.2255639 2.411746.0451128 0 .1127819.0225397.1804511.0450793.7218045.1577778 1.330827.3380952 1.3082707.6987301-.0676692.6085714-1.6240602.6311111-1.8045113.6311111zm-4.2631579-4.1022222c-.29323308 0-.65413533.04507935-1.10526315.2253968-.11278196.04507938-.2255639.09015874-.33834587.1577778-.5187969.27047618-.7669172.60857142-.7443609.99174602.0451128.49587302.5413534 1.0142857 1.2406015 1.23968254 2.2330828.7663492 4.2180452 1.12698413 5.2105264 1.1495238.631579.0225397 1.3759399-.15777777 1.443609-.29301586-.0451128-.06761905-.2481203-.18031746-1.037594-.36063492-.0676692-.0225397-.1353383-.0225397-.1804511-.04507937-2.0300752-.5409523-3.1804511-1.4425396-3.4736842-2.6822222 0-.0225397-.0676692-.1352381-.2481203-.2253968-.1127819-.067619-.3609022-.1577777-.7669173-.1577777z"/><path fill="#E58E9D" d="M13.62405975 26.1009526s2.68421053 2.0511111 5.34586466 2.65968253c.4736843.1126984.744361.2479365.225564.2704762-1.3082706.02253967-7.037594-1.32984128-7.4661654-2.38920636-.3834586-1.0368254 1.1729323-.67619048 1.8947369-.54095238z"/><path fill="#382556" d="M16.2406015 7.16761905l1.1503759-.36063492 2.0526316 3.89936507c.1578948.2930159.0451128.6761905-.2255639.8565079l-2.9548872 1.8257143.518797.8114286c.2255639.3380952.1127819.7888889-.2255639 1.0142857l-1.2406015.8114286.924812-8.85809525z"/><path fill="#DE5663" d="M1.1278199 20.6012694s.11278196-3.13301586 3.63157896-4.1247619c0 0 2.09774436-.45079364 2.43609022 1.19460318 0 0 .31578948 1.48761905-1.66917293 1.46507937-1.4661654 0-3.0225564.6311111-3.31578947 1.60031746 0 0-.06766918.428254-.63157895.4507937-.518797 0-.45112782-.5860317-.45112782-.5860317z"/><path fill="#BD4858" d="M1.53383495 21.34507894c-.15789474 0-.31578948-.06761905-.40601504-.15777778-.2030075-.20285714-.1804511-.54095238-.1804511-.60857143 0-.15777778.2255639-3.29079365 3.7443609-4.26.0451128 0 1.1729324-.2479365 1.9398497.2704762.3609023.2479365.5864662.58603174.6766918 1.05936507 0 .02253968.1353384.6311111-.2706767 1.10444444-.3157894.3831746-.8345864.56349207-1.5563909.56349207-1.4661654 0-2.887218.6536508-3.1578947 1.4650794 0 .2028572-.2030075.5634921-.7894737.5634921zm-.2481203-.74380953c0 .0676191 0 .2479366.09022556.3380953.0225564.0225397.0676692.0676191.1578948.0676191.4285715 0 .4736842-.2930158.4736842-.2930158v-.0225397c.3383459-1.0819047 2.0526316-1.7130158 3.4962406-1.7130158.631579 0 1.0601504-.1352381 1.3082707-.4282539.2932331-.3606349.2030075-.8114285.2030075-.8339682-.0676691-.3606349-.2481203-.6536508-.5413534-.8339682-.6315789-.428254-1.6015037-.2479365-1.6917293-.2253968-1.3984962.3831746-2.4135338 1.1720635-3.0225564 2.344127-.4285714.8339683-.4736842 1.6003175-.4736842 1.6003175z"/><path fill="#DE5663" d="M2.18796992 20.2180956s1.06015038.7663492.90225564 1.84825397l-.94736842-.3831746s-.0225564.58603174-.56390977.99174603c0 0-.45112782-.45079365-.40601504-1.08190476l-.9699248.42825397s-.09022557-1.2622222 1.2406015-1.8707936"/><path fill="#BD4858" d="M1.57894737 22.85523846c-.04511278 0-.09022557-.02253968-.11278196-.04507936-.0225563-.0225397-.3834586-.3831746-.4511278-.94666667l-.7218045.31555555c-.0451128.0225397-.1127819.0225397-.1578947 0-.0451128-.02253968-.0676692-.09015873-.0902255-.1352381 0-.02253967-.0225564-.3606349.1353384-.7663492.1353384-.3831746.4736842-.92412698 1.1954887-1.26222222.0902256-.04507936.1804512 0 .2255639.09015873.0451128.0901587 0 .1803174-.0902255.2253968-.8345865.3831746-1.0601504 1.0593651-1.1278196 1.4425397l.6992481-.3155556c.0451128-.0225397.112782-.0225397.1578948.0225397.0451128.0450793.0676692.0901587.0676692.1577777-.0225564.3606349.1353384.6536508.2481203.8114285.3383459-.3380953.3609023-.7438095.3609023-.7663492 0-.0450794.0225564-.1126984.0902256-.1352381.0451128-.0225397.112782-.0450794.1578948-.0225397l.7443609.2930158c0-.856508-.8345865-1.4425397-.8345865-1.4650794-.0676692-.0450794-.0902256-.1577778-.0451128-.2479365.0451128-.0676191.1578947-.0901588.2481203-.0450794.0451128.0450793 1.150376.8339682.9699248 2.0060317 0 .0450794-.0451128.0901587-.0902255.1126984-.0451128.0225397-.0902256.0225397-.1578947 0l-.7669173-.2930159c-.0676692.2253968-.2030075.6085714-.5864662.9015873 0 .0450793-.0451128.067619-.0676692.067619z"/><path fill="#DE5663" d="M4.5563907 22.1114285c-.65413535-3.7190477 2.16541353-11.76571433 2.36842104-13.05047623.15789474-1.05936508-.15789473-1.78063492.94736843-2.16380952 2.84210526-.94666667 7.80451123.7663492 7.80451123.7663492s.9022557.33809524.6992482 1.57777778c-1.2180451 7.79873017-1.150376 6.8520635-1.1278196 12.41936507 0 .2479365.0225564.4733333.0225564.6761905 0 0 .112782 2.6146032-1.33082706 3.8542857-1.93984963 1.6679365-5.66165414.428254-6.40601504.1126984-1.60150376-.8790476-2.54887218-1.7806349-2.9774436-4.1923809z"/><path fill="#BD4858" d="M11.21052603 27.2279364c-1.87218045 0-3.69924812-.7438095-3.7218045-.7438095h-.0225564c-1.66917293-.924127-2.63909775-1.8933334-3.06766917-4.3501588-.4962406-2.8850793 1.03759398-8.3171428 1.87218045-11.22476186.2481203-.87904762.4511279-1.57777778.4962406-1.87079365.0451128-.2479366.0451128-.4958731.0676692-.7212699.0225564-.6761905.0676692-1.2622223.9924812-1.5777778 1.1954888-.4057143 2.9097745-.4057143 5.0526316.0225397 1.6015038.3155555 2.8421053.7438095 2.8646617.7438095.0225564 0 .2706767.1126984.4962406.3831746.2030075.2479365.4285714.6987301.3157895 1.3974603-.0902256.6311111-.1804511 1.2171428-.2706767 1.7355555-.8796992 5.5673015-.8796992 5.5673015-.8571429 9.7822222v.8565079c0 .2253968 0 .4507937.0225564.6761905v.0225397c0 .2253968.0676692 2.7273016-1.3984962 3.9895238-.7894737.6761905-1.8270676.8790476-2.8421052.8790476zm-3.58646617-1.0593651c1.08270677.4507937 4.4887218 1.3974603 6.20300752-.0901587 1.37593982-1.1720635 1.28571432-3.6965079 1.28571432-3.7190476-.0225564-.2253969-.0225564-.4507937-.0225564-.6987302v-.8565079c0-4.2374603 0-4.2374603.8571428-9.8273016.0902256-.5184127.1804512-1.10444446.2706767-1.73555557.1804512-1.10444444-.5864661-1.39746032-.5864661-1.39746032-.0451128-.0225396-4.93984966-1.6679365-7.69172936-.7438095-.69924812.2479365-.7218045.6085715-.7669173 1.2622222 0 .2253969-.0225564.4733334-.06766917.7438096-.04511278.3155556-.2481203.9692064-.4962406 1.8933334-.83458647 2.8850794-2.36842105 8.2720636-1.87218045 11.0895239.40601504 2.3215873 1.2857143 3.2006349 2.88721804 4.0796825z"/><path fill="#DE5663" d="M5.86466137 27.20539656c.13533834-.87904762.31578947-1.6904762 1.28571428-1.53269842.90225564.15777778 1.15037594 1.1495238 1.15037594 2.02857143.0225563.87904762-.0225564 4.30507937-.0225564 4.30507937h-3.518797c-.2030075 0-.2932331-.2479365-.1353384-.3831746l.8571428-.6536508s.2255639-2.68222222.3834586-3.76412698z"/><path fill="#BD4858" d="M4.7593982 32.1866664c-.15789473 0-.31578946-.11269842-.36090225-.2704762-.04511278-.15777777 0-.31555555.13533835-.42825396l.78947368-.60857143c.0451128-.4507936.2481203-2.7273015.38345865-3.6965079.09022557-.6085714.20300752-1.2171428.63157895-1.5101587.2255639-.1577777.518797-.2028571.85714286-.1577777.83458646.1577778 1.2631579.9015873 1.30827067 2.1863492.0225564.856508-.0225563 4.2825397-.0225563 4.3276191 0 .0901588-.0676691.1577778-.1804511.1577778H4.7593982zm1.2857143-4.95873016c-.15789474 1.05936508-.38345865 3.7415873-.38345865 3.76412698 0 .04507937-.0225564.09015873-.06766917.1126984l-.85714286.6536508c-.0225564.0225397-.0225564.0225397-.0225564.04507937s.0225564.0225396.0451128.0225396h3.36090225c0-.6987302.04511278-3.3809524.0225564-4.1473016-.0225564-1.1044445-.36090227-1.7355556-1.0150376-1.848254-.2481203-.0450794-.45112783-.0225397-.60902256.0901587-.293233.2479365-.406015.7888889-.4736842 1.3073016z"/><path fill="#E58E9D" d="M12.1578947 24.5006349c-2.1654135-3.4260317-.6992481-8.4974603-.6992481-8.4974603-.0676692-.991746.631579-2.2765079-1.2857143-2.411746-1.21804508-.0901588-1.60150373-.1577778-2.32330824-.2028572-1.55639098-.1126984-2.0300752-.5184127-2.5037594 1.8933334-.06766917.495873-.11278195.3155555-.18045113.7663492-.36090225 2.2539682-.7443609 4.1247619-.54135338 6.0631746 0 0 .33834587 3.0428571 3.60902256 3.403492 3.2932331.360635 3.924812-1.0142857 3.924812-1.0142857z"/><path fill="#DE5663" d="M14.9999995 20.28571473c1.44360903.09015873 3.15789474.9015873 3.40601504 1.89333333 0 0 .0225564.42825397.60902256.49587302.4736842.04507936.4736842-.54095238.4736842-.54095238s.11278196-3.13301587-3.31578947-4.3726984c0 0-1.4887218-.42825398-2.2105263.42825395"/><path fill="#BD4858" d="M19.0375935 22.85523854h-.06766918c-.56390978-.04507937-.7443609-.42825397-.7443609-.6311111-.18045113-.74380954-1.55639098-1.62285715-3.2481203-1.73555557-.09022557 0-.15789474-.09015873-.15789474-.18031746 0-.0901587.09022556-.1577777.18045112-.1577777 1.5112782.0901588 3.2932331.9466667 3.56390978 2.0060318v.0225397c0 .0225397.04511278.2930159.45112782.3380953.09022556 0 .13533834-.0225396.18045113-.0450793.09022556-.0901587.11278195-.2704762.11278195-.3380952 0-.1352381.06766917-3.0203174-3.18045113-4.2149206-.09022556-.0225397-1.39849624-.3606349-2.0300752.3831746-.06766916.0676191-.15789472.0901588-.2481203.0225397-.06766916-.067619-.09022555-.1577778-.02255638-.2479365.7894737-.9466666 2.32330827-.495873 2.39097745-.4733333 3.45112782 1.2396826 3.42857143 4.3726985 3.42857143 4.5304762 0 .0450794 0 .3831746-.2255639.5860318-.11278197.0676191-.22556392.1352381-.38345866.1352381z"/><path fill="#DE5663" d="M18.4285713 21.6606345s-1.12781956.67619048-1.037594 1.78063493l.9924812-.31555556s0 .58603175.4736842 1.0368254c0 0 .47368422-.42825397.47368422-1.0368254l.92481203.49587302s.18045113-1.2396826-1.10526315-1.9609524"/><path fill="#BD4858" d="M18.8571427 24.34285673c-.04511277 0-.09022555-.02253968-.11278194-.04507936-.33834587-.31555556-.4736842-.69873016-.518797-.924127l-.78947368.24793652c-.04511278.0225396-.11278195 0-.15789473-.0225397-.0451128-.0225397-.06766918-.0676191-.06766918-.1352381-.09022556-1.1720635 1.06015038-1.8933334 1.10526316-1.9384127.09022556-.0450794.18045113-.0225397.2255639.067619.0451128.0901587.0225564.1803174-.06766916.2253968 0 0-.87969925.5409523-.94736842 1.3974603l.7669173-.2479365c.04511277-.0225397.11278194 0 .15789473.0225397.04511278.0225397.06766917.0901587.06766917.1352381 0 .0225397 0 .4057143.31578947.7888889.13533835-.1577778.31578948-.428254.31578948-.7888889 0-.0676191.0225564-.1126984.09022556-.1577778.04511278-.0225397.11278196-.0225397.15789474 0l.67669173.3606349c-.0225564-.3831746-.18045113-1.0593651-1.0150376-1.5101588-.09022556-.0450794-.11278195-.1577778-.06766917-.2253969.04511278-.0901588.15789474-.1126984.2255639-.0676191.69924813.3831746.9924812.9466667 1.10526317 1.352381.11278195.4282539.06766917.7663492.06766917.7888889 0 .0450793-.04511278.1126984-.09022556.1352381-.0451128.0225396-.11278196.0225396-.15789474 0l-.69924812-.3831746c-.11278196.5409523-.4962406.8790476-.518797.9015873.0225564 0-.02255638.0225396-.06766917.0225396z"/><path fill="#DE5663" d="M11.12030054 27.20539656c.13533835-.87904762.31578948-1.6904762 1.2857143-1.53269842.90225563.15777778 1.15037593 1.1495238 1.15037593 2.02857143.0225564.87904762-.0225564 4.30507937-.0225564 4.30507937h-3.518797c-.2030075 0-.29323307-.2479365-.13533833-.3831746l.85714285-.6536508s.2255639-2.68222222.3834586-3.76412698z"/><path fill="#BD4858" d="M10.01503738 32.1866664c-.15789473 0-.31578947-.11269842-.36090225-.2704762-.04511278-.15777777 0-.31555555.13533834-.42825396l.7894737-.60857143c.04511277-.4507936.2481203-2.7273015.38345863-3.6965079.09022557-.6085714.20300752-1.2171428.63157895-1.5101587.2255639-.1577777.518797-.2028571.85714286-.1577777.8345865.1577778 1.2631579.9015873 1.3082707 2.1863492.0225564.856508-.0225564 4.2825397-.0225564 4.3276191 0 .0901588-.0676691.1577778-.1804511.1577778h-3.5413534zm1.2857143-4.95873016c-.15789475 1.05936508-.38345866 3.7415873-.38345866 3.76412698 0 .04507937-.0225564.09015873-.06766917.1126984l-.85714286.6536508c-.0225564.0225397-.0225564.0225397-.0225564.04507937s.0225564.0225396.0451127.0225396h3.3609022c0-.6987302.0451128-3.3809524.0225564-4.1473016-.0225564-.7663492-.2030076-1.7130159-1.0150376-1.848254-.2481203-.0450794-.4511278-.0225397-.6090226.0901587-.3157895.2479365-.4060151.7888889-.4736842 1.3073016z"/><path fill="#382556" d="M11.2556391.31555556c-.1578947.06761904-.3157895.22539682-.2932331.3831746.0225564.15777778.2030075.33809524.3609023.33809524.1578947 0 .81203-.0225397.9924812.04507936.1804511.06761905.4962406.06761905.5864661-.1352381.0902256-.20285714-.0451127-.42825396-.293233-.60857142-.4060151-.2704762-.9699249-.20285715-1.3533835-.02253968z"/><path fill="#DD5562" d="M12.85714302 14.33523787s-.85714286 4.3952381-3.11278196 4.1473016c-2.93233083-.31555557-1.2631579-5.86031747-1.2631579-5.86031747l4.37593986 1.71301587z"/><path fill="#382556" d="M12.31578963 14.53809502s-.63157895 3.78666666-2.481203 3.51619047c-2.36842106-.360635-1.17293233-5.0939683-1.17293233-5.0939683l3.6541353 1.5777777zM17.2781955 1.71301587c-.3157895.0225397-.5413534.15777778-.5639098.3831746-.0225564.20285715.2481203.3831746.4511278.4057143.2030076.02253967.7443609.3606349.8796993.45079364.1353383.0901588.3834586.0225397.4736842-.1126984.0902256-.1352381.0225564-.3380952-.0676692-.495873-.2481203-.3155555-.6992481-.6536508-1.1729323-.6311111z"/><path fill="#FFF" d="M11.3684211 15.2819048l-4.21804516.4057142.0225564.2930159.56390977.6761905c.1804512.2028571.4736843.2253968.6766918.0450794l.5413534-.5184127.6541354.5184127c.2255639.1803174.5413534.1352381.7218046-.0901588l.406015-.563492.631579-.7663492z"/><path fill="#DE5663" d="M16.2406018 7.79873s-4.037594-1.12698413-5.8195489-1.64539683C5.75187997 4.80095222 3.74436117 4.80095222 2.36842132 7.79873c-.67669173 1.48761905-1.08270676 3.40349206-1.28571428 4.82349206-.18045113 1.21714286.40601504 2.38920634 1.2631579 2.63714284.83458646.2479365 1.93984962.5409524 3.04511277.7212699 2.1654136.3380952 5.5714286.7663492 7.9398496-1.96095242"/><path fill="#BD4858" d="M8.00751907 16.4314284c-1.037594 0-1.96240602-.1577778-2.63909775-.2479365-1.17293233-.1803175-2.32330827-.495873-3.06766917-.7212698-.9699248-.2930159-1.57894737-1.53269845-1.37593985-2.84000004.20300752-1.37492063.60902256-3.335873 1.30827068-4.86857143C3.676692 4.62063476 5.84210553 4.6882538 10.48872208 6.01809508c1.75939852.5184127 5.77443612 1.64539682 5.81954882 1.64539682.0902256.0225397.1353384.11269842.112782.20285715-.0225564.09015873-.112782.1352381-.2030075.1126984-.0451128-.02253967-4.0601504-1.1495238-5.8195489-1.64539682-2.1879699-.6311111-3.92481202-1.0142857-5.1879699-.81142857-1.19548874.20285715-1.98496242.9015873-2.66165415 2.36666667-.69924812 1.51015873-1.08270677 3.42603175-1.28571428 4.7784127-.15789474 1.10444444.33834586 2.2088889 1.15037594 2.45682537.7443609.2253969 1.8496241.5409524 3.0225564.7212699 1.7368421.2704762 5.368421.8565079 7.7819549-1.89333337.0676692-.06761904.1804511-.06761904.2481203-.02253968.0676692.06761905.0676692.18031746.0225564.2479365-1.6240602 1.82571425-3.7218045 2.25396825-5.481203 2.25396825z"/><path fill="#DE5663" d="M3.29323298 6.80698392c-.2481203-.18031746-.4962406-.47333333-.60902255-.83396825-.2706767-.72126984-.04511278-1.42.4736842-1.5552381.40601505-.1126984.85714287.1352381 1.17293234.56349206.13533835-.6536508.60902256-1.10444444 1.12781955-1.05936507.60902256.04507936 1.08270677.7663492 1.06015037 1.57777777"/><path fill="#BD4858" d="M3.4962405 6.67174583c-.45112782-.36063493-.7443609-.96920635-.65413533-1.53269842.13533834-.8339682.87969924-.5184127 1.2631579-.0450793.13533834.1577778.42857142.0676191.4736842-.1352381.11278196-.495873.54135338-1.1269841 1.12781955-.7438095.42857143.2704762.56390977.8339683.56390977 1.3073016 0 .2704762.4962406.2028572.4962406-.0450794 0-.7438095-.3383459-1.6228571-1.1729324-1.7355555-.8120301-.1126984-1.3533835.5634921-1.5338346 1.2622223l.4736842-.1352381c-.4736842-.5860317-1.3984963-.991746-1.9849624-.2930158-.6090226.7438095-.1353384 1.8707937.518797 2.3892064.2255639.1352381.6541353-.1126984.4285714-.2930158z"/><path fill="#382556" d="M3.90225564 5.38698413c.13533834.29301587.06766917.58603174-.11278196.6536508-.2030075.06761904-.45112782-.09015874-.58646616-.3831746-.13533835-.2930159-.06766917-.58603176.11278195-.6536508.18045113-.06761905.45112782.09015872.58646617.3831746z"/><ellipse cx="15.6256872" cy="6.58694724" fill="#FFF" transform="rotate(-75.576 15.626 6.587)" rx="2.00756202" ry="2.00607494"/><ellipse cx="11.1377797" cy="5.14206568" fill="#FFF" transform="rotate(-75.576 11.138 5.142)" rx="2.00756202" ry="2.00607494"/><path fill="#382556" d="M11.9323308 5.2968254c-.1353383.5184127-.6541353.81142857-1.1503759.67619047-.518797-.1352381-.8120301-.6536508-.6766917-1.1495238.1353383-.5184127.6541353-.81142858 1.1503759-.67619048.4962406.1126984.8120301.6311111.6766917 1.1495238zm4.4887218 1.44253968c-.1353383.5184127-.6541353.81142857-1.1503759.67619048-.518797-.1352381-.8120301-.6536508-.6766917-1.1495238.1353383-.5184127.6541353-.8114286 1.1503759-.6761905.518797.11269842.8120301.63111112.6766917 1.14952382zM5.70676692 5.20666668c.0225564.3606349-.13533835.67619046-.36090226.72126983-.2255639.0225397-.45112782-.2479365-.4736842-.6085714-.0225564-.3606349.13533834-.6761905.36090225-.7212698.2481203-.0450793.4511279.2479365.4736843.6085715z"/><path fill="#68578A" d="M18.7218045 6.0857143l1.0150376-1.23968255-1.7142857-.29301588c-.406015-.47333333-.9473684-.83396825-1.6015038-.99174603-.8345864-.22539682-1.6917293-.06761905-2.3909774.33809524-.3834587-.85650794-1.1278196-1.5326984-2.0977444-1.78063492-.4962406-.1352381-.9924812-.1352381-1.4661654-.02253968l-1.1954887-.85650794-.15789475 1.5326984c-.0225564.0225397-.04511278.04507938-.06766917.04507938l-.90225564-.29301588.2255639 1.1495238c-.11278194.20285716-.2030075.45079366-.27067668.6761905-.42857143 1.6679365.58646617 3.38095237 2.25563914 3.80920634.8345864.22539682 1.6917293.06761905 2.3909774-.33809524.3834586.85650794 1.1278196 1.5326984 2.0977444 1.78063492 1.6691729.42825394 3.3834586-.58603174 3.81203-2.25396825.0225564-.067619.0451128-.1577777.0451128-.2253968l.8796993-.6085714-.8796993-.4507936.0225564.0225397zm-5.6390977-.42825398C12.8120301 6.73936508 11.7067669 7.39301587 10.6240602 7.1c-1.08270682-.2704762-1.73684215-1.37492063-1.44360907-2.4568254.2706767-1.08190476 1.37593987-1.73555555 2.45864657-1.44253968 1.0827068.29301587 1.7142858 1.37492064 1.4436091 2.4568254zM17.5714286 7.1c-.2706767 1.08190476-1.3759399 1.73555556-2.4586466 1.44253968-1.0827068-.2704762-1.7368422-1.37492063-1.4436091-2.4568254.2706767-1.08190476 1.3759399-1.73555555 2.4586466-1.44253968C17.2105263 4.93619048 17.8646617 6.01809524 17.5714286 7.1z"/><path fill="#EFC32E" d="M15.1578948 21.11968278s-1.8947368.74380952-5.57142855.92412698c-2.93233083.15777778-5.21052632-.45079365-5.21052632-.45079365s-1.60150376 1.5552381-1.4887218 3.9669842c.04511278.8790476.2255639 1.8707937 1.10526316 1.8707937.6090225 0 1.1503759.0225397 1.4210526-.4733333.2030075.6311111.81203.7438095 1.5338346.7438095.7443609 0 1.3533834-.2253968 1.5338346-.9015873.1804511.6761905.81203.9015873 1.5563909.9015873.81203 0 1.4210526-.3831746 1.5338346-1.1495238.2030075.6311111.8571428.8790476 1.5789473.8790476.8571429 0 1.5338346-.6536508 1.6015038-1.487619.2932331.428254.6541353.5634921 1.1954887.5634921.8796993 0 1.3308271-.6085714 1.2180451-1.487619-.3834586-2.8174603-2.0075188-3.8993651-2.0075188-3.8993651z"/><path fill="#BD4858" d="M10.03759407 27.7914288c-.7894737 0-1.33082707-.2479365-1.55639098-.7438095-.225564.495873-.7443609.7438095-1.5338346.7438095-.6090226 0-1.2631579-.04507936-1.556391-.6311111-.2932331.3831746-.7894737.3831746-1.3308271.3831746h-.0902255c-.9924812 0-1.150376-1.10444444-1.1954888-1.96095238-.112782-2.4342857 1.4887218-4.0120635 1.5112782-4.03460317.0225564-.0225397.0451128-.0225397.0902255-.0225397.0225564 0 2.2781955.58603176 5.1654135.45079366 3.6315789-.1803174 5.5263158-.9241269 5.5488721-.9241269h.0676692c.0676692.0450794 1.669173 1.1495238 2.075188 3.9669842.0676692.495873-.0225564.9015873-.2706767 1.1946032-.2255639.2704762-.5864662.4057143-1.0150376.4057143-.518797 0-.8796992-.1352381-1.1503759-.428254-.1578948.7663492-.8571429 1.352381-1.669173 1.352381-.7443609 0-1.2857143-.2479365-1.556391-.7212698-.1578948.6085715-.7443609.9692064-1.5338346.9692064zM8.4812031 26.70952406c.04511277 0 .06766916.02253968.09022555.06761905.15789474.5634921.65413534.8339683 1.46616542.8339683.81203007 0 1.35338346-.3831746 1.4661654-1.0819047 0-.0450793.0451128-.067619.06766918-.067619.0451128 0 .06766918.0225397.09022557.0676191.2481203.7212698 1.03759398.8339683 1.48872178.8339683.7894737 0 1.4661654-.6085714 1.5112782-1.3974603 0-.0450793.0225564-.067619.0676692-.067619.0451128 0 .0676692 0 .0902256.0225397.2706766.3831746.5864661.5184127 1.1278195.5184127.3834587 0 .6992481-.1126984.8796993-.3606349.2255639-.2479365.293233-.6085714.2481203-1.0593651-.2030076-1.4425397-.7443609-2.3892063-1.150376-2.9526984-.3609022-.495873-.6992481-.7663492-.8120301-.8565079-.3157894.1126985-2.2105263.7438096-5.57142853.924127-2.68421053.1352381-4.82706767-.3380952-5.18796993-.4282539-.2255639.2479365-1.53383458 1.7130159-1.42105263 3.8768254.0676692 1.2396825.3834587 1.7806349 1.0150376 1.7806349h.0902256c.5639098 0 1.0150376 0 1.2631579-.428254.0225564-.0225396.0451128-.0450793.0902256-.0450793s.0676692.0225397.0676692.0676191c.1804512.5634921.6992482.6761905 1.4436091.6761905.8120301 0 1.3082707-.2704762 1.4661654-.8339683.0451128-.0450793.0676692-.0901587.112782-.0901587z"/></g></g><path fill="#000" d="M218.1654137 126.4476189c-6.96992478 0-12.63157892-8.091746-12.63157892-18.0542857s5.66165414-18.05428574 12.63157892-18.05428574c6.9699248 0 12.631579 8.09174603 12.631579 18.05428574 0 9.9625397-5.6616542 18.0542857-12.631579 18.0542857zm0-34.30539684c-5.97744358 0-10.82706764 7.30285715-10.82706764 16.25111114 0 8.9482539 4.84962406 16.2511111 10.82706764 16.2511111 5.9774436 0 10.8270677-7.3028572 10.8270677-16.2511111 0-8.948254-4.8496241-16.25111114-10.8270677-16.25111114z"/><path fill="#8E8382" d="M218.165414 126.447619c-6.969925 0-12.631579-8.091746-12.631579-18.054286 0-9.9625393 5.661654-18.0542854 12.631579-18.0542854 6.969924 0 12.631578 8.0917461 12.631578 18.0542854 0 9.96254-5.661654 18.054286-12.631578 18.054286zm0-34.3053968c-5.977444 0-10.827068 7.3028572-10.827068 16.2511108 0 8.948254 4.849624 16.251111 10.827068 16.251111 5.977443 0 10.827067-7.302857 10.827067-16.251111 0-8.9482536-4.849624-16.2511108-10.827067-16.2511108z"/><ellipse cx="162.112782" cy="107.784762" fill="#D1A119" rx="2.27819549" ry="2.27650794"/><path fill="#3C4858" d="M158.75188 107.131111c0-.428254-.338346-1.036825-.834587-.879048-.225564.06762-.360902.247937-.473684.428254-.112782.225397-.203007.473334-.270677.72127-.135338.495873-.180451.991746-.225564 1.510159 0 .135238-.022556.247937-.022556.383175 0 .022539-.022556.135238-.022556.135238.022556 0 .045112-.02254.067669-.02254l-.045113-.045079c-.022556-.02254-.022556-.04508-.045113-.067619-.067669-.202858.022557-.428254.090226-.608572.067669-.157778.293233-.608571.518797-.495873.090225.04508.157895.202857.180451.293016.045113.135238.067669.293016.090225.450794 0 .112698.180452.202857.248121.067619.045113-.112699.112782-.225397.157895-.338095-.090226 0-.157895-.02254-.248121-.02254.045113.225397.338346.247936.473684.135238.090226-.067619.135339-.180318.180452-.270476.067669-.135238.112782-.270476.180451-.405715-.090226-.022539-.157895-.045079-.248121-.067619.022557.74381.06767 1.487619.248121 2.208889.022556.067619.067669.090159.135338.090159H159c.067669 0 .135338-.067619.135338-.135238-.045112-1.329841-.090225-2.682222-.135338-4.012064 0-.180317-.270677-.180317-.270677 0 0 .090159 0 .157778-.022556.247937v.045079c-.022556-.022539.067669-.045079.090225-.067619h.022557-.045113c-.045113 0-.067669 0-.090225.02254-.090226.045079-.112782.157778-.135339.247936-.045113.202858-.045113.405715-.112782.586032.090226 0 .157895.02254.248121.02254 0-.045079-.022557-.067619-.022557-.112699-.022556-.157777-.270677-.112698-.270677.04508 0 .247936-.022556.495873-.067669.743809-.022556.090159.067669.202858.157895.157778.270677-.090159.586466 0 .766917.247937.045113.045079.090226.067619.157895.067619.090226-.02254.203008.067619.293233.112698.112782.045079.225564.045079.338346 0 .112782-.02254.203008-.090159.315789-.090159.112782 0 .203008 0 .293234.02254.406015.090159.789473.338095 1.195488.202857.157895-.045079.090226-.315555-.067669-.247936-.406015.135238-.81203-.180318-1.195489-.225397-.090225-.02254-.203007-.02254-.293233 0-.112782.02254-.225564.067619-.338346.090159-.135338.045079-.225563 0-.338345-.04508-.112782-.045079-.203008-.067619-.31579-.045079.045113.02254.090226.045079.157895.067619-.24812-.338095-.676692-.495873-1.060151-.360635.045113.045079.112782.112698.157895.157778.045113-.270476.067669-.540953.067669-.833968-.090225.022539-.180451.022539-.270676.045079 0 .045079.022556.067619.022556.112698.022556.112699.203008.135238.24812.02254.090226-.202857.112782-.405714.135339-.608571 0-.02254.045112-.157778.045112-.157778-.022556 0-.022556.022539-.045112.022539h-.045113c.270677.090159.24812-.338095.24812-.473333h-.270676c.045112 1.329841.090225 2.682222.135338 4.012064.045113-.04508.090225-.090159.135338-.135238h-.112782c.045113.022539.090226.067619.135339.090158-.180452-.69873-.203008-1.42-.248121-2.14127 0-.112698-.180451-.202857-.24812-.067619-.067669.157778-.135338.293016-.203008.450794-.022556.045079-.045112.112698-.090225.157778-.022556.022539-.067669.045079-.067669.022539-.022557-.112698-.203008-.135238-.248121-.022539-.045112.112698-.112782.225397-.157894.338095.090225.02254.157894.045079.24812.067619-.022556-.383175-.24812-1.262222-.81203-.969206-.225564.112698-.383459.383174-.496241.631111-.090225.225397-.157894.450793-.135338.69873.022556.180317.24812.540952.473684.360635.090226-.067619.090226-.180318.090226-.293016.022556-.135238.022556-.293016.045113-.428254.045112-.563492.112782-1.126984.293233-1.667936.090225-.247937.203007-.608572.49624-.698731.338346-.112698.496241.360635.496241.608572.067669.067619.338346.067619.338346-.090159zm-78.9473687 6.311111c-.1353384-.067619-.2932331-.112698-.4511278-.022539-.1353384.090158-.1353384.225396-.1353384.360634.0225564.338096.1353384.653651.2030075.969207.0225564.135238.0676692.315555-.0902255.405714-.112782.067619-.2706767.067619-.4285715.090159-.3383458.02254-.6766917-.02254-1.0150376-.090159-.3834586-.090159-.7443609-.225397-1.1052631-.383175-.112782-.045079-.2255639.112699-.112782.180318.631579.270476 1.2857143.518413 1.9849624.518413.1578948 0 .3383459 0 .4962406-.04508.1353384-.022539.2706767-.067619.3609023-.157777.112782-.112699.112782-.270477.0902256-.405715-.0225564-.180317-.0676692-.338095-.112782-.518412-.0451128-.180318-.0902256-.360635-.112782-.540953 0-.067619-.0225563-.180317.0451128-.202857.0902256-.045079.2030076 0 .2706767.045079.1804512.04508.2481203-.157777.112782-.202857z"/><path fill="#3C4858" d="M78.1804511 113.915556c-.0676691-.180318 0-.383175.1353384-.518413.1353383-.135238.3383458-.202857.5413534-.202857.4285714-.02254.81203.202857 1.1278195.473333.1578947.135238.3157895.293016.4285714.450794.112782.157777.2481203.360635.2481203.586031.0225564.428254-.4962406.540953-.8345864.631112-.2481203.067619-.518797.112698-.7669173.157777-.1353384.02254-.2481203.02254-.3834587.02254-.0902255 0-.2481203.02254-.3157894-.045079 0 .045079 0 .090158.0225563.112698.0451128-.090159.1578948-.112698.2481203-.135238.112782-.045079.2481203-.067619.3609023-.067619.1804511 0 .4511278-.02254.5639098.135238.0451128-.045079.0676692-.090159.1127819-.157778-.0676691-.022539-.0676691-.112698-.0676691-.157778.0225564-.090158.1127819-.135238.1804511-.180317.2030075-.090159.4285714-.090159.6090225 0 .0451128.02254.112782-.02254.1353384-.067619.0451128-.157778 0-.293016-.0225564-.428254 0-.045079-.0225564-.067619-.0225564-.112698v-.067619c-.0451128 0-.0676692 0-.0451128.022539l.0225564.02254c.0225564.02254.0225564.02254.0451128.045079.0451128.04508.0676692.067619.112782.090159h.1127819c.0225564 0 .0451128-.02254 0-.02254.0451128.090159.0676692.157778.1578947.202857.0451128.02254.112782-.022539.1353384-.067619.0225564-.067619.0451128-.135238.0451128-.202857 0-.022539.0225564-.067619.0225564-.067619 0-.022539-.0225564-.022539-.0225564 0l.0676691.04508c.0225564.022539.0451128.045079.0902256.045079.0676692.02254.1578947.045079.2030075-.02254.0225564-.022539.0451128-.045079.0676692-.090158 0-.02254 0-.02254.0225564-.04508.0225564 0 .0676692.02254.0902256.02254.4736842.090159.9473684.067619 1.3984962-.04508-.0225564-.067619-.0676692-.112698-.0902256-.180317-.2030075.247937-.4285714.495873-.6992481.67619.0451128.02254.0902256.02254.1353384.04508-.0451128-.090159-.1578948-.112699-.2481203-.090159-.1353384.02254-.2706767.045079-.4060151.045079.0225564.06762.0451128.135239.0451128.180318.3609023-.202857.7218045-.315556 1.1278196-.383175.1804511-.022539.3609022-.045079.5413533-.022539.1353384 0 .3157895.045079.4060151.180317.0676691.112699.2481203 0 .1804511-.112698-.2481203-.315556-.6992481-.293016-1.0601504-.247937-.4511278.04508-.9022556.202857-1.2857143.428254-.0902255.04508-.0451127.202857.0451128.180318.0902256-.02254.1804511-.02254.2706767-.04508.0225564 0 .2030075-.045079.2030075-.022539.0225564.045079.0902256.067619.1353384.045079.2706767-.202857.518797-.450794.7443609-.72127.0676692-.067619 0-.202857-.0902256-.180317-.2481203.067619-.518797.112698-.7669173.112698-.1353383 0-.2706767 0-.406015-.02254-.112782-.022539-.2255639-.067619-.3383459-.045079-.0451128.02254-.0902255.045079-.1127819.090159 0 .022539-.0225564.045079-.0225564.067619 0 .045079-.0225564 0 0 .022539-.0676692-.022539-.112782-.067619-.1804512-.090158-.2481203-.090159-.293233.247936-.3157894.405714.0451128-.02254.0902255-.045079.1353383-.067619.0225564 0 0-.02254-.0225564-.045079 0-.02254-.0225564-.04508-.0225564-.067619-.0225564-.04508-.0902255-.090159-.1578947-.090159h-.0676692l-.0225564.02254c-.0225564 0-.0225564-.02254-.0451127-.02254-.0451128-.04508-.0676692-.090159-.112782-.112699-.1578947-.067619-.2481203.090159-.2481203.225397 0 .180318.112782.360635.0676692.518413.0451128-.02254.0902255-.045079.1353383-.067619-.2932331-.112699-.6541353-.090159-.9022556.112698-.2030075.180318-.2255639.518413.0676692.631111.0902255.02254.1578947-.090158.1127819-.157777-.1804511-.225397-.4736842-.247937-.7443609-.247937-.2706767.02254-.6315789.067619-.7669173.315556-.0225564.045079-.0225564.090158.0225564.112698.0676692.090159.1804511.112699.2706767.112699.1353383 0 .2706767 0 .406015-.02254.2706767-.02254.5639098-.067619.8345865-.135238.406015-.090159 1.0150376-.225397 1.1052632-.69873.0451127-.247937-.0451128-.495873-.1578948-.698731-.1353383-.225396-.2932331-.405714-.4962406-.586031-.3609022-.315556-.8120301-.586032-1.3308271-.586032-.2481203 0-.5187969.090159-.7218045.270476-.1804511.180318-.2706767.473333-.1804511.72127.0451128.067619.2481203.02254.2030075-.112698zM31.6240602 54.2530159c-.1353384-.0676191-.2932331-.1126984-.4511279-.0225397-.1353383.0901587-.1353383.2253968-.1353383.3606349.0225564.3380952.1353383.6536508.2030075.9692064.0225564.1352381.0676692.3155555-.0902256.4057142-.1127819.0676191-.2706767.0676191-.4285714.0901588-.3383459.0225397-.6766917-.0225397-1.0150376-.0901588-.3834586-.0901587-.7443609-.2253968-1.1052631-.3831746-.112782-.0450793-.225564.1126985-.112782.1803175.631579.2704762 1.2857143.5184127 1.9849624.5184127.1578947 0 .3383459 0 .4962406-.0450794.1353384-.0225396.2706767-.067619.3609023-.1577777.1127819-.1126985.1127819-.2704762.0902255-.4057143-.0225564-.1803175-.0676691-.3380953-.1127819-.5184127-.0451128-.1803175-.0902256-.3606349-.112782-.5409524 0-.0676191-.0225564-.1803175.0451128-.2028571.0902256-.0450794.2030075 0 .2706767.0450793.1804511.0450794.2255639-.1577778.112782-.2028571z"/><path fill="#3C4858" d="M30 54.7263492c-.0676692-.1803175 0-.3831746.1353383-.5184127.1353384-.1352381.3383459-.2028571.5413534-.2028571.4285715-.0225397.8120301.2028571 1.1278196.4733333.1578947.1352381.3157895.2930159.4285714.4507936.112782.1577778.2481203.360635.2481203.5860318.0225564.428254-.4962406.5409524-.8345865.6311111-.2481203.0676191-.518797.1126984-.7669173.1577778-.1353383.0225397-.2481203.0225397-.3834586.0225397-.0902256 0-.2481203.0225396-.3157895-.0450794 0 .0450794 0 .0901587.0225564.1126984.0451128-.0901587.1578948-.1126984.2481203-.1352381.112782-.0450793.2481203-.067619.3609023-.067619.1804511 0 .4511278-.0225397.5639097.1352381.0451128-.0450794.0676692-.0901588.112782-.1577778-.0676692-.0225397-.0676692-.1126984-.0676692-.1577778.0225564-.0901587.112782-.1352381.1804512-.1803174.2030075-.0901588.4285714-.0901588.6090225 0 .0451128.0225396.112782-.0225397.1353384-.0676191.0451127-.1577778 0-.2930159-.0225564-.428254 0-.0450793-.0225564-.067619-.0225564-.1126984v-.067619c-.0451128 0-.0676692 0-.0451128.0225397l.0225564.0225396.0451128.0450794c.0451128.0450794.0676691.0676191.1127819.0901587h.112782c.0225564 0 .0451128-.0225396 0-.0225396.0451128.0901587.0676692.1577777.1578947.2028571.0451128.0225397.112782-.0225397.1353384-.0676191.0225564-.067619.0451127-.135238.0451127-.2028571 0-.0225397.0225564-.067619.0225564-.067619 0-.0225397-.0225564-.0225397-.0225564 0l.0676692.0450793c.0225564.0225397.0451128.0450794.0902256.0450794.0676692.0225397.1578947.0450794.2030075-.0225397.0225564-.0225397.0451128-.0450794.0676692-.0901587 0-.0225397 0-.0225397.0225564-.0450794.0225564 0 .0676691.0225397.0902255.0225397.4736842.0901587.9473684.067619 1.3984963-.0450794-.0225564-.067619-.0676692-.1126984-.0902256-.1803174-.2030075.2479365-.4285714.495873-.6992481.6761904.0451128.0225397.0902255.0225397.1353383.0450794-.0451128-.0901587-.1578947-.1126984-.2481203-.0901587-.1353383.0225397-.2706767.0450793-.406015.0450793.0225564.0676191.0451128.1352381.0451128.1803175.3609022-.2028571.7218045-.3155556 1.1278195-.3831746.1804512-.0225397.3609023-.0450794.5413534-.0225397.1353384 0 .3157895.0450794.406015.1803175.0676692.1126984.2481203 0 .1804512-.1126984-.2481203-.3155556-.6992481-.2930159-1.0601504-.2479365-.4511278.0450793-.9022556.2028571-1.2857143.4282539-.0902256.0450794-.0451128.2028572.0451128.1803175.0902256-.0225397.1804511-.0225397.2706767-.0450794.0225564 0 .2030075-.0450793.2030075-.0225397.0225564.0450794.0902256.0676191.1353383.0450794.2706767-.2028571.518797-.4507936.744361-.7212698.0676691-.0676191 0-.2028572-.0902256-.1803175-.2481203.067619-.518797.1126984-.7669173.1126984-.1353384 0-.2706767 0-.406015-.0225397-.112782-.0225397-.225564-.067619-.3383459-.0450793-.0451128.0225396-.0902256.0450793-.112782.0901587 0 .0225397-.0225564.0450794-.0225564.067619 0 .0450794-.0225563 0 0 .0225397-.0676691-.0225397-.1127819-.067619-.1804511-.0901587-.2481203-.0901587-.2932331.2479365-.3157895.4057143l.1353384-.0676191c.0225564 0 0-.0225396-.0225564-.0450793 0-.0225397-.0225564-.0450794-.0225564-.0676191-.0225564-.0450793-.0902256-.0901587-.1578947-.0901587h-.0676692l-.0225564.0225397c-.0225564 0-.0225564-.0225397-.0451128-.0225397-.0451128-.0450794-.0676691-.0901587-.1127819-.1126984-.1578948-.0676191-.2481203.0901587-.2481203.2253968 0 .1803175.1127819.3606349.0676691.5184127.0451128-.0225397.0902256-.0450794.1353384-.067619-.2932331-.1126985-.6541353-.0901588-.9022557.1126984-.2030075.1803174-.2255639.5184127.0676692.6311111.0902256.0225397.1578948-.0901588.112782-.1577778-.1804512-.2253968-.4736842-.2479365-.7443609-.2479365-.2706767.0225397-.631579.067619-.7669173.3155555-.0225564.0450794-.0225564.0901588.0225564.1126985.0676691.0901587.1804511.1126984.2706767.1126984.1353383 0 .2706767 0 .406015-.0225397.2706767-.0225397.5639098-.0676191.8345865-.1352381.406015-.0901587 1.0150376-.2253968 1.1052631-.6987302.0451128-.2479365-.0451128-.495873-.1578947-.6987301-.1353384-.2253968-.2932331-.4057143-.4962406-.5860318-.3609023-.3155555-.8120301-.5860317-1.3308271-.5860317-.2481203 0-.518797.0901587-.7218045.2704762-.1804511.1803174-.2706767.4733333-.1804511.7212698.0451128.0676191.2481203.0225397.2030075-.1126984z"/><path fill="#000" d="M44.0977444 41.9914286H20.6842105c-.2030075 0-.3609022-.1577778-.3609022-.3606349 0-.2028572.1578947-.360635.3609022-.360635h23.4135339c.2030075 0 .3609022.1577778.3609022.360635.0225564.2028571-.1578947.3606349-.3609022.3606349zm-.0225564 2.2990476H20.6842105c-.2030075 0-.3609022-.1577778-.3609022-.3606349 0-.2028572.1578947-.360635.3609022-.360635h23.4135339c.2030075 0 .3609022.1577778.3609022.360635 0 .2028571-.1804511.3606349-.3834586.3606349zm.0225564 2.2765079H20.6842105c-.2030075 0-.3609022-.1577778-.3609022-.3606349 0-.2028571.1578947-.3606349.3609022-.3606349h23.4135339c.2030075 0 .3609022.1577778.3609022.3606349 0 .1803175-.1578947.3606349-.3609022.3606349zm-.0225564 2.2990476H20.6616541c-.2030075 0-.3609022-.1577777-.3609022-.3606349 0-.2028571.1578947-.3606349.3609022-.3606349H44.075188c.2030075 0 .3609022.1577778.3609022.3606349 0 .1803175-.1578947.3606349-.3609022.3606349zm-6.3834587-11.1796825H27.0451128c-.6766917 0-1.2406015-.5634921-1.2406015-1.2396825 0-.6761905.5639098-1.2396826 1.2406015-1.2396826h10.6466165c.6766918 0 1.2406015.5634921 1.2406015 1.2396826 0 .6761904-.5639097 1.2396825-1.2406015 1.2396825zm1.7593985-7.9339682H25.0601504c-.2030075 0-.3609023-.1577778-.3609023-.360635 0-.2028571.1578948-.3606349.3609023-.3606349h14.3909774c.2030075 0 .3609023.1577778.3609023.3606349 0 .1803175-.1578948.360635-.3609023.360635z"/><path fill="#4B5059" d="M33.5639096 101.78920657H19.1954885c-.20300752 0-.36090225-.15777778-.36090225-.36063492 0-.20285714.15789473-.36063492.36090225-.36063492h14.3909774c.2030076 0 .3609023.15777778.3609023.36063492 0 .20285714-.1578947.36063492-.3834586.36063492zm6.7669172 2.29904763H12.40601482c-.20300752 0-.36090226-.1577778-.36090226-.36063493 0-.20285714.15789474-.36063492.36090226-.36063492H40.3308268c.2030076 0 .3609023.15777778.3609023.36063492 0 .20285714-.1578947.36063492-.3609023.36063492zm0 2.27650793H12.40601482c-.20300752 0-.36090226-.15777778-.36090226-.36063492 0-.2028571.15789474-.3606349.36090226-.3606349H40.3308268c.2030076 0 .3609023.1577778.3609023.3606349 0 .1803175-.1578947.360635-.3609023.360635zm-2.2781954 2.29904762H14.63909753c-.20300752 0-.36090226-.15777778-.36090226-.36063492 0-.20285715.15789474-.36063493.36090226-.36063493H38.0526314c.2030075 0 .3609022.15777778.3609022.36063493 0 .18031746-.1578947.36063492-.3609022.36063492zM31.6691729 95.2301587H21.0225564c-.6766917 0-1.2406015-.563492-1.2406015-1.2396825s.5639098-1.2396825 1.2406015-1.2396825h10.6466165c.6766918 0 1.2406015.563492 1.2406015 1.2396825s-.5639097 1.2396825-1.2406015 1.2396825zm1.7593985-7.9339682H19.037594c-.2030075 0-.3609023-.1577778-.3609023-.3606349 0-.2028572.1578948-.360635.3609023-.360635h14.3909774c.2030075 0 .3609023.1577778.3609023.360635.0225564.1803174-.1578948.3606349-.3609023.3606349z"/><path fill="#3C4858" d="M88.0375941 102.6907941h-9.87969923c-.20300752 0-.36090225-.1577777-.36090225-.3606349 0-.2028571.15789473-.3606349.36090225-.3606349h9.87969923c.2030075 0 .3609023.1577778.3609023.3606349.0225564.2028572-.1578948.3606349-.3609023.3606349zm2.2556391 2.2990477H75.90225577c-.2030075 0-.36090225-.1577778-.36090225-.360635 0-.2028571.15789474-.3606349.36090225-.3606349H90.2932332c.2030075 0 .3609023.1577778.3609023.3606349 0 .2028572-.1578948.360635-.3609023.360635zm0 2.2539682H75.90225577c-.2030075 0-.36090225-.1577778-.36090225-.3606349 0-.2028571.15789474-.3606349.36090225-.3606349H90.2932332c.2030075 0 .3609023.1577778.3609023.3606349 0 .2028571-.1578948.3606349-.3609023.3606349zm-.0225564 2.2990476H75.87969938c-.20300752 0-.36090225-.1577777-.36090225-.3606349 0-.2028571.15789474-.3606349.36090225-.3606349H90.2706768c.2030075 0 .3609023.1577778.3609023.3606349 0 .2028572-.1578948.3606349-.3609023.3606349z"/><path fill="#000" d="M88.3984964 98.38571478H77.75187983c-.67669172 0-1.2406015-.56349207-1.2406015-1.23968254 0-.67619048.56390978-1.23968254 1.2406015-1.23968254H88.3984964c.6766917 0 1.2406015.56349206 1.2406015 1.23968254 0 .67619047-.5639098 1.23968254-1.2406015 1.23968254zm-2.7518797-7.95650794h-5.36842108c-.2030075 0-.36090225-.15777778-.36090225-.36063492 0-.20285714.15789474-.36063492.36090225-.36063492h5.36842108c.2030075 0 .3609022.15777778.3609022.36063492 0 .20285714-.1578947.36063492-.3609022.36063492zM163.62406 94.5314286h-23.413534c-.203007 0-.360902-.1577778-.360902-.3606349 0-.2028572.157895-.360635.360902-.360635h23.413534c.203008 0 .360902.1577778.360902.360635 0 .1803174-.157894.3606349-.360902.3606349zm-.022556 2.2990476H140.18797c-.203008 0-.360902-.1577778-.360902-.3606349 0-.2028572.157894-.360635.360902-.360635h23.413534c.203007 0 .360902.1577778.360902.360635 0 .2028571-.157895.3606349-.360902.3606349zm0 2.2539682H140.18797c-.203008 0-.360902-.1577777-.360902-.3606349 0-.2028571.157894-.3606349.360902-.3606349h23.413534c.203007 0 .360902.1577778.360902.3606349 0 .2028572-.157895.3606349-.360902.3606349zm-.022557 2.2990476h-23.413533c-.203008 0-.360903-.157778-.360903-.360635 0-.202857.157895-.360635.360903-.360635h23.413533c.203008 0 .360903.157778.360903.360635.022556.202857-.157895.360635-.360903.360635zm-8.639097-11.1796825h-6.135339c-.676691 0-1.240601-.563492-1.240601-1.2396825s.56391-1.2396826 1.240601-1.2396826h6.135339c.676691 0 1.240601.5634921 1.240601 1.2396826 0 .6987301-.56391 1.2396825-1.240601 1.2396825zm4.015037 14.1549205H144.56391c-.203008 0-.360902-.157778-.360902-.360635 0-.202857.157894-.360635.360902-.360635h14.390977c.203008 0 .360902.157778.360902.360635.022557.202857-.157894.360635-.360902.360635z"/></g></svg>