<svg id="Layer_1" xmlns="http://www.w3.org/2000/svg" xmlns:xlink="http://www.w3.org/1999/xlink" viewBox="0 0 323.1 294.8"><style>.st0{fill:#0D1013;} .st1{fill:#E7E4DB;} .st2{fill:#6F568E;} .st3{fill:#634E81;} .st4{fill:#FFC500;} .st5{clip-path:url(#SVGID_2_);fill:#FF5767;} .st6{clip-path:url(#SVGID_4_);} .st7{clip-path:url(#SVGID_6_);} .st8{fill:none;} .st9{fill:#FF5767;} .st10{fill:#FFFFFF;} .st11{fill:#53ADDB;}</style><title>dino_hello</title><path class="st0" d="M260.7 228.9l18.4-6.6 2.5 16.5 14.4-3.3.4 14.6 12.2.6-1.6 12z"/><ellipse class="st1" cx="220.4" cy="284.3" rx="67" ry="5.4"/><path class="st2" d="M186.3 274.1l-13.7 10h42s-.1-21.3-.3-29.7-1.7-16.7-8-24c-6.3-7.2-13.9-6.4-14.7 2-.8 8.4-5.3 41.7-5.3 41.7z"/><path class="st0" d="M172.6 284H189l-5.2-8.2-11.2 8.2z"/><path class="st3" d="M194.7 246.7c0 .9.7 1.7 1.7 1.7.9 0 1.7-.7 1.7-1.7 0-.9-.7-1.7-1.7-1.7s-1.7.7-1.7 1.7zm11-8.9c-.1-1.1-1-1.9-1.9-1.8-.9.1-1.5 1.1-1.4 2.2.1 1.1 1 1.9 1.9 1.8s1.5-1.1 1.4-2.2zm-6.7 1.5c-.7 0-1.3.6-1.3 1.3s.6 1.3 1.3 1.3 1.3-.6 1.3-1.3c.1-.7-.5-1.3-1.3-1.3zm2.4-3.8c0-.6-.5-1.2-1.2-1.2-.6 0-1.2.5-1.2 1.2 0 .6.5 1.2 1.2 1.2.6 0 1.2-.6 1.2-1.2zm2.3 7.5c.4 0 .7-.3.7-.7s-.3-.7-.7-.7-.7.3-.7.7c0 .4.3.7.7.7zm6.3-2.3c0-.6-.4-1-1-1-.5 0-1 .4-1 1s.4 1 1 1 1-.5 1-1zm-1.6 2.6c-.5 0-1 .4-1 1s.4 1 1 1c.5 0 1-.4 1-1s-.5-1-1-1zm-7.5-13.7c-.3-.8-.9-1.3-1.4-1.1s-.7 1-.5 1.7c.3.8.9 1.3 1.4 1.1s.7-.9.5-1.7zm-4.2-2.1c0-.5-.4-.8-.8-.8-.5 0-.8.4-.8.8 0 .5.4.8.8.8s.8-.3.8-.8zm1.3 6.2c0-.7-.9-2-1.7-2-.7 0-1.3.6-1.3 1.3s.6 2.7 1.3 2.7c.8 0 1.8-.8 1.7-2zm7.4-1.2c0-.8-.7-1.5-1.5-1.5s-1.5.7-1.5 1.5.7 1.5 1.5 1.5 1.5-.7 1.5-1.5zm-11.1 6.8c0-.8-.4-1.5-1-1.5s-1 .6-1 1.5c0 .8.4 1.5 1 1.5.5-.1.9-.7 1-1.5zm14.9 11.7c.8 0 1.9-.8 1.9-2 0-.7-1-2-1.9-2-.8 0-1.5.6-1.5 1.3 0 .8.6 2.7 1.5 2.7zm-7.2-4.2c-.2.8.1 1.5.7 1.5s1.1-.7 1.3-1.5-.1-1.5-.7-1.5c-.5 0-1.1.7-1.3 1.5zm4 5.2c0-.7-.6-1.3-1.3-1.3s-1.3.6-1.3 1.3.6 1.3 1.3 1.3c.7 0 1.3-.6 1.3-1.3zm-10.8 1.3c.3-.7.7-2.6 0-3-.7-.3-1.9-.1-2.4 1-.3.7-.1 2.2.6 2.5.7.4 1.5.1 1.8-.5zm18.8 1c0-.6-.4-1-1-1s-1 .4-1 1 .4 1 1 1 1-.4 1-1zm-13.7-2.3c.1-.6-.5-1.8-1.2-2s-1.4.1-1.6.7c-.2.6 0 2.3.7 2.5.8.2 1.9-.2 2.1-1.2zm6.3 10.3c0-.9-.7-1.7-1.7-1.7-.9 0-1.7.7-1.7 1.7 0 .9.7 1.7 1.7 1.7s1.7-.8 1.7-1.7zm-10.9 8.9c.1 1.1 1 1.9 1.9 1.8s1.5-1.1 1.4-2.2-1-1.9-1.9-1.8c-.9.1-1.6 1.1-1.4 2.2zm6.6-1.5c.7 0 1.3-.6 1.3-1.3 0-.7-.6-1.3-1.3-1.3s-1.3.6-1.3 1.3c0 .7.6 1.3 1.3 1.3zm-2.3 3.8c0 .6.5 1.2 1.2 1.2.6 0 1.2-.5 1.2-1.2 0-.6-.5-1.2-1.2-1.2s-1.2.5-1.2 1.2zm-2.3-7.5c-.4 0-.7.3-.7.7s.3.7.7.7.7-.3.7-.7-.4-.7-.7-.7zm-4-3.7c.5 0 1-.4 1-1 0-.5-.4-1-1-1-.5 0-1 .4-1 1s.4 1 1 1zm6.8 17.1c.3.8.9 1.3 1.4 1.1.5-.2.7-1 .5-1.7-.3-.8-.9-1.3-1.4-1.1-.6.1-.8.9-.5 1.7zm4.1 2.1c0 .5.4.8.8.8.5 0 .8-.4.8-.8 0-.5-.4-.8-.8-.8-.4-.1-.8.3-.8.8zm6.3.6c0 .5.4.8.8.8.5 0 .8-.4.8-.8 0-.5-.4-.8-.8-.8s-.8.4-.8.8zm-7.6-6.8c0 .7.9 2 1.7 2 .7 0 1.3-.6 1.3-1.3 0-.7-.6-2.7-1.3-2.7-.8 0-1.7.8-1.7 2zm6.3.2c-.2.8-.2 3.1.5 3.3.7.2 1.9-.4 2.2-1.8.2-.8-.3-2.5-1-2.7-.8-.1-1.5.4-1.7 1.2zm-2.7 5c0 .6.4 1.2 1 1.2.5 0 1-.5 1-1.2 0-.6-.4-1.2-1-1.2-.5 0-1 .5-1 1.2zm-7.9-4c0-.8-.7-1.5-1.5-1.5s-1.5.7-1.5 1.5.7 1.5 1.5 1.5 1.5-.7 1.5-1.5zm10-6.7c0-.8-.4-1.5-1-1.5-.5 0-1 .6-1 1.5 0 .8.4 1.5 1 1.5.5 0 1-.7 1-1.5zm4 2.5c.5 0 1-.6 1-1.5 0-.8-.4-1.5-1-1.5-.5 0-1 .6-1 1.5 0 .8.4 1.4 1 1.5zm-2.1-8.3c-.6 0-1.3.6-1.3 1.5 0 .6.7 1.5 1.3 1.5s1-.4 1-1-.4-2-1-2zm-21.2-7.7c0 .7 1 2 1.8 2s1.5-.6 1.5-1.3-.7-2.7-1.5-2.7-1.9.8-1.8 2zm9.6 5.9c.2-.8-.1-1.5-.7-1.5s-1.1.7-1.3 1.5.1 1.5.7 1.5 1.1-.7 1.3-1.5zm-4-5.2c0 .7.6 1.3 1.3 1.3s1.3-.6 1.3-1.3-.6-1.3-1.3-1.3-1.3.6-1.3 1.3zm10.8 1.7c.7.3 1.9.1 2.4-1 .3-.7.1-2.2-.6-2.5-.7-.3-1.5-.1-1.8.6-.3.6-.7 2.6 0 2.9zm5.6-.4c-.9.1-1.5 1.1-1.4 2.2s1 1.9 1.9 1.8 1.5-1.1 1.4-2.2c-.2-1.1-1-1.9-1.9-1.8zm-10.7-1.4c-.1.6.5 1.8 1.2 2s1.4-.1 1.6-.7c.2-.6 0-2.3-.7-2.5-.8-.1-1.9.2-2.1 1.2zm-11.1 14.9c0 .6.5 1.2 1.2 1.2.6 0 1.2-.5 1.2-1.2s-.5-1.2-1.2-1.2c-.6.1-1.2.6-1.2 1.2zm1.5 6.5c-.1.6.5 1.8 1.2 2s1.4-.1 1.6-.7c.2-.6 0-2.3-.7-2.5-.8-.2-1.9.2-2.1 1.2zm4.5 1.9c-.1.6.5 1.8 1.2 2s1.4-.1 1.6-.7c.2-.6 0-2.3-.7-2.5-.8-.1-1.9.2-2.1 1.2zm5.1-16.9c0 .4.3.7.7.7s.7-.3.7-.7c0-.4-.3-.7-.7-.7-.4.1-.7.4-.7.7zm-12.7-2.3c0 .4.3.7.7.7s.7-.3.7-.7c0-.4-.3-.7-.7-.7s-.7.3-.7.7zm2 5.9c.4.6 1.9 1.1 2.5.7s.7-1.3.3-1.9-2-1.8-2.6-1.4c-.7.4-1 1.6-.2 2.6zm2-21.2c-.6 0-1 .5-1 1.2 0 .6.4 1.2 1 1.2s1-.5 1-1.2-.5-1.2-1-1.2z"/><path class="st2" d="M194.1 166.9c.7 9.1-6.1 18.6-14.6 19.9-8.5 1.3-16.7.6-28.7-6.7-13.4-8.1-18.3-27.3-18.3-27.3s-8.3-4.5-10.3-11.7c4.4-.7 9.3 1.3 9.3 1.3s-1-6.7 1-10c4.4 1.8 6.3 7.6 6.3 7.6s5.8-5.1 8-5.5c1.3 5.3-.6 12.1-2 15.8 1.1 2.6 3.7 9.3 15.2 9.3 10.7 0 16.5-3.4 16.5-3.4 9.3-4.4 16.7-.7 17.6 10.7z"/><path class="st4" d="M141.3 146.5c0 2.1-1.6 3.9-3.8 3.9-2.1 0-3.9-1.6-3.9-3.8 0-2.1 1.6-3.9 3.8-3.9 2.1 0 3.8 1.7 3.9 3.8z"/><path class="st3" d="M166.6 183.1c-.9-.5-1.3-1.7-.8-2.6.5-.9 1.7-1.3 2.6-.8.9.5 1.3 1.7.8 2.6s-1.7 1.3-2.6.8zM170.1 178.8c-1-.7-1.4-2-.8-2.9s2-1 3-.2c1 .7 1.4 2 .8 2.9-.6.9-2 1-3 .2zM178.9 179.4c-.8-.4-1-1.3-.6-2.1s1.3-1 2.1-.6 1 1.3.6 2.1c-.4.7-1.4 1-2.1.6zM180.3 184.7c-.7-.3-.9-1.2-.6-1.8.3-.7 1.2-.9 1.8-.6.7.3.9 1.2.6 1.8-.3.7-1.1.9-1.8.6zM175.5 176.9c-.4-.2-.5-.7-.3-1 .2-.4.7-.5 1-.3.4.2.5.7.3 1-.2.4-.6.5-1 .3zM175.2 160.2c-.6-.3-.8-1-.5-1.6s1-.8 1.6-.5.8 1 .5 1.6c-.3.6-1 .8-1.6.5zM173.6 164.1c-.6-.3-.8-1-.5-1.6s1-.8 1.6-.5.8 1 .5 1.6-1 .8-1.6.5zM175.8 171.4c-.6-.3-.8-1-.5-1.6s1-.8 1.6-.5.8 1 .5 1.6c-.4.6-1.1.8-1.6.5zM174.5 184.2c-.8-.4-2.4-2-2-2.8s1.7-1.3 2.9-.6c.7.4 1.5 2 1.1 2.8-.3.7-1.2 1-2 .6zM171.9 168.9c-.8-.4-2.4-2.1-1.9-2.9.4-.8 1.8-1.5 3-.8.7.4 1.5 2.1 1 3-.4.8-1.4 1.1-2.1.7zM170.6 173.7c-.9-.3-1.5-.9-1.2-1.5s1.3-.8 2.3-.6c.9.3 1.5.9 1.2 1.5s-1.3.9-2.3.6zM165.8 171.4c-.8-.4-1-1.3-.6-2.1s1.3-1 2.1-.6 1 1.3.6 2.1c-.4.7-1.4 1-2.1.6zM160.1 179c.9 0 3.1.7 3.1 1.6 0 .8-.9 2-2.3 1.9-.9 0-2.3-1.1-2.3-2-.1-.9.6-1.5 1.5-1.5zM168.1 162.5c-.6-.3-.8-1-.5-1.6s1-.8 1.6-.5.8 1 .5 1.6c-.4.6-1.1.8-1.6.5zM176.9 166.3c-.6-.3-.8-1-.5-1.6s1-.8 1.6-.5.8 1 .5 1.6c-.3.5-1 .8-1.6.5zM163.9 178c-.7-.2-2.3-1.3-2.1-2.1s1.2-1.7 2.3-1.4c.7.2 1.6 1.5 1.4 2.3-.2.8-.9 1.3-1.6 1.2zM155.5 164.8c-.9-.5-1.3-1.7-.8-2.6.5-.9 1.7-1.3 2.6-.8.9.5 1.3 1.7.8 2.6-.5 1-1.7 1.3-2.6.8zM144.2 165.8c1 .7 1.4 2 .8 2.9-.6.9-2 1-3 .2-1-.7-1.4-2-.8-2.9s1.9-1 3-.2zM147.8 165c-.8-.4-1-1.3-.6-2.1.4-.7 1.3-1 2.1-.6s1 1.3.6 2.1c-.4.7-1.4 1-2.1.6zM142 163.3c-.7-.3-.9-1.2-.6-1.8.3-.7 1.2-.9 1.8-.6.7.3.9 1.2.6 1.8-.4.7-1.2.9-1.8.6zM147.3 170c-.4-.2-.5-.7-.3-1 .2-.4.7-.5 1-.3.4.2.5.7.3 1-.1.3-.6.5-1 .3zM150.5 177.2c-.6-.3-.8-1-.5-1.6s1-.8 1.6-.5.8 1 .5 1.6c-.4.6-1.1.8-1.6.5zM137.8 158c.7.7.8 1.6.4 2-.5.4-1.4.2-2-.5-.7-.7-.8-1.6-.4-2 .5-.4 1.4-.2 2 .5zM137.2 155.5c-.5-.2-.7-.8-.4-1.3.2-.5.8-.6 1.3-.4.5.2.7.8.4 1.3-.2.5-.8.7-1.3.4zM142.8 155.5c.8.4 2.4 2 2 2.8-.4.7-1.7 1.3-2.9.6-.7-.4-1.5-2-1.1-2.8.3-.7 1.3-1 2-.6zM143.5 154.6c-.7-.2-2.3-1-2.2-1.6s1-1.2 2.1-.9c.7.2 1.7 1.1 1.5 1.7-.1.7-.8 1-1.4.8zM138.2 164.7c-.7-.4-.9-1.2-.6-1.9.4-.7 1.2-.9 1.9-.6.7.4.9 1.2.6 1.9-.4.7-1.3.9-1.9.6zM150.7 159.9c.9.4 1.3 1.2 1.1 1.8-.3.6-1.2.7-2.1.3-.9-.4-1.3-1.2-1.1-1.8.3-.6 1.3-.8 2.1-.3zM147.6 155.9c.6.3 1.8 1.5 1.5 2.1s-1.3 1-2.2.5c-.6-.3-1.1-1.5-.8-2.1.2-.5.9-.8 1.5-.5zM153.2 170c.9.3 1.5.9 1.2 1.5s-1.3.8-2.3.5c-.9-.3-1.5-.9-1.2-1.5.3-.5 1.3-.7 2.3-.5zM156.3 176.9c-.8-.4-1-1.3-.6-2.1.4-.7 1.3-1 2.1-.6s1 1.3.6 2.1c-.4.7-1.3 1-2.1.6zM163.4 164.9c-.9 0-3.1-.7-3.1-1.6 0-.8.9-1.9 2.3-1.9.8 0 2.3 1.1 2.3 2 .1.8-.6 1.5-1.5 1.5zM159.6 167.6c.7.2 2.3 1.3 2.2 2.1-.2.8-1.2 1.7-2.3 1.4-.7-.2-1.6-1.5-1.4-2.3.1-.8.8-1.4 1.5-1.2zM147.1 174.6c-.7-.3-.9-1.2-.6-1.8.3-.7 1.2-.9 1.8-.6.7.3.9 1.2.6 1.8-.3.7-1.1.9-1.8.6zM152.9 167.7c-.4-.2-.5-.7-.3-1 .2-.4.7-.5 1-.3s.5.7.3 1c-.2.4-.6.5-1 .3z"/><g><path class="st2" d="M229.9 159.3c3.4-8.4 13.7-13.9 22-11.3 8.2 2.6 15.2 6.9 22.7 18.8 8.3 13.2 4.2 32.6 4.2 32.6s5.5 7.7 4 15c-4.3-1.4-7.7-5.3-7.7-5.3s-2 6.5-5.3 8.5c-3.2-3.6-2.3-9.6-2.3-9.6s-7.4 2-9.6 1.4c1.2-5.3 5.9-10.5 8.8-13.3.2-2.8.8-10-9.5-15.1-9.6-4.7-16.3-4.3-16.3-4.3-10.3-.2-15.2-6.8-11-17.4z"/><path class="st3" d="M261.8 157.1c.6.9.4 2.1-.4 2.7-.9.6-2.1.4-2.7-.4-.6-.9-.4-2.1.4-2.7.9-.7 2.1-.5 2.7.4zM256.8 159.3c.6 1.1.3 2.4-.6 2.9s-2.2 0-2.8-1.1-.3-2.4.6-2.9c.9-.5 2.2 0 2.8 1.1zM249.1 154.9c.5.7.3 1.7-.3 2.1-.7.5-1.7.3-2.2-.4s-.3-1.7.3-2.1c.8-.4 1.7-.3 2.2.4zM250.2 149.5c.4.6.3 1.4-.3 1.9-.6.4-1.4.3-1.9-.3-.4-.6-.3-1.4.3-1.9.6-.4 1.5-.3 1.9.3zM251.1 158.6c.2.3.2.8-.2 1.1-.3.2-.8.2-1.1-.2-.2-.3-.2-.8.2-1.1.3-.2.8-.1 1.1.2zM243.9 173.7c.4.5.3 1.2-.3 1.6-.5.4-1.2.3-1.6-.3-.4-.5-.3-1.2.3-1.6.5-.3 1.2-.2 1.6.3zM247.1 170.9c.4.5.3 1.2-.3 1.6-.5.4-1.2.3-1.6-.3-.4-.5-.3-1.2.3-1.6.5-.3 1.2-.2 1.6.3zM248.4 163.4c.4.5.3 1.2-.3 1.6-.5.4-1.2.3-1.6-.3s-.3-1.2.3-1.6c.5-.3 1.2-.2 1.6.3zM255.2 152.5c.5.7 1.2 2.9.6 3.4-.7.5-2.1.4-2.9-.8-.5-.7-.5-2.5.2-3 .6-.5 1.6-.3 2.1.4zM250.8 167.4c.5.7 1.2 2.9.4 3.5s-2.3.6-3.1-.6c-.5-.7-.4-2.6.4-3.1.7-.6 1.8-.5 2.3.2zM254 163.7c.7.7.9 1.5.4 1.9s-1.5.1-2.3-.5c-.7-.7-.9-1.5-.4-1.9.5-.4 1.5-.2 2.3.5zM257.3 167.9c.5.7.3 1.7-.3 2.1-.7.5-1.7.3-2.2-.4s-.3-1.7.3-2.1c.7-.4 1.7-.3 2.2.4zM265.8 163.6c-.8-.4-2.4-2-2-2.8s1.7-1.3 2.9-.6c.7.4 1.6 2 1.2 2.8-.4.7-1.4 1-2.1.6zM251.3 174.9c.4.5.3 1.2-.3 1.6-.5.4-1.2.3-1.6-.3-.4-.5-.3-1.2.3-1.6.5-.4 1.2-.3 1.6.3zM245 167.5c.4.5.3 1.2-.3 1.6-.5.4-1.2.3-1.6-.3-.4-.5-.3-1.2.3-1.6.5-.3 1.2-.2 1.6.3zM261.9 162.8c.5.5 1.5 2.2 1 2.8-.5.7-1.8 1-2.7.3-.5-.5-.8-2.1-.3-2.7.6-.7 1.4-.8 2-.4zM263.6 178.4c.6.9.4 2.1-.4 2.7-.9.6-2.1.4-2.7-.4-.6-.9-.4-2.1.4-2.7.9-.7 2.1-.5 2.7.4zM274.1 182.6c-.6-1.1-.3-2.4.6-2.9s2.2 0 2.8 1.1c.6 1.1.3 2.4-.6 2.9s-2.2 0-2.8-1.1zM270.6 181.6c.5.7.3 1.6-.3 2.1-.7.5-1.6.3-2.1-.4s-.3-1.6.3-2.1c.6-.4 1.6-.3 2.1.4zM275 185.8c.4.6.3 1.4-.3 1.9-.6.4-1.4.3-1.9-.3-.4-.6-.3-1.4.3-1.9s1.5-.3 1.9.3zM273.2 177.4c.2.3.2.8-.2 1.1-.3.2-.8.2-1.1-.2-.2-.3-.2-.8.2-1.1.4-.3.8-.2 1.1.2zM273.6 169.5c.4.5.3 1.2-.3 1.6-.5.4-1.2.3-1.6-.3s-.3-1.2.3-1.6c.5-.4 1.2-.2 1.6.3zM276.4 192.3c-.3-.9 0-1.8.6-2s1.3.4 1.6 1.3c.3.9 0 1.8-.6 2s-1.3-.4-1.6-1.3zM275.8 194.8c.3.4.2 1-.2 1.3-.4.3-1 .2-1.3-.2s-.2-1 .2-1.3c.4-.3 1-.2 1.3.2zM270.8 192.4c-.5-.7-1.2-2.9-.6-3.4.7-.5 2.1-.4 2.9.8.5.7.5 2.5-.2 3-.6.4-1.6.3-2.1-.4zM269.8 192.8c.5.4 1.6 2 1.3 2.4-.4.5-1.4.6-2.3-.1-.5-.5-1-1.8-.6-2.2s1.1-.5 1.6-.1zM279 186.2c.4.6.3 1.5-.3 1.9-.6.4-1.5.3-1.9-.3s-.3-1.5.3-1.9c.6-.5 1.5-.3 1.9.3zM265.7 184.9c-.6-.8-.6-1.7-.1-2.1.5-.4 1.4-.1 2 .7s.6 1.7.1 2.1c-.6.4-1.5.1-2-.7zM266.7 189.8c-.4-.5-.9-2.2-.4-2.6.5-.4 1.6-.4 2.2.5.4.5.3 1.9-.2 2.3-.4.5-1.2.4-1.6-.2zM268 174.7c-.7-.7-.9-1.5-.4-1.9s1.5-.1 2.3.5c.7.7.9 1.5.4 1.9-.6.4-1.6.2-2.3-.5zM268.2 167.2c.5.7.3 1.6-.3 2.1-.7.5-1.6.3-2.1-.4s-.3-1.6.3-2.1 1.6-.3 2.1.4zM256.5 174.8c.8.4 2.4 2 2 2.8s-1.7 1.3-2.9.6c-.7-.4-1.6-2-1.2-2.8.4-.7 1.3-1 2.1-.6zM261.1 174c-.5-.5-1.5-2.2-1-2.8.5-.7 1.8-1 2.7-.2.5.5.8 2.1.3 2.7s-1.4.8-2 .3zM275.4 173.3c.4.6.3 1.4-.3 1.9-.6.4-1.4.3-1.9-.3-.4-.6-.3-1.4.3-1.9.7-.4 1.5-.3 1.9.3zM267.2 176.9c.2.3.2.8-.2 1.1-.3.2-.8.2-1.1-.2-.2-.3-.2-.8.2-1.1.4-.2.8-.1 1.1.2z"/></g><g><path class="st0" d="M257.6 61l20.3 16.3-21.3 13 15 16.7-16.3 12 10.7 13.3-16 10.7 7.6-82z"/></g><g><defs><path id="SVGID_1_" d="M258.6 58.3s-9.6 95.2-9.6 133.1c0 13.9 1.1 27.1 6.8 32 6.3 5.5 20.4 11.3 32.4 20.7 7.4 5.8 11.9 9.7 15.8 13.7 17.8 18 16 24.4 16 24.4s-14.6-12.1-70.7-18.3l-13.8-2.7c-8.5-1.6-25.9-9.2-28.4-11.6-13.2-8.1-19.8-19.9-21.4-34.3-2.6-22.3-10-91-10-101.7-.1-39.1 82.9-55.3 82.9-55.3z"/></defs><clipPath id="SVGID_2_"><use xlink:href="#SVGID_1_" overflow="visible"/></clipPath><path class="st5" d="M258.6 58.3s-9.6 95.2-9.6 133.1c0 13.9 1.1 27.1 6.8 32 6.3 5.5 20.4 11.3 32.4 20.7 7.4 5.8 11.9 9.7 15.8 13.7 17.8 18 16 24.4 16 24.4s-14.6-12.1-70.7-18.3l-13.8-2.7c-8.5-1.6-25.9-9.2-28.4-11.6-13.2-8.1-19.8-19.9-21.4-34.3-2.6-22.3-10-91-10-101.7-.1-39.1 82.9-55.3 82.9-55.3z"/><g><defs><path id="SVGID_3_" d="M258.6 58.3s-9.6 95.2-9.6 133.1c0 13.9 1.1 27.1 6.8 32 6.3 5.5 20.4 11.3 32.4 20.7 7.4 5.8 11.9 9.7 15.8 13.7 17.8 18 16 24.4 16 24.4s-14.6-12.1-70.7-18.3l-13.8-2.7c-8.5-1.6-25.9-9.2-28.4-11.6-13.2-8.1-19.8-19.9-21.4-34.3-2.6-22.3-10-91-10-101.7-.1-39.1 82.9-55.3 82.9-55.3z"/></defs><clipPath id="SVGID_4_"><use xlink:href="#SVGID_3_" overflow="visible"/></clipPath><path class="st6 st4" d="M313.2 278.5c-24.6-24.2-53-24.4-78.5-41.4-12-8.1-14.9-17.1-15.6-31.2-.9-18.5 3.9-101.5 3.9-101.5 14.4-4.3 7.4-26.5-20.7-25.7-38.7 1.1-32.7 36.3-32.7 36.3l3.7 115.4 76 69.4"/></g><g><defs><path id="SVGID_5_" d="M258.6 58.3s-9.6 95.2-9.6 133.1c0 13.9 1.1 27.1 6.8 32 6.3 5.5 20.4 11.3 32.4 20.7 7.4 5.8 11.9 9.7 15.8 13.7 17.8 18 16 24.4 16 24.4s-14.6-12.1-70.7-18.3l-13.8-2.7c-8.5-1.6-25.9-9.2-28.4-11.6-13.2-8.1-19.8-19.9-21.4-34.3-2.6-22.3-10-91-10-101.7-.1-39.1 82.9-55.3 82.9-55.3z"/></defs><clipPath id="SVGID_6_"><use xlink:href="#SVGID_5_" overflow="visible"/></clipPath><path class="st7 st8" d="M235.9 259.7c-32.5-6.5-47.7-21.7-50.3-44.3-2.7-23.2-10.1-92-10-101.7.4-39.1 83-55.3 83-55.3s-10.1 92-10.1 129.9c0 13.9 3.6 22.8 23.1 28.7"/></g></g><g><path class="st2" d="M257.8 273.2l14.5 11.2h-44.6s-.5-19.7-.4-29.1c.2-9.4 5.6-23.9 12.4-32 6.8-8.1 12.5-.1 13.8 9.3 1.7 11.6 4.3 40.6 4.3 40.6z"/><path class="st0" d="M272.3 284.4h-16.5l5.2-8.7 11.3 8.7z"/><path class="st3" d="M250 242.7c0 1-.8 1.9-1.8 1.9s-1.8-.8-1.8-1.9c0-1 .8-1.9 1.8-1.9s1.8.8 1.8 1.9zM241.8 233.2c-.1 1.2-1.1 2.1-2 2-1-.1-1.6-1.2-1.5-2.5.1-1.2 1.1-2.1 2-2 1 .2 1.7 1.3 1.5 2.5zM246.8 236c0 .8-.6 1.5-1.4 1.5-.8 0-1.4-.7-1.4-1.5s.6-1.5 1.4-1.5c.8 0 1.4.6 1.4 1.5zM245.4 230.2c0 .7-.6 1.3-1.2 1.3s-1.2-.6-1.2-1.3.6-1.3 1.2-1.3 1.2.6 1.2 1.3zM241.1 237.8c0 .4-.3.7-.7.7s-.7-.3-.7-.7.3-.7.7-.7.7.3.7.7zM235.8 236c0 .6-.5 1.1-1.1 1.1s-1.1-.5-1.1-1.1.5-1.1 1.1-1.1c.6-.1 1.1.5 1.1 1.1zM231.8 245c0 .6-.5 1.1-1.1 1.1s-1.1-.5-1.1-1.1.5-1.1 1.1-1.1c.7 0 1.1.5 1.1 1.1zM236.5 240.1c0 .6-.5 1.1-1.1 1.1s-1.1-.5-1.1-1.1.5-1.1 1.1-1.1c.6-.1 1.1.4 1.1 1.1zM245.4 224.3c-.3.9-1 1.4-1.5 1.2-.6-.2-.8-1.1-.5-1.9.3-.9 1-1.4 1.5-1.2.6.1.8 1 .5 1.9zM249.6 227.4c0 .8-.6 3-1.4 3-.8 0-1.8-.9-1.8-2.2 0-.8 1-2.2 1.8-2.2.8-.1 1.4.6 1.4 1.4zM241.8 226.8c0 .9-.7 1.7-1.6 1.7s-1.6-.8-1.6-1.7.7-1.7 1.6-1.7 1.6.8 1.6 1.7zM252.6 234.3c0 .9-.4 1.7-1 1.7s-1.1-.7-1.1-1.6c0-.9.4-1.7 1-1.7.5 0 1 .7 1.1 1.6zM236.2 244.5c0 .8-.7 3-1.6 3-.9 0-2-.9-2-2.2 0-.8 1.1-2.2 2-2.2.9-.1 1.6.6 1.6 1.4zM242.2 242.9c.2.9-.1 1.7-.7 1.7s-1.2-.8-1.4-1.7.1-1.7.7-1.7 1.2.7 1.4 1.7zM240.8 248.6c0 .8-.6 1.5-1.4 1.5-.8 0-1.4-.7-1.4-1.5s.6-1.5 1.4-1.5c.7 0 1.4.7 1.4 1.5zM249.4 250.1c-.4-.7-.7-3 0-3.3.7-.4 2-.1 2.5 1.1.3.7.1 2.5-.6 2.8s-1.5.1-1.9-.6zM253.3 242c0 .7-.6 1.3-1.2 1.3-.7 0-1.2-.6-1.2-1.3s.6-1.3 1.2-1.3c.7 0 1.2.6 1.2 1.3zM231.6 251.2c0 .6-.5 1.1-1.1 1.1s-1.1-.5-1.1-1.1.5-1.1 1.1-1.1 1.1.5 1.1 1.1zM246.9 247.2c.2.7 0 2.6-.8 2.8s-1.9-.2-2.2-1.3c-.1-.7.5-2.1 1.3-2.3.8-.2 1.6.2 1.7.8zM240.8 260.2c0 1-.8 1.9-1.8 1.9s-1.8-.8-1.8-1.9.8-1.9 1.8-1.9 1.8.9 1.8 1.9zM245.4 269.6c.1-1.2 1.1-2.1 2-2 1 .1 1.6 1.2 1.5 2.5-.1 1.2-1.1 2.1-2 2-1-.1-1.6-1.2-1.5-2.5zM243.3 266.9c0 .8-.6 1.5-1.4 1.5-.8 0-1.4-.7-1.4-1.5s.6-1.5 1.4-1.5c.8 0 1.4.7 1.4 1.5zM244.4 272.7c0 .7-.6 1.3-1.2 1.3-.7 0-1.2-.6-1.2-1.3s.6-1.3 1.2-1.3 1.2.5 1.2 1.3zM247.5 265c0 .4-.3.7-.7.7s-.7-.3-.7-.7c0-.4.3-.7.7-.7.4 0 .7.3.7.7zM252.1 259.1c0 .6-.5 1.1-1.1 1.1s-1.1-.5-1.1-1.1.5-1.1 1.1-1.1c.6-.1 1.1.4 1.1 1.1zM241.8 278.6c.3-.9 1-1.4 1.5-1.2.6.2.8 1.1.5 1.9-.3.9-1 1.4-1.5 1.2-.5-.2-.7-1.1-.5-1.9zM239.4 281.6c0 .5-.4.9-.9.9s-.9-.4-.9-.9.4-.9.9-.9.9.4.9.9zM233.5 282.5c0 .5-.4.9-.9.9s-.9-.4-.9-.9.4-.9.9-.9.9.4.9.9zM237.7 275.5c0-.8.6-3 1.4-3 .8 0 1.8.9 1.8 2.2 0 .8-1 2.2-1.8 2.2s-1.4-.6-1.4-1.4zM234.2 275c.2.9.2 3.5-.5 3.7-.8.2-2-.5-2.3-2-.2-.9.3-2.8 1.1-3 .6-.2 1.4.3 1.7 1.3zM236.9 280.5c0 .7-.5 1.3-1.1 1.3s-1.1-.6-1.1-1.3.5-1.3 1.1-1.3c.7 0 1.1.6 1.1 1.3zM248.6 276c0 .9-.7 1.7-1.6 1.7s-1.6-.8-1.6-1.7c0-.9.7-1.7 1.6-1.7s1.6.8 1.6 1.7zM234.7 268.5c0-.9.4-1.7 1-1.7s1.1.7 1.1 1.6-.4 1.7-1 1.7c-.6.1-1.1-.7-1.1-1.6zM229.4 269.6c0-.9.4-1.7 1-1.7s1.1.7 1.1 1.6-.4 1.7-1 1.7c-.5.1-1-.6-1.1-1.6zM231.7 264.3c0-.6.5-2.2 1.1-2.2s1.4.6 1.4 1.7c0 .6-.8 1.7-1.4 1.7-.7-.1-1.1-.6-1.1-1.2zM251.8 254.2c0-.8.7-3 1.6-3s2 .9 2 2.2c0 .8-1.1 2.2-2 2.2s-1.6-.6-1.6-1.4zM245.1 260c-.2-.9.1-1.7.7-1.7s1.2.8 1.4 1.7c.2.9-.1 1.7-.7 1.7s-1.2-.8-1.4-1.7zM249.3 254.2c0 .8-.6 1.5-1.4 1.5-.8 0-1.4-.7-1.4-1.5s.6-1.5 1.4-1.5c.8 0 1.4.7 1.4 1.5zM237.9 252.8c.4.7.7 3 0 3.3-.7.4-2 .1-2.5-1.1-.3-.7-.1-2.5.6-2.8.7-.4 1.5-.1 1.9.6zM229.9 257.7c.1-1.2 1.1-2.1 2-2 1 .1 1.6 1.2 1.5 2.5-.1 1.2-1.1 2.1-2 2-1-.2-1.6-1.3-1.5-2.5zM230.6 262.2c0 .7-.6 1.3-1.2 1.3s-1.2-.6-1.2-1.3c0-.7.6-1.3 1.2-1.3s1.2.6 1.2 1.3zM240.3 255.6c-.2-.7 0-2.6.8-2.8s1.9.2 2.2 1.3c.1.7-.5 2.1-1.3 2.3-.8.3-1.5-.1-1.7-.8zM255 270.8c0 .7-.6 1.3-1.2 1.3-.7 0-1.2-.6-1.2-1.3 0-.7.6-1.3 1.2-1.3.7 0 1.2.6 1.2 1.3zM250.6 279.5c-.2-.7 0-2.6.8-2.8.8-.2 1.9.2 2.2 1.3.1.7-.5 2.1-1.3 2.3-.8.2-1.5-.2-1.7-.8zM245.6 282.6c-.2-.7 0-2.6.8-2.8s1.9.2 2.2 1.3c.1.7-.5 2.1-1.3 2.3-.8.2-1.6-.2-1.7-.8zM243.3 261.3c0 .4-.3.7-.7.7s-.7-.3-.7-.7c0-.4.3-.7.7-.7.4 0 .7.3.7.7zM255.7 258.7c0 .4-.3.7-.7.7s-.7-.3-.7-.7c0-.4.3-.7.7-.7.4-.1.7.3.7.7zM251.7 263.9c.5-.7 2.2-2 2.8-1.6.6.5 1 1.8.2 2.9-.5.7-2 1.2-2.7.7-.6-.4-.8-1.3-.3-2zM230.9 279.3c0 .7-.5 1.3-1.1 1.3s-1.1-.6-1.1-1.3c0-.7.5-1.3 1.1-1.3.7 0 1.1.6 1.1 1.3z"/><path class="st8" d="M250 242.7c0 1-.8 1.9-1.8 1.9s-1.8-.8-1.8-1.9c0-1 .8-1.9 1.8-1.9s1.8.8 1.8 1.9zM241.8 233.2c-.1 1.2-1.1 2.1-2 2-1-.1-1.6-1.2-1.5-2.5.1-1.2 1.1-2.1 2-2 1 .2 1.7 1.3 1.5 2.5zM246.8 236c0 .8-.6 1.5-1.4 1.5-.8 0-1.4-.7-1.4-1.5s.6-1.5 1.4-1.5c.8 0 1.4.6 1.4 1.5zM245.4 230.2c0 .7-.6 1.3-1.2 1.3s-1.2-.6-1.2-1.3.6-1.3 1.2-1.3 1.2.6 1.2 1.3zM241.1 237.8c0 .4-.3.7-.7.7s-.7-.3-.7-.7.3-.7.7-.7.7.3.7.7zM235.8 236c0 .6-.5 1.1-1.1 1.1s-1.1-.5-1.1-1.1.5-1.1 1.1-1.1c.6-.1 1.1.5 1.1 1.1zM231.6 243.4c0 .6-.5 1.1-1.1 1.1s-1.1-.5-1.1-1.1.5-1.1 1.1-1.1 1.1.5 1.1 1.1zM236.5 240.1c0 .6-.5 1.1-1.1 1.1s-1.1-.5-1.1-1.1.5-1.1 1.1-1.1c.6-.1 1.1.4 1.1 1.1zM245.4 224.3c-.3.9-1 1.4-1.5 1.2-.6-.2-.8-1.1-.5-1.9.3-.9 1-1.4 1.5-1.2.6.1.8 1 .5 1.9zM249.6 227.4c0 .8-.6 3-1.4 3-.8 0-1.8-.9-1.8-2.2 0-.8 1-2.2 1.8-2.2.8-.1 1.4.6 1.4 1.4zM241.8 226.8c0 .9-.7 1.7-1.6 1.7s-1.6-.8-1.6-1.7.7-1.7 1.6-1.7 1.6.8 1.6 1.7zM252.6 234.3c0 .9-.4 1.7-1 1.7s-1.1-.7-1.1-1.6c0-.9.4-1.7 1-1.7.5 0 1 .7 1.1 1.6zM236.2 244.5c0 .8-.7 3-1.6 3-.9 0-2-.9-2-2.2 0-.8 1.1-2.2 2-2.2.9-.1 1.6.6 1.6 1.4zM242.2 242.9c.2.9-.1 1.7-.7 1.7s-1.2-.8-1.4-1.7.1-1.7.7-1.7 1.2.7 1.4 1.7zM240.8 248.6c0 .8-.6 1.5-1.4 1.5-.8 0-1.4-.7-1.4-1.5s.6-1.5 1.4-1.5c.7 0 1.4.7 1.4 1.5zM249.4 250.1c-.4-.7-.7-3 0-3.3.7-.4 2-.1 2.5 1.1.3.7.1 2.5-.6 2.8s-1.5.1-1.9-.6zM231.6 251.2c0 .6-.5 1.1-1.1 1.1s-1.1-.5-1.1-1.1.5-1.1 1.1-1.1 1.1.5 1.1 1.1zM246.9 247.2c.2.7 0 2.6-.8 2.8s-1.9-.2-2.2-1.3c-.1-.7.5-2.1 1.3-2.3.8-.2 1.6.2 1.7.8zM240.8 260.2c0 1-.8 1.9-1.8 1.9s-1.8-.8-1.8-1.9.8-1.9 1.8-1.9 1.8.9 1.8 1.9zM245.4 269.6c.1-1.2 1.1-2.1 2-2 1 .1 1.6 1.2 1.5 2.5-.1 1.2-1.1 2.1-2 2-1-.1-1.6-1.2-1.5-2.5zM243.3 266.9c0 .8-.6 1.5-1.4 1.5-.8 0-1.4-.7-1.4-1.5s.6-1.5 1.4-1.5c.8 0 1.4.7 1.4 1.5zM244.4 272.7c0 .7-.6 1.3-1.2 1.3-.7 0-1.2-.6-1.2-1.3s.6-1.3 1.2-1.3 1.2.5 1.2 1.3zM247.5 265c0 .4-.3.7-.7.7s-.7-.3-.7-.7c0-.4.3-.7.7-.7.4 0 .7.3.7.7zM252.1 259.1c0 .6-.5 1.1-1.1 1.1s-1.1-.5-1.1-1.1.5-1.1 1.1-1.1c.6-.1 1.1.4 1.1 1.1zM241.8 278.6c.3-.9 1-1.4 1.5-1.2.6.2.8 1.1.5 1.9-.3.9-1 1.4-1.5 1.2-.5-.2-.7-1.1-.5-1.9zM239.4 281.6c0 .5-.4.9-.9.9s-.9-.4-.9-.9.4-.9.9-.9.9.4.9.9zM237.7 275.5c0-.8.6-3 1.4-3 .8 0 1.8.9 1.8 2.2 0 .8-1 2.2-1.8 2.2s-1.4-.6-1.4-1.4zM234.2 275c.2.9.2 3.5-.5 3.7-.8.2-2-.5-2.3-2-.2-.9.3-2.8 1.1-3 .6-.2 1.4.3 1.7 1.3zM236.9 280.5c0 .7-.5 1.3-1.1 1.3s-1.1-.6-1.1-1.3.5-1.3 1.1-1.3c.7 0 1.1.6 1.1 1.3zM248.6 276c0 .9-.7 1.7-1.6 1.7s-1.6-.8-1.6-1.7c0-.9.7-1.7 1.6-1.7s1.6.8 1.6 1.7zM234.7 268.5c0-.9.4-1.7 1-1.7s1.1.7 1.1 1.6-.4 1.7-1 1.7c-.6.1-1.1-.7-1.1-1.6zM229.4 269.6c0-.9.4-1.7 1-1.7s1.1.7 1.1 1.6-.4 1.7-1 1.7c-.5.1-1-.6-1.1-1.6zM231.7 264.3c0-.6.5-2.2 1.1-2.2s1.4.6 1.4 1.7c0 .6-.8 1.7-1.4 1.7-.7-.1-1.1-.6-1.1-1.2zM251.8 254.2c0-.8.7-3 1.6-3s2 .9 2 2.2c0 .8-1.1 2.2-2 2.2s-1.6-.6-1.6-1.4zM245.1 260c-.2-.9.1-1.7.7-1.7s1.2.8 1.4 1.7c.2.9-.1 1.7-.7 1.7s-1.2-.8-1.4-1.7zM249.3 254.2c0 .8-.6 1.5-1.4 1.5-.8 0-1.4-.7-1.4-1.5s.6-1.5 1.4-1.5c.8 0 1.4.7 1.4 1.5zM237.9 252.8c.4.7.7 3 0 3.3-.7.4-2 .1-2.5-1.1-.3-.7-.1-2.5.6-2.8.7-.4 1.5-.1 1.9.6zM229.9 257.7c.1-1.2 1.1-2.1 2-2 1 .1 1.6 1.2 1.5 2.5-.1 1.2-1.1 2.1-2 2-1-.2-1.6-1.3-1.5-2.5zM230.6 262.2c0 .7-.6 1.3-1.2 1.3s-1.2-.6-1.2-1.3c0-.7.6-1.3 1.2-1.3s1.2.6 1.2 1.3zM240.3 255.6c-.2-.7 0-2.6.8-2.8s1.9.2 2.2 1.3c.1.7-.5 2.1-1.3 2.3-.8.3-1.5-.1-1.7-.8zM255 270.8c0 .7-.6 1.3-1.2 1.3-.7 0-1.2-.6-1.2-1.3 0-.7.6-1.3 1.2-1.3.7 0 1.2.6 1.2 1.3zM250.6 279.5c-.2-.7 0-2.6.8-2.8.8-.2 1.9.2 2.2 1.3.1.7-.5 2.1-1.3 2.3-.8.2-1.5-.2-1.7-.8zM243.3 261.3c0 .4-.3.7-.7.7s-.7-.3-.7-.7c0-.4.3-.7.7-.7.4 0 .7.3.7.7zM251.7 263.9c.5-.7 2.2-2 2.8-1.6.6.5 1 1.8.2 2.9-.5.7-2 1.2-2.7.7-.6-.4-.8-1.3-.3-2z"/></g><g><path class="st9" d="M243.7 93.7c8.9-18.3 14.6-35.7 14.6-35.7s-33.9-1.6-48-2.3c-37.1-2-61-1.7-63.2 23.4-2.2 25.2.9 42.7.9 42.7.3-.7 10 1.2 19.9 1.6 9.1.4 18 0 18 0-.1-.1 43.7-.7 57.8-29.7z"/></g><g><path class="st9" d="M171.5 59c2.2 7.3-.6 14.4-6.2 15.8-5.6 1.4-11.9-3.5-14-10.8-2.2-7.3.6-14.4 6.2-15.8 5.6-1.4 11.9 3.5 14 10.8z"/><path class="st0" d="M163.6 59c1.3 3.2.8 6.5-1.1 7.4-2 .9-4.6-.9-6-4-1.3-3.2-.8-6.5 1.1-7.4 1.9-1 4.6.8 6 4z"/><path class="st9" d="M154.4 64.5c4.5 5.5 4.7 12.3.5 15.2-4.2 2.8-11.3.7-15.8-4.9-4.5-5.5-4.7-12.3-.5-15.2 4.2-2.8 11.3-.6 15.8 4.9z"/><path class="st0" d="M148.1 66c2 2.2 2.4 4.9.9 6.2-1.5 1.3-4.4.6-6.4-1.6s-2.4-4.9-.9-6.2c1.6-1.3 4.4-.5 6.4 1.6z"/></g><g><path class="st0" d="M255.3 21.9c.7 1.7.9 4-.4 5.1-1.2 1.1-3.9 1.1-5.1 0-1.2-1.1-6.1-5.9-8.1-6.6s-4.3-3-3.7-5.1c.6-2.2 3.2-3 6.6-2.6 5.1.7 9 5.2 10.7 9.2zM194.3 21c-.9 1.6-1.3 3.9-.2 5.2s3.8 1.6 5.1.5c1.4-1 6.7-5.3 8.8-5.8s4.6-2.5 4.2-4.8c-.4-2.2-2.9-3.4-6.3-3.3-5.1.2-9.5 4.3-11.6 8.2z"/><path class="st2" d="M261.9 49.4c0 11.3-9.2 20.5-20.6 20.5s-20.6-9.2-20.6-20.5 9.3-20.5 20.7-20.5 20.5 9.2 20.5 20.5z"/><path class="st2" d="M231.1 47.6c0 11.3-9.2 20.6-20.6 20.6-11.4 0-20.6-9.2-20.6-20.6 0-11.3 9.2-20.6 20.6-20.6 11.4 0 20.6 9.2 20.6 20.6z"/><path class="st10" d="M254.6 49.4c0 7.3-5.9 13.2-13.2 13.2s-13.2-5.9-13.2-13.2 5.9-13.2 13.2-13.2 13.2 5.9 13.2 13.2z"/><path class="st0" d="M247.6 49.4c0 3.4-2.8 6.2-6.2 6.2s-6.3-2.7-6.3-6.2c0-3.4 2.8-6.2 6.2-6.2s6.3 2.8 6.3 6.2z"/><path class="st10" d="M223.7 47.6c0 7.3-5.9 13.2-13.2 13.2s-13.2-5.9-13.2-13.2 5.9-13.2 13.2-13.2 13.2 5.9 13.2 13.2z"/><path class="st0" d="M216.8 47.6c0 3.4-2.8 6.2-6.2 6.2s-6.2-2.8-6.2-6.2 2.8-6.2 6.2-6.2 6.2 2.7 6.2 6.2z"/></g><g><path class="st10" d="M176.2 123.5c8.5-.1 22.5-1.7 35.1-6 9.9-3.4 22.3-9.6 25-20.1.2-.9 1.1-1.4 2-1.2.9.2 1.4 1.1 1.2 2-5.5 21.3-44.3 28.3-63.1 28.5 0 0-.3-3-.2-3.2z"/></g><path class="st10" d="M235.5 106.3l.8 15.1-15.7-4.1-5.4 13.9-14.3-7.3-8.4 12.2L181 126l4.2-1.5 20.4-3.6 16.1-5.6z"/><g><path class="st11" d="M3 73.2V28c0-6.3 5.2-11.5 11.5-11.5h105c6.3 0 11.5 5.2 11.5 11.5v45.2c0 6.3-5.2 11.5-11.5 11.5h-105C8.2 84.7 3 79.6 3 73.2z"/><path class="st11" d="M119.4 83.8l11.6 7.4V74.9z"/></g></svg>