<?xml version="1.0" encoding="UTF-8" standalone="no"?>
<svg width="150px" height="104px" viewBox="0 0 150 104" version="1.1" xmlns="http://www.w3.org/2000/svg" xmlns:xlink="http://www.w3.org/1999/xlink" xmlns:sketch="http://www.bohemiancoding.com/sketch/ns">
    <!-- Generator: Sketch 3.3.2 (12043) - http://www.bohemiancoding.com/sketch -->
    <title>help_2</title>
    <desc>Created with Sketch.</desc>
    <defs></defs>
    <g id="Page-3-Copy" stroke="none" stroke-width="1" fill="none" fill-rule="evenodd" sketch:type="MSPage">
        <g id="help_2" sketch:type="MSArtboardGroup" stroke="#EFDE7C" stroke-width="5" stroke-linecap="round" stroke-linejoin="round">
            <g id="Group" sketch:type="MSLayerGroup" transform="translate(5.000000, 3.000000)">
                <path d="M76.5,75.5 L9.5,75.5 C4.60958716,75.5 0.5,71.360843 0.5,66.5 L0.5,9.5 C0.5,4.64264939 4.60655048,0.5 9.5,0.5 L91.5,0.5 C96.3931995,0.5 100.5,4.6486755 100.5,9.5 L100.5,19.5" id="Rectangle-10" sketch:type="MSShapeGroup"></path>
                <ellipse id="Oval-60" sketch:type="MSShapeGroup" cx="112.73064" cy="84.0434783" rx="5.49494949" ry="5.53623188"></ellipse>
                <path d="M44,77.5 C43.8924376,84.0053352 32.3154063,91.9046708 30,91.5 L30,97.5 L56,97.5" id="Path-180" sketch:type="MSShapeGroup"></path>
                <path d="M64,77.5 C63.8924376,84.0053352 52.3154063,91.9046708 50,91.5 L50,97.5 L76,97.5" id="Path-180-Copy" sketch:type="MSShapeGroup" transform="translate(63.000000, 87.500000) scale(-1, 1) translate(-63.000000, -87.500000) "></path>
                <rect id="Rectangle-27" sketch:type="MSShapeGroup" x="85.5" y="27.5" width="54" height="72" rx="8"></rect>
            </g>
        </g>
    </g>
</svg>